<svg xmlns="http://www.w3.org/2000/svg" xmlns:xlink="http://www.w3.org/1999/xlink" preserveAspectRatio="xMidYMid" width="49.344" height="51.157" viewBox="0 0 49.344 51.157">
  <defs>
    <style>
      .cls-1 {
        stroke: #000;
        stroke-width: 2px;
        fill: none;
        fill-rule: evenodd;
      }
    </style>
  </defs>
  <path d="M32.808,50.147 L6.905,36.426 C6.940,36.401 7.048,36.268 7.230,36.027 C7.412,35.786 7.607,35.519 7.815,35.227 C8.024,34.935 8.151,34.768 8.194,34.726 C9.949,32.391 11.254,30.417 12.110,28.802 C12.830,27.442 13.062,26.292 12.804,25.350 C12.476,24.176 11.933,23.387 11.174,22.985 C10.803,22.789 10.310,22.690 9.694,22.691 C9.078,22.691 8.481,22.739 7.901,22.835 C7.321,22.931 6.627,22.927 5.817,22.824 C5.008,22.722 4.240,22.479 3.515,22.094 C2.132,21.362 1.323,20.292 1.086,18.882 C0.850,17.473 1.115,16.046 1.880,14.602 C2.600,13.242 3.579,12.302 4.815,11.782 C6.052,11.262 7.336,11.355 8.668,12.060 C9.360,12.427 9.934,12.922 10.392,13.545 C10.850,14.169 11.177,14.755 11.372,15.304 C11.566,15.853 11.872,16.429 12.288,17.030 C12.704,17.631 13.224,18.097 13.848,18.427 C14.809,18.936 15.702,18.953 16.527,18.475 C17.352,17.998 18.039,17.241 18.588,16.205 C19.164,15.118 19.848,13.521 20.639,11.415 C21.430,9.310 22.021,7.849 22.410,7.032 L22.461,7.059 C22.486,7.094 22.617,7.202 22.856,7.383 C23.095,7.564 23.359,7.758 23.649,7.966 C23.938,8.174 24.104,8.300 24.145,8.343 C26.459,10.091 28.417,11.389 30.019,12.238 C31.368,12.952 32.512,13.178 33.451,12.913 C34.623,12.577 35.411,12.025 35.816,11.261 C36.014,10.887 36.115,10.391 36.119,9.772 C36.122,9.154 36.079,8.554 35.987,7.972 C35.896,7.391 35.903,6.693 36.011,5.880 C36.118,5.066 36.365,4.294 36.752,3.562 C37.490,2.169 38.562,1.349 39.966,1.103 C41.371,0.857 42.781,1.109 44.198,1.859 C45.564,2.583 46.502,3.564 47.012,4.802 C47.522,6.041 47.421,7.332 46.710,8.674 C46.341,9.371 45.845,9.951 45.221,10.416 C44.597,10.880 44.011,11.211 43.463,11.410 C42.915,11.610 42.340,11.920 41.739,12.341 C41.138,12.763 40.670,13.288 40.338,13.917 C39.347,15.787 39.898,17.275 41.989,18.383 C42.646,18.731 43.688,19.109 45.114,19.515 C46.539,19.923 47.577,20.309 48.225,20.674 L48.352,20.741 C48.154,21.115 48.014,21.400 47.932,21.596 C47.676,22.200 47.334,23.080 46.906,24.235 C46.477,25.390 46.071,26.432 45.688,27.360 C45.304,28.289 44.905,29.144 44.491,29.926 C43.942,30.962 43.254,31.719 42.430,32.196 C41.605,32.674 40.712,32.657 39.750,32.148 C39.127,31.818 38.606,31.352 38.191,30.751 C37.775,30.150 37.469,29.574 37.275,29.025 C37.080,28.476 36.753,27.889 36.295,27.266 C35.837,26.643 35.263,26.148 34.571,25.781 C33.239,25.076 31.955,24.983 30.718,25.503 C29.482,26.023 28.498,26.971 27.769,28.348 C27.013,29.775 26.753,31.194 26.989,32.603 C27.226,34.013 28.035,35.083 29.418,35.815 C30.143,36.200 30.911,36.443 31.720,36.545 C32.530,36.648 33.224,36.652 33.804,36.556 C34.384,36.460 34.981,36.412 35.597,36.412 C36.213,36.411 36.706,36.510 37.077,36.706 C37.836,37.108 38.379,37.897 38.707,39.071 C38.964,40.013 38.733,41.163 38.013,42.523 C37.157,44.137 35.852,46.112 34.097,48.447 C33.982,48.582 33.825,48.798 33.625,49.094 C33.424,49.391 33.267,49.606 33.152,49.742 L32.926,50.046 C32.917,50.063 32.895,50.084 32.860,50.109 C32.842,50.144 32.825,50.156 32.808,50.147 Z" class="cls-1"/>
</svg>
