<svg xmlns="http://www.w3.org/2000/svg" xmlns:xlink="http://www.w3.org/1999/xlink" preserveAspectRatio="xMidYMid" width="37" height="37" viewBox="0 0 37 37">
  <defs>
    <style>
      .cls-1 {
        fill: #000;
        fill-rule: evenodd;
      }
    </style>
  </defs>
  <path d="M30.952,36.997 L6.046,36.997 C2.710,36.997 -0.003,34.283 -0.003,30.948 L-0.003,6.050 C-0.003,2.715 2.710,0.002 6.046,0.002 L30.952,0.002 C34.288,0.002 37.001,2.715 37.001,6.050 L37.001,30.948 C37.001,34.283 34.288,36.997 30.952,36.997 ZM1.777,12.924 L1.777,30.948 C1.777,33.302 3.692,35.217 6.046,35.217 L30.952,35.217 C33.306,35.217 35.222,33.302 35.222,30.948 L35.222,12.924 L26.303,12.924 C27.466,14.549 28.109,16.513 28.109,18.533 C28.109,23.850 23.783,28.176 18.465,28.176 C13.147,28.176 8.820,23.850 8.820,18.533 C8.820,16.513 9.464,14.549 10.627,12.924 L1.777,12.924 ZM18.465,10.671 C14.128,10.671 10.600,14.198 10.600,18.533 C10.600,22.869 14.128,26.396 18.465,26.396 C22.801,26.396 26.329,22.869 26.329,18.533 C26.329,14.198 22.801,10.671 18.465,10.671 ZM24.654,11.144 L35.222,11.144 L35.222,6.050 C35.222,3.696 33.306,1.781 30.952,1.781 L11.047,1.781 L11.047,11.144 L12.275,11.144 C14.010,9.689 16.195,8.891 18.465,8.891 C20.734,8.891 22.919,9.689 24.654,11.144 ZM6.782,11.144 L9.267,11.144 L9.267,1.781 L6.782,1.781 L6.782,11.144 ZM1.777,11.144 L5.002,11.144 L5.002,1.908 C3.136,2.372 1.777,4.047 1.777,6.050 L1.777,11.144 ZM18.194,24.037 C15.116,24.037 12.613,21.534 12.613,18.458 C12.613,15.381 15.116,12.878 18.194,12.878 C21.271,12.878 23.775,15.381 23.775,18.458 C23.775,21.534 21.271,24.037 18.194,24.037 ZM18.194,14.658 C16.098,14.658 14.393,16.362 14.393,18.458 C14.393,20.553 16.098,22.258 18.194,22.258 C20.290,22.258 21.995,20.553 21.995,18.458 C21.995,16.362 20.290,14.658 18.194,14.658 ZM30.814,10.671 L26.600,10.671 C25.654,10.671 24.884,9.902 24.884,8.956 L24.884,4.743 C24.884,3.797 25.654,3.028 26.600,3.028 L30.814,3.028 C31.760,3.028 32.529,3.797 32.529,4.743 L32.529,8.956 C32.529,9.902 31.760,10.671 30.814,10.671 ZM26.665,8.891 L30.750,8.891 L30.750,4.807 L26.665,4.807 L26.665,8.891 Z" class="cls-1"/>
</svg>
