<svg xmlns="http://www.w3.org/2000/svg" xmlns:xlink="http://www.w3.org/1999/xlink" preserveAspectRatio="xMidYMid" width="45" height="36" viewBox="0 0 45 36">
  <defs>
    <style>
      .cls-1 {
        fill: #000;
        stroke: #000;
        stroke-width: 1px;
        fill-rule: evenodd;
      }
    </style>
  </defs>
  <path d="M30.960,1.403 C33.321,1.403 35.256,2.223 36.876,3.908 L37.224,4.271 L37.723,4.176 C38.922,3.950 40.091,3.611 41.217,3.162 C40.599,3.984 39.807,4.674 38.832,5.247 L39.406,6.922 C40.189,6.840 40.977,6.703 41.765,6.512 C41.048,7.236 40.269,7.897 39.435,8.491 L39.020,8.785 L39.056,9.286 C39.073,9.523 39.082,9.888 39.082,10.371 C39.082,12.642 38.738,14.944 38.058,17.212 C37.380,19.476 36.332,21.682 34.946,23.768 C33.558,25.855 31.884,27.726 29.969,29.330 C28.071,30.919 25.743,32.208 23.052,33.159 C20.356,34.112 17.428,34.596 14.348,34.596 C10.761,34.596 7.366,33.890 4.214,32.493 C7.986,32.215 11.421,30.903 14.443,28.583 L16.484,27.015 L13.891,26.967 C12.119,26.934 10.578,26.416 9.180,25.385 C8.184,24.651 7.424,23.792 6.880,22.783 C6.969,22.786 7.058,22.787 7.145,22.787 C8.021,22.787 8.899,22.676 9.752,22.456 L9.703,20.696 C7.813,20.316 6.291,19.419 5.049,17.955 C4.108,16.846 3.535,15.627 3.314,14.256 C4.276,14.598 5.284,14.790 6.327,14.829 L9.600,14.952 L6.875,13.173 C5.777,12.456 4.891,11.505 4.241,10.345 C3.594,9.193 3.266,7.922 3.266,6.570 C3.266,5.584 3.441,4.639 3.788,3.749 C5.930,6.065 8.475,7.975 11.370,9.438 C14.702,11.121 18.318,12.070 22.119,12.258 L23.316,12.317 L23.068,11.168 C22.933,10.541 22.865,9.924 22.865,9.332 C22.865,7.118 23.639,5.283 25.233,3.723 C26.826,2.162 28.699,1.403 30.960,1.403 M30.960,0.499 C28.465,0.499 26.339,1.361 24.580,3.083 C22.821,4.806 21.941,6.889 21.941,9.332 C21.941,9.988 22.016,10.662 22.165,11.355 C18.480,11.173 15.022,10.266 11.793,8.634 C8.564,7.003 5.823,4.829 3.571,2.113 C2.752,3.480 2.343,4.966 2.343,6.570 C2.343,8.083 2.705,9.487 3.431,10.781 C4.157,12.075 5.135,13.123 6.363,13.925 C4.911,13.871 3.552,13.497 2.287,12.804 L2.287,12.914 C2.287,15.046 2.971,16.919 4.339,18.533 C5.707,20.146 7.433,21.163 9.518,21.582 C8.736,21.783 7.945,21.882 7.145,21.882 C6.623,21.882 6.056,21.837 5.442,21.746 C6.018,23.514 7.079,24.968 8.624,26.107 C10.169,27.247 11.919,27.835 13.873,27.871 C10.597,30.387 6.865,31.644 2.678,31.644 C1.877,31.644 1.151,31.608 0.500,31.535 C4.688,34.178 9.304,35.500 14.348,35.500 C17.549,35.500 20.555,35.003 23.365,34.010 C26.176,33.016 28.577,31.685 30.569,30.017 C32.560,28.349 34.277,26.431 35.720,24.261 C37.162,22.092 38.237,19.827 38.944,17.466 C39.651,15.106 40.005,12.741 40.005,10.371 C40.005,9.860 39.996,9.478 39.977,9.222 C41.745,7.964 43.253,6.442 44.500,4.656 C42.769,5.385 41.038,5.841 39.307,6.023 C41.261,4.874 42.583,3.252 43.272,1.156 C41.485,2.195 39.577,2.906 37.548,3.288 C35.761,1.429 33.565,0.499 30.960,0.499 L30.960,0.499 Z" class="cls-1"/>
</svg>
