<?xml version="1.0" encoding="utf-8"?>
<!-- Generator: Adobe Illustrator 19.1.0, SVG Export Plug-In . SVG Version: 6.00 Build 0)  -->
<svg version="1.1" id="Layer_1" xmlns="http://www.w3.org/2000/svg" xmlns:xlink="http://www.w3.org/1999/xlink" x="0px" y="0px"
	 viewBox="-352 227 86.1 160" style="enable-background:new -352 227 86.1 160;" xml:space="preserve">
<style type="text/css">
	.st0{fill:#DB504A;}
</style>
<g>
	<path class="st0" d="M-352,233.1c0-3.4,2.7-6.1,6.1-6.1s6.1,2.7,6.1,6.1c0,3.4-2.7,6.1-6.1,6.1C-349.3,239.2-352,236.5-352,233.1
		L-352,233.1z"/>
	<path class="st0" d="M-352,251.6c0-3.4,2.7-6.1,6.1-6.1s6.1,2.7,6.1,6.1c0,3.4-2.7,6.1-6.1,6.1S-352,255-352,251.6L-352,251.6z"/>
	<path class="st0" d="M-333.5,251.6c0-3.4,2.7-6.1,6.1-6.1s6.1,2.7,6.1,6.1c0,3.4-2.7,6.1-6.1,6.1S-333.5,255-333.5,251.6
		L-333.5,251.6z"/>
	<path class="st0" d="M-333.5,270.1c0-3.4,2.7-6.1,6.1-6.1s6.1,2.7,6.1,6.1s-2.7,6.1-6.1,6.1S-333.5,273.4-333.5,270.1L-333.5,270.1
		z"/>
	<path class="st0" d="M-315.1,270.1c0-3.4,2.7-6.1,6.1-6.1c3.4,0,6.1,2.7,6.1,6.1s-2.7,6.1-6.1,6.1
		C-312.3,276.2-315.1,273.4-315.1,270.1L-315.1,270.1z"/>
	<path class="st0" d="M-315.1,288.5c0-3.4,2.7-6.1,6.1-6.1c3.4,0,6.1,2.7,6.1,6.1s-2.7,6.1-6.1,6.1
		C-312.3,294.6-315.1,291.9-315.1,288.5L-315.1,288.5z"/>
	<path class="st0" d="M-296.6,288.5c0-3.4,2.7-6.1,6.1-6.1c3.4,0,6.1,2.7,6.1,6.1s-2.7,6.1-6.1,6.1
		C-293.8,294.6-296.6,291.9-296.6,288.5L-296.6,288.5z"/>
	<path class="st0" d="M-296.6,307c0-3.4,2.7-6.1,6.1-6.1c3.4,0,6.1,2.7,6.1,6.1s-2.7,6.1-6.1,6.1
		C-293.8,313.1-296.6,310.4-296.6,307L-296.6,307z"/>
	<path class="st0" d="M-278.1,307c0-3.4,2.7-6.1,6.1-6.1c3.4,0,6.1,2.7,6.1,6.1s-2.7,6.1-6.1,6.1
		C-275.4,313.1-278.1,310.4-278.1,307L-278.1,307z"/>
	<path class="st0" d="M-315.1,325.5c0-3.4,2.7-6.1,6.1-6.1c3.4,0,6.1,2.7,6.1,6.1s-2.7,6.1-6.1,6.1
		C-312.3,331.6-315.1,328.8-315.1,325.5L-315.1,325.5z"/>
	<path class="st0" d="M-296.6,325.5c0-3.4,2.7-6.1,6.1-6.1c3.4,0,6.1,2.7,6.1,6.1s-2.7,6.1-6.1,6.1
		C-293.8,331.6-296.6,328.8-296.6,325.5L-296.6,325.5z"/>
	<path class="st0" d="M-333.5,343.9c0-3.4,2.7-6.1,6.1-6.1s6.1,2.7,6.1,6.1s-2.7,6.1-6.1,6.1C-330.8,350.1-333.5,347.3-333.5,343.9
		L-333.5,343.9z"/>
	<path class="st0" d="M-315.1,343.9c0-3.4,2.7-6.1,6.1-6.1c3.4,0,6.1,2.7,6.1,6.1s-2.7,6.1-6.1,6.1
		C-312.3,350.1-315.1,347.3-315.1,343.9L-315.1,343.9z"/>
	<path class="st0" d="M-352,362.4c0-3.4,2.7-6.1,6.1-6.1s6.1,2.7,6.1,6.1s-2.7,6.1-6.1,6.1S-352,365.8-352,362.4L-352,362.4z"/>
	<path class="st0" d="M-333.5,362.4c0-3.4,2.7-6.1,6.1-6.1s6.1,2.7,6.1,6.1s-2.7,6.1-6.1,6.1S-333.5,365.8-333.5,362.4L-333.5,362.4
		z"/>
	<path class="st0" d="M-352,380.9c0-3.4,2.7-6.1,6.1-6.1s6.1,2.7,6.1,6.1s-2.7,6.1-6.1,6.1S-352,384.3-352,380.9L-352,380.9z"/>
</g>
</svg>
