<?xml version="1.0" encoding="utf-8"?>
<!-- Generator: Adobe Illustrator 19.1.0, SVG Export Plug-In . SVG Version: 6.00 Build 0)  -->
<svg version="1.1" id="Layer_1" xmlns="http://www.w3.org/2000/svg" xmlns:xlink="http://www.w3.org/1999/xlink" x="0px" y="0px"
	 viewBox="-267 227 86.1 160" style="enable-background:new -267 227 86.1 160;" xml:space="preserve">
<g>
	<path d="M-267,233.1c0-3.4,2.7-6.1,6.1-6.1c3.4,0,6.1,2.7,6.1,6.1c0,3.4-2.7,6.1-6.1,6.1C-264.3,239.2-267,236.5-267,233.1
		L-267,233.1z"/>
	<path d="M-267,251.6c0-3.4,2.7-6.1,6.1-6.1c3.4,0,6.1,2.7,6.1,6.1c0,3.4-2.7,6.1-6.1,6.1C-264.3,257.7-267,255-267,251.6
		L-267,251.6z"/>
	<path d="M-248.5,251.6c0-3.4,2.7-6.1,6.1-6.1c3.4,0,6.1,2.7,6.1,6.1c0,3.4-2.7,6.1-6.1,6.1C-245.8,257.7-248.5,255-248.5,251.6
		L-248.5,251.6z"/>
	<path d="M-248.5,270.1c0-3.4,2.7-6.1,6.1-6.1c3.4,0,6.1,2.7,6.1,6.1c0,3.4-2.7,6.1-6.1,6.1C-245.8,276.2-248.5,273.4-248.5,270.1
		L-248.5,270.1z"/>
	<path d="M-230.1,270.1c0-3.4,2.7-6.1,6.1-6.1c3.4,0,6.1,2.7,6.1,6.1c0,3.4-2.7,6.1-6.1,6.1C-227.3,276.2-230.1,273.4-230.1,270.1
		L-230.1,270.1z"/>
	<path d="M-230.1,288.5c0-3.4,2.7-6.1,6.1-6.1c3.4,0,6.1,2.7,6.1,6.1c0,3.4-2.7,6.1-6.1,6.1C-227.3,294.6-230.1,291.9-230.1,288.5
		L-230.1,288.5z"/>
	<path d="M-211.6,288.5c0-3.4,2.7-6.1,6.1-6.1c3.4,0,6.1,2.7,6.1,6.1c0,3.4-2.7,6.1-6.1,6.1C-208.8,294.6-211.6,291.9-211.6,288.5
		L-211.6,288.5z"/>
	<path d="M-211.6,307c0-3.4,2.7-6.1,6.1-6.1c3.4,0,6.1,2.7,6.1,6.1s-2.7,6.1-6.1,6.1C-208.8,313.1-211.6,310.4-211.6,307L-211.6,307
		z"/>
	<path d="M-193.1,307c0-3.4,2.7-6.1,6.1-6.1c3.4,0,6.1,2.7,6.1,6.1s-2.7,6.1-6.1,6.1C-190.4,313.1-193.1,310.4-193.1,307L-193.1,307
		z"/>
	<path d="M-230.1,325.5c0-3.4,2.7-6.1,6.1-6.1c3.4,0,6.1,2.7,6.1,6.1c0,3.4-2.7,6.1-6.1,6.1C-227.3,331.6-230.1,328.8-230.1,325.5
		L-230.1,325.5z"/>
	<path d="M-211.6,325.5c0-3.4,2.7-6.1,6.1-6.1c3.4,0,6.1,2.7,6.1,6.1c0,3.4-2.7,6.1-6.1,6.1C-208.8,331.6-211.6,328.8-211.6,325.5
		L-211.6,325.5z"/>
	<path d="M-248.5,343.9c0-3.4,2.7-6.1,6.1-6.1c3.4,0,6.1,2.7,6.1,6.1c0,3.4-2.7,6.1-6.1,6.1C-245.8,350.1-248.5,347.3-248.5,343.9
		L-248.5,343.9z"/>
	<path d="M-230.1,343.9c0-3.4,2.7-6.1,6.1-6.1c3.4,0,6.1,2.7,6.1,6.1c0,3.4-2.7,6.1-6.1,6.1C-227.3,350.1-230.1,347.3-230.1,343.9
		L-230.1,343.9z"/>
	<path d="M-267,362.4c0-3.4,2.7-6.1,6.1-6.1c3.4,0,6.1,2.7,6.1,6.1c0,3.4-2.7,6.1-6.1,6.1C-264.3,368.5-267,365.8-267,362.4
		L-267,362.4z"/>
	<path d="M-248.5,362.4c0-3.4,2.7-6.1,6.1-6.1c3.4,0,6.1,2.7,6.1,6.1c0,3.4-2.7,6.1-6.1,6.1C-245.8,368.5-248.5,365.8-248.5,362.4
		L-248.5,362.4z"/>
	<path d="M-267,380.9c0-3.4,2.7-6.1,6.1-6.1c3.4,0,6.1,2.7,6.1,6.1c0,3.4-2.7,6.1-6.1,6.1C-264.3,387-267,384.3-267,380.9
		L-267,380.9z"/>
</g>
</svg>
