<?xml version="1.0" encoding="utf-8"?>
<!-- Generator: Adobe Illustrator 18.1.1, SVG Export Plug-In . SVG Version: 6.00 Build 0)  -->
<svg version="1.1" id="Layer_1" xmlns="http://www.w3.org/2000/svg" xmlns:xlink="http://www.w3.org/1999/xlink" x="0px" y="0px"
	 viewBox="0 0 216.4 124.8" enable-background="new 0 0 216.4 124.8" xml:space="preserve">
<path fill="none" stroke="#000101" stroke-width="2" stroke-miterlimit="10" d="M108.2,48.6c7.5,0,13.7,6.2,13.7,13.8
	c0,7.6-6.1,13.8-13.7,13.8S94.5,70,94.5,62.4C94.5,54.8,100.7,48.6,108.2,48.6z M108.2,104.2c-22.8,0-41.2-18.7-41.2-41.8
	c0-23.1,18.5-41.8,41.2-41.8s41.2,18.7,41.2,41.8S131,104.2,108.2,104.2z M215.4,62c0-0.1,0-0.2,0-0.3c0,0,0-0.1,0-0.1
	c0-0.1,0-0.1,0-0.2c0-0.1,0-0.2,0-0.2c0,0,0,0,0,0c-0.3-1.7-1-3.3-2.2-4.5c-6.8-8.2-15-15.5-23.2-22.2C172,20.1,151.6,8.1,129.1,3.2
	C116.1,0.4,103,0.3,90,2.7C78.1,4.8,66.6,9.3,55.9,14.9C39.1,23.5,23.8,35.5,10.4,49c-2.5,2.5-4.9,5-7.2,7.7c-3,3.6-3,7.8,0,11.4
	c6.8,8.2,15,15.5,23.2,22.2c17.8,14.4,38.2,26.4,60.7,31.3c13,2.8,26.1,2.9,39.2,0.6c11.9-2.2,23.3-6.6,34.1-12.2
	c16.8-8.7,32.1-20.7,45.5-34.1c2.5-2.5,4.9-5,7.2-7.7c1.2-1.2,2-2.8,2.2-4.5c0,0,0,0,0,0c0-0.1,0-0.2,0-0.2c0-0.1,0-0.1,0-0.2
	c0,0,0-0.1,0-0.1c0-0.1,0-0.2,0-0.3c0-0.1,0-0.3,0-0.4S215.4,62.1,215.4,62z"/>
</svg>
