<?xml version="1.0" encoding="utf-8"?>
<!-- Generator: Adobe Illustrator 18.1.1, SVG Export Plug-In . SVG Version: 6.00 Build 0)  -->
<svg version="1.1" id="Layer_1" xmlns="http://www.w3.org/2000/svg" xmlns:xlink="http://www.w3.org/1999/xlink" x="0px" y="0px"
	 viewBox="0 0 200.7 124.8" enable-background="new 0 0 200.7 124.8" xml:space="preserve">
<path d="M166.4,122.8c15.5-4.6,27.7-16.8,32.3-32.3v32.3H166.4z M124.8,105.4c3,8,9.4,14.3,17.4,17.4h-17.4V105.4z M122.8,122.8H2
	C2.5,56.4,56.4,2.5,122.8,2v73.9v2v15.9v2V122.8z M2,2h99.9C51.2,11.1,11.1,51.2,2,101.9V2z M153.8,95.8v-2V89v-2v-9.1h44.9
	c-0.5,24.5-20.4,44.4-44.9,44.9V95.8z M133.3,77.9c-3.7,1.8-6.7,4.8-8.5,8.5v-8.5H133.3z M151.8,81.4c-0.9-1.4-2.1-2.6-3.5-3.5h3.5
	V81.4z M151.8,93.2v0.6h-0.6C151.4,93.6,151.6,93.4,151.8,93.2 M140.7,89v0.4v4.4h-15.8c0.5-8.5,7.3-15.3,15.8-15.8V89z M145.1,87
	h-2.4v-9c4.8,0.5,8.6,4.3,9,9H145.1z M142.7,89h2.4v0.4h-2.4V89z M145.1,93.6c-1.1-0.3-1.9-1.2-2.2-2.2h2.2V93.6z M147.1,93.7v-4.3
	V89h4.7C151.3,91.4,149.4,93.3,147.1,93.7 M124.8,2c40.5,0.5,73.4,33.4,73.9,73.9h-44.9h-2h-9.1h-2h-15.9L124.8,2L124.8,2z
	 M124.8,95.8h15.8h2h2.4h2h4.8v27C137.2,122.2,125.4,110.4,124.8,95.8 M198.7,59.6c-6.6-28.5-29.1-51-57.6-57.6h57.6L198.7,59.6
	L198.7,59.6z M124.8,0h-2H0v124.8h122.8h2h27h2h46.9V77.9v-2V0H124.8z"/>
</svg>
