<svg xmlns="http://www.w3.org/2000/svg" viewBox="0 0 30.9 30.9" enable-background="new 0 0 30.9 30.9"><path d="M24.1 23c0 .7-.6 1.2-1.3 1.2H8.1c-.7 0-1.3-.6-1.3-1.2V8.1c0-.7.6-1.2 1.3-1.2h14.7c.7 0 1.3.6 1.3 1.2V23zM15.5 0C6.9 0 0 6.9 0 15.5S6.9 31 15.5 31C24 31 31 24.1 31 15.5S24 0 15.5 0M18.4 13.4c-1.4 0-2 .8-2.3 1.3v-1.1h-2.6v7.8h2.6V17c0-.2 0-.5.1-.6.2-.5.6-1 1.3-1 .9 0 1.3.7 1.3 1.8v4.2h2.6v-4.5c0-2.4-1.3-3.5-3-3.5"/><path d="M9.4 13.5H12v7.8H9.4zM10.8 9.8c-.9 0-1.5.6-1.5 1.4 0 .8.6 1.4 1.4 1.4.9 0 1.5-.6 1.5-1.4 0-.9-.6-1.4-1.4-1.4"/></svg>