<svg xmlns="http://www.w3.org/2000/svg" xmlns:xlink="http://www.w3.org/1999/xlink" preserveAspectRatio="xMidYMid" width="37" height="36" viewBox="0 0 37 36">
  <defs>
    <style>
      .cls-1 {
        fill: #000;
        fill-rule: evenodd;
      }
    </style>
  </defs>
  <path d="M28.447,35.998 L28.447,22.900 C28.447,19.548 27.296,17.919 24.928,17.919 C24.025,17.919 23.289,18.164 22.682,18.669 C22.060,19.185 21.588,19.820 21.278,20.556 C21.143,20.907 21.073,21.504 21.073,22.318 L21.073,35.998 L12.516,35.998 L12.517,35.601 C12.585,21.340 12.585,13.352 12.518,11.859 L12.499,11.446 L20.953,11.446 L20.989,14.081 C22.648,11.968 24.886,10.899 27.657,10.899 C30.450,10.899 32.733,11.851 34.441,13.730 C36.141,15.601 37.003,18.375 37.003,21.976 L37.003,35.998 L28.447,35.998 ZM36.227,21.976 C36.227,18.580 35.434,15.986 33.871,14.266 C32.316,12.555 30.225,11.688 27.657,11.688 C24.719,11.688 22.524,12.937 20.947,15.508 L20.248,16.647 L20.187,12.235 L13.306,12.235 C13.359,14.460 13.356,22.175 13.295,35.209 L20.297,35.209 L20.297,22.318 C20.297,21.392 20.383,20.719 20.559,20.257 C20.924,19.391 21.471,18.655 22.190,18.058 C22.932,17.442 23.853,17.130 24.928,17.130 C27.778,17.130 29.223,19.071 29.223,22.900 L29.223,35.209 L36.227,35.209 L36.227,21.976 ZM4.722,9.017 C3.309,9.017 2.170,8.582 1.302,7.724 C0.430,6.863 -0.012,5.783 -0.012,4.514 C-0.012,3.218 0.444,2.130 1.341,1.281 C2.231,0.438 3.391,0.010 4.788,0.010 C6.189,0.010 7.333,0.440 8.191,1.286 C9.049,2.134 9.496,3.217 9.521,4.506 C9.521,5.785 9.073,6.865 8.189,7.726 C7.310,8.583 6.143,9.017 4.722,9.017 ZM7.650,1.852 C6.933,1.144 5.996,0.799 4.788,0.799 C3.577,0.799 2.622,1.146 1.870,1.858 C1.126,2.562 0.765,3.431 0.765,4.514 C0.765,5.577 1.117,6.442 1.843,7.158 C2.571,7.878 3.501,8.228 4.687,8.228 C5.954,8.228 6.913,7.877 7.652,7.157 C8.387,6.440 8.745,5.576 8.745,4.514 C8.725,3.432 8.366,2.559 7.650,1.852 ZM9.016,35.998 L0.460,35.998 L0.460,11.446 L9.016,11.446 L9.016,35.998 ZM8.240,12.235 L1.236,12.235 L1.236,35.209 L8.240,35.209 L8.240,12.235 Z" class="cls-1"/>
</svg>
