<?xml version="1.0" encoding="utf-8"?>
<!-- Generator: Adobe Illustrator 18.1.1, SVG Export Plug-In . SVG Version: 6.00 Build 0)  -->
<svg version="1.1" id="Layer_1" xmlns="http://www.w3.org/2000/svg" xmlns:xlink="http://www.w3.org/1999/xlink" x="0px" y="0px"
	 viewBox="0 0 129.8 124.8" enable-background="new 0 0 129.8 124.8" xml:space="preserve">
<path d="M1.6,12.9l19.8,11.4V1.5L1.6,12.9z M22,25.9c-0.1,0-0.2,0-0.3-0.1L0.3,13.4C0.1,13.3,0,13.1,0,12.9s0.1-0.4,0.3-0.5
	L21.7,0.1c0.2-0.1,0.4-0.1,0.5,0c0.2,0.1,0.3,0.3,0.3,0.5v24.8c0,0.2-0.1,0.4-0.3,0.5C22.2,25.9,22.1,25.9,22,25.9"/>
<path d="M22.5,1.5v22.9l19.8-11.4L22.5,1.5z M22,25.9c-0.1,0-0.2,0-0.3-0.1c-0.2-0.1-0.3-0.3-0.3-0.5V0.5c0-0.2,0.1-0.4,0.3-0.5
	c0.2-0.1,0.4-0.1,0.5,0l21.5,12.4c0.2,0.1,0.3,0.3,0.3,0.5s-0.1,0.4-0.3,0.5L22.3,25.8C22.2,25.9,22.1,25.9,22,25.9"/>
<path d="M1.1,13.9v22.9l19.8-11.4L1.1,13.9z M0.6,38.3c-0.1,0-0.2,0-0.3-0.1l0,0C0.1,38.1,0,37.9,0,37.7V12.9c0-0.2,0.1-0.4,0.3-0.5
	c0.2-0.1,0.4-0.1,0.5,0l21.5,12.4c0.2,0.1,0.3,0.3,0.3,0.5c0,0.2-0.1,0.4-0.3,0.5L0.8,38.2C0.7,38.2,0.7,38.3,0.6,38.3"/>
<path d="M23.1,25.3l19.8,11.4V13.9L23.1,25.3z M43.4,38.3c-0.1,0-0.2,0-0.3-0.1L21.7,25.8c-0.2-0.1-0.3-0.3-0.3-0.5
	c0-0.2,0.1-0.4,0.3-0.5l21.5-12.4c0.2-0.1,0.4-0.1,0.5,0c0.2,0.1,0.3,0.3,0.3,0.5v24.8c0,0.2-0.1,0.4-0.3,0.5
	C43.6,38.2,43.5,38.3,43.4,38.3"/>
<path d="M22.5,26.3v22.9l19.8-11.4L22.5,26.3z M22,50.6c-0.1,0-0.2,0-0.3-0.1c-0.2-0.1-0.3-0.3-0.3-0.5V25.3c0-0.2,0.1-0.4,0.3-0.5
	c0.2-0.1,0.4-0.1,0.5,0l21.4,12.4c0.2,0.1,0.3,0.3,0.3,0.5c0,0.2-0.1,0.4-0.3,0.5L22.3,50.6C22.2,50.6,22.1,50.6,22,50.6"/>
<path d="M1.6,37.7l19.8,11.4V26.3L1.6,37.7z M22,50.6c-0.1,0-0.2,0-0.3-0.1L0.3,38.2C0.1,38.1,0,37.9,0,37.7c0-0.2,0.1-0.4,0.3-0.5
	l21.4-12.4c0.2-0.1,0.4-0.1,0.5,0c0.2,0.1,0.3,0.3,0.3,0.5v24.8c0,0.2-0.1,0.4-0.3,0.5C22.2,50.6,22.1,50.6,22,50.6"/>
<path d="M44.5,12.9l19.8,11.4V1.5L44.5,12.9z M64.9,25.9c-0.1,0-0.2,0-0.3-0.1L43.2,13.4c-0.2-0.1-0.3-0.3-0.3-0.5s0.1-0.4,0.3-0.5
	L64.6,0.1C64.8,0,65,0,65.2,0.1c0.2,0.1,0.3,0.3,0.3,0.5v24.8c0,0.2-0.1,0.4-0.3,0.5C65.1,25.9,65,25.9,64.9,25.9"/>
<path d="M65.4,1.5v22.9l19.8-11.4L65.4,1.5z M64.9,25.9c-0.1,0-0.2,0-0.3-0.1c-0.2-0.1-0.3-0.3-0.3-0.5V0.5c0-0.2,0.1-0.4,0.3-0.5
	C64.8,0,65,0,65.2,0.1l21.5,12.4c0.2,0.1,0.3,0.3,0.3,0.5s-0.1,0.4-0.3,0.5L65.2,25.8C65.1,25.9,65,25.9,64.9,25.9"/>
<path d="M44,13.9v22.9l19.8-11.4L44,13.9z M43.5,38.3c-0.1,0-0.2,0-0.3-0.1l0,0c-0.2-0.1-0.3-0.3-0.3-0.5V12.9
	c0-0.2,0.1-0.4,0.3-0.5c0.2-0.1,0.4-0.1,0.5,0l21.5,12.4c0.2,0.1,0.3,0.3,0.3,0.5c0,0.2-0.1,0.4-0.3,0.5L43.7,38.2
	C43.6,38.2,43.6,38.3,43.5,38.3"/>
<path d="M66,25.3l19.8,11.4V13.9L66,25.3z M86.3,38.3c-0.1,0-0.2,0-0.3-0.1L64.6,25.8c-0.2-0.1-0.3-0.3-0.3-0.5
	c0-0.2,0.1-0.4,0.3-0.5l21.5-12.4c0.2-0.1,0.4-0.1,0.5,0c0.2,0.1,0.3,0.3,0.3,0.5v24.8c0,0.2-0.1,0.4-0.3,0.5
	C86.5,38.2,86.4,38.3,86.3,38.3"/>
<path d="M65.4,26.3v22.9l19.8-11.4L65.4,26.3z M64.9,50.6c-0.1,0-0.2,0-0.3-0.1c-0.2-0.1-0.3-0.3-0.3-0.5V25.3
	c0-0.2,0.1-0.4,0.3-0.5c0.2-0.1,0.4-0.1,0.5,0l21.4,12.4c0.2,0.1,0.3,0.3,0.3,0.5c0,0.2-0.1,0.4-0.3,0.5L65.2,50.6
	C65.1,50.6,65,50.6,64.9,50.6"/>
<path d="M44.6,37.7l19.8,11.4V26.3L44.6,37.7z M64.9,50.6c-0.1,0-0.2,0-0.3-0.1L43.2,38.2c-0.2-0.1-0.3-0.3-0.3-0.5
	c0-0.2,0.1-0.4,0.3-0.5l21.4-12.4c0.2-0.1,0.4-0.1,0.5,0c0.2,0.1,0.3,0.3,0.3,0.5v24.8c0,0.2-0.1,0.4-0.3,0.5
	C65.1,50.6,65,50.6,64.9,50.6"/>
<path d="M23,50.1l19.8,11.4V38.6L23,50.1z M43.4,63c-0.1,0-0.2,0-0.3-0.1L21.6,50.6c-0.2-0.1-0.3-0.3-0.3-0.5c0-0.2,0.1-0.4,0.3-0.5
	l21.5-12.4c0.2-0.1,0.4-0.1,0.5,0c0.2,0.1,0.3,0.3,0.3,0.5v24.8c0,0.2-0.1,0.4-0.3,0.5C43.6,63,43.5,63,43.4,63"/>
<path d="M43.9,38.6v22.9l19.8-11.4L43.9,38.6z M43.4,63c-0.1,0-0.2,0-0.3-0.1c-0.2-0.1-0.3-0.3-0.3-0.5V37.7c0-0.2,0.1-0.4,0.3-0.5
	c0.2-0.1,0.4-0.1,0.5,0l21.5,12.4c0.2,0.1,0.3,0.3,0.3,0.5c0,0.2-0.1,0.4-0.3,0.5L43.6,62.9C43.6,63,43.5,63,43.4,63"/>
<path d="M22.5,51v22.9l19.8-11.4L22.5,51z M21.9,75.4c-0.1,0-0.2,0-0.3-0.1l0,0c-0.2-0.1-0.3-0.3-0.3-0.5V50.1
	c0-0.2,0.1-0.4,0.3-0.5c0.2-0.1,0.4-0.1,0.5,0L43.6,62c0.2,0.1,0.3,0.3,0.3,0.5c0,0.2-0.1,0.4-0.3,0.5L22.2,75.3
	C22.1,75.4,22,75.4,21.9,75.4"/>
<path d="M44.5,62.5l19.8,11.4V51L44.5,62.5z M64.8,75.4c-0.1,0-0.2,0-0.3-0.1L43.1,62.9c-0.2-0.1-0.3-0.3-0.3-0.5
	c0-0.2,0.1-0.4,0.3-0.5l21.5-12.4c0.2-0.1,0.4-0.1,0.5,0s0.3,0.3,0.3,0.5v24.8c0,0.2-0.1,0.4-0.3,0.5C65,75.4,64.9,75.4,64.8,75.4"
	/>
<path d="M43.9,63.4v22.9l19.8-11.4L43.9,63.4z M43.4,87.8c-0.1,0-0.2,0-0.3-0.1c-0.2-0.1-0.3-0.3-0.3-0.5V62.5
	c0-0.2,0.1-0.4,0.3-0.5c0.2-0.1,0.4-0.1,0.5,0l21.4,12.4c0.2,0.1,0.3,0.3,0.3,0.5c0,0.2-0.1,0.4-0.3,0.5L43.6,87.7
	C43.6,87.8,43.5,87.8,43.4,87.8"/>
<path d="M23,74.8l19.8,11.4V63.4L23,74.8z M43.4,87.8c-0.1,0-0.2,0-0.3-0.1L21.7,75.3c-0.2-0.1-0.3-0.3-0.3-0.5
	c0-0.2,0.1-0.4,0.3-0.5L43.1,62c0.2-0.1,0.4-0.1,0.5,0c0.2,0.1,0.3,0.3,0.3,0.5v24.8c0,0.2-0.1,0.4-0.3,0.5
	C43.6,87.8,43.5,87.8,43.4,87.8"/>
<path d="M65.9,50.1l19.8,11.4V38.6L65.9,50.1z M86.3,63c-0.1,0-0.2,0-0.3-0.1L64.5,50.6c-0.2-0.1-0.3-0.3-0.3-0.5
	c0-0.2,0.1-0.4,0.3-0.5L86,37.2c0.2-0.1,0.4-0.1,0.5,0c0.2,0.1,0.3,0.3,0.3,0.5v24.8c0,0.2-0.1,0.4-0.3,0.5C86.5,63,86.4,63,86.3,63
	"/>
<path d="M86.8,38.6v22.9l19.8-11.4L86.8,38.6z M86.3,63c-0.1,0-0.2,0-0.3-0.1c-0.2-0.1-0.3-0.3-0.3-0.5V37.7c0-0.2,0.1-0.4,0.3-0.5
	c0.2-0.1,0.4-0.1,0.5,0L108,49.6c0.2,0.1,0.3,0.3,0.3,0.5c0,0.2-0.1,0.4-0.3,0.5L86.5,62.9C86.5,63,86.4,63,86.3,63"/>
<path d="M65.4,51v22.9l19.8-11.4L65.4,51z M64.8,75.4c-0.1,0-0.2,0-0.3-0.1l0,0c-0.2-0.1-0.3-0.3-0.3-0.5V50.1
	c0-0.2,0.1-0.4,0.3-0.5c0.2-0.1,0.4-0.1,0.5,0L86.5,62c0.2,0.1,0.3,0.3,0.3,0.5c0,0.2-0.1,0.4-0.3,0.5L65.1,75.3
	C65,75.4,64.9,75.4,64.8,75.4"/>
<path d="M87.4,62.5l19.8,11.4V51L87.4,62.5z M107.7,75.4c-0.1,0-0.2,0-0.3-0.1L86,62.9c-0.2-0.1-0.3-0.3-0.3-0.5
	c0-0.2,0.1-0.4,0.3-0.5l21.5-12.4c0.2-0.1,0.4-0.1,0.5,0c0.2,0.1,0.3,0.3,0.3,0.5l0,24.8c0,0.2-0.1,0.4-0.3,0.5
	C107.9,75.4,107.8,75.4,107.7,75.4"/>
<path d="M86.8,63.4v22.9l19.8-11.4L86.8,63.4z M86.3,87.8c-0.1,0-0.2,0-0.3-0.1c-0.2-0.1-0.3-0.3-0.3-0.5V62.5
	c0-0.2,0.1-0.4,0.3-0.5c0.2-0.1,0.4-0.1,0.5,0L108,74.4c0.2,0.1,0.3,0.3,0.3,0.5c0,0.2-0.1,0.4-0.3,0.5L86.5,87.7
	C86.5,87.8,86.4,87.8,86.3,87.8"/>
<path d="M65.9,74.8l19.8,11.4V63.4L65.9,74.8z M86.3,87.8c-0.1,0-0.2,0-0.3-0.1L64.6,75.3c-0.2-0.1-0.3-0.3-0.3-0.5
	c0-0.2,0.1-0.4,0.3-0.5L86,62c0.2-0.1,0.4-0.1,0.5,0c0.2,0.1,0.3,0.3,0.3,0.5v24.8c0,0.2-0.1,0.4-0.3,0.5
	C86.5,87.8,86.4,87.8,86.3,87.8"/>
<path d="M87.4,12.9l19.8,11.4V1.5L87.4,12.9z M107.8,25.9c-0.1,0-0.2,0-0.3-0.1L86.1,13.4c-0.2-0.1-0.3-0.3-0.3-0.5s0.1-0.4,0.3-0.5
	l21.5-12.4c0.2-0.1,0.4-0.1,0.5,0c0.2,0.1,0.3,0.3,0.3,0.5v24.8c0,0.2-0.1,0.4-0.3,0.5C108,25.9,107.9,25.9,107.8,25.9"/>
<path d="M108.4,1.5v22.9l19.8-11.4L108.4,1.5z M107.8,25.9c-0.1,0-0.2,0-0.3-0.1c-0.2-0.1-0.3-0.3-0.3-0.5V0.5
	c0-0.2,0.1-0.4,0.3-0.5c0.2-0.1,0.4-0.1,0.5,0l21.5,12.4c0.2,0.1,0.3,0.3,0.3,0.5s-0.1,0.4-0.3,0.5l-21.5,12.4
	C108,25.9,107.9,25.9,107.8,25.9"/>
<path d="M86.9,13.9v22.9l19.8-11.4L86.9,13.9z M86.4,38.3c-0.1,0-0.2,0-0.3-0.1l0,0c-0.2-0.1-0.3-0.3-0.3-0.5V12.9
	c0-0.2,0.1-0.4,0.3-0.5c0.2-0.1,0.4-0.1,0.5,0l21.5,12.4c0.2,0.1,0.3,0.3,0.3,0.5c0,0.2-0.1,0.4-0.3,0.5L86.6,38.2
	C86.6,38.2,86.5,38.3,86.4,38.3"/>
<path d="M108.9,25.3l19.8,11.4V13.9L108.9,25.3z M129.2,38.3c-0.1,0-0.2,0-0.3-0.1l-21.4-12.4c-0.2-0.1-0.3-0.3-0.3-0.5
	c0-0.2,0.1-0.4,0.3-0.5L129,12.5c0.2-0.1,0.4-0.1,0.5,0c0.2,0.1,0.3,0.3,0.3,0.5v24.8c0,0.2-0.1,0.4-0.3,0.5
	C129.4,38.2,129.3,38.3,129.2,38.3"/>
<path d="M108.4,26.3v22.9l19.8-11.4L108.4,26.3z M107.8,50.6c-0.1,0-0.2,0-0.3-0.1c-0.2-0.1-0.3-0.3-0.3-0.5V25.3
	c0-0.2,0.1-0.4,0.3-0.5c0.2-0.1,0.4-0.1,0.5,0l21.4,12.4c0.2,0.1,0.3,0.3,0.3,0.5c0,0.2-0.1,0.4-0.3,0.5l-21.4,12.4
	C108,50.6,107.9,50.6,107.8,50.6"/>
<path d="M87.5,37.7l19.8,11.4V26.3L87.5,37.7z M107.8,50.6c-0.1,0-0.2,0-0.3-0.1L86.1,38.2c-0.2-0.1-0.3-0.3-0.3-0.5
	c0-0.2,0.1-0.4,0.3-0.5l21.4-12.4c0.2-0.1,0.4-0.1,0.5,0c0.2,0.1,0.3,0.3,0.3,0.5v24.8c0,0.2-0.1,0.4-0.3,0.5
	C108,50.6,107.9,50.6,107.8,50.6"/>
<path d="M1.6,87.1l19.8,11.4V75.7L1.6,87.1z M22,100c-0.1,0-0.2,0-0.3-0.1L0.3,87.6C0.1,87.5,0,87.3,0,87.1c0-0.2,0.1-0.4,0.3-0.5
	l21.5-12.4c0.2-0.1,0.4-0.1,0.5,0c0.2,0.1,0.3,0.3,0.3,0.5v24.8c0,0.2-0.1,0.4-0.3,0.5C22.2,100,22.1,100,22,100"/>
<path d="M22.5,75.7v22.9l19.8-11.4L22.5,75.7z M22,100c-0.1,0-0.2,0-0.3-0.1c-0.2-0.1-0.3-0.3-0.3-0.5V74.7c0-0.2,0.1-0.4,0.3-0.5
	c0.2-0.1,0.4-0.1,0.5,0l21.5,12.4c0.2,0.1,0.3,0.3,0.3,0.5c0,0.2-0.1,0.4-0.3,0.5L22.3,100C22.2,100,22.1,100,22,100"/>
<path d="M1.1,88.1v22.9l19.8-11.4L1.1,88.1z M0.6,112.4c-0.1,0-0.2,0-0.3-0.1l0,0c-0.2-0.1-0.3-0.3-0.3-0.5V87.1
	c0-0.2,0.1-0.4,0.3-0.5c0.2-0.1,0.4-0.1,0.5,0L22.3,99c0.2,0.1,0.3,0.3,0.3,0.5c0,0.2-0.1,0.4-0.3,0.5L0.8,112.3
	C0.7,112.4,0.7,112.4,0.6,112.4"/>
<path d="M23.1,99.5l19.8,11.4V88.1L23.1,99.5z M43.4,112.4c-0.1,0-0.2,0-0.3-0.1L21.7,100c-0.2-0.1-0.3-0.3-0.3-0.5
	c0-0.2,0.1-0.4,0.3-0.5l21.5-12.4c0.2-0.1,0.4-0.1,0.5,0c0.2,0.1,0.3,0.3,0.3,0.5v24.8c0,0.2-0.1,0.4-0.3,0.5
	C43.6,112.4,43.5,112.4,43.4,112.4"/>
<path d="M22.5,100.4v22.9l19.8-11.4L22.5,100.4z M22,124.8c-0.1,0-0.2,0-0.3-0.1c-0.2-0.1-0.3-0.3-0.3-0.5V99.5
	c0-0.2,0.1-0.4,0.3-0.5c0.2-0.1,0.4-0.1,0.5,0l21.4,12.4c0.2,0.1,0.3,0.3,0.3,0.5c0,0.2-0.1,0.4-0.3,0.5l-21.4,12.4
	C22.2,124.8,22.1,124.8,22,124.8"/>
<path d="M1.6,111.9l19.8,11.4v-22.9L1.6,111.9z M22,124.8c-0.1,0-0.2,0-0.3-0.1L0.3,112.3c-0.2-0.1-0.3-0.3-0.3-0.5
	c0-0.2,0.1-0.4,0.3-0.5L21.7,99c0.2-0.1,0.4-0.1,0.5,0c0.2,0.1,0.3,0.3,0.3,0.5v24.8c0,0.2-0.1,0.4-0.3,0.5
	C22.2,124.8,22.1,124.8,22,124.8"/>
<path d="M44.5,87.1l19.8,11.4V75.7L44.5,87.1z M64.9,100c-0.1,0-0.2,0-0.3-0.1L43.2,87.6c-0.2-0.1-0.3-0.3-0.3-0.5
	c0-0.2,0.1-0.4,0.3-0.5l21.5-12.4c0.2-0.1,0.4-0.1,0.5,0c0.2,0.1,0.3,0.3,0.3,0.5v24.8c0,0.2-0.1,0.4-0.3,0.5
	C65.1,100,65,100,64.9,100"/>
<path d="M65.4,75.7v22.9l19.8-11.4L65.4,75.7z M64.9,100c-0.1,0-0.2,0-0.3-0.1c-0.2-0.1-0.3-0.3-0.3-0.5V74.7c0-0.2,0.1-0.4,0.3-0.5
	c0.2-0.1,0.4-0.1,0.5,0l21.5,12.4c0.2,0.1,0.3,0.3,0.3,0.5c0,0.2-0.1,0.4-0.3,0.5L65.2,100C65.1,100,65,100,64.9,100"/>
<path d="M44,88.1v22.9l19.8-11.4L44,88.1z M43.5,112.4c-0.1,0-0.2,0-0.3-0.1l0,0c-0.2-0.1-0.3-0.3-0.3-0.5V87.1
	c0-0.2,0.1-0.4,0.3-0.5c0.2-0.1,0.4-0.1,0.5,0L65.2,99c0.2,0.1,0.3,0.3,0.3,0.5c0,0.2-0.1,0.4-0.3,0.5l-21.4,12.4
	C43.6,112.4,43.6,112.4,43.5,112.4"/>
<path d="M66,99.5l19.8,11.4V88.1L66,99.5z M86.3,112.4c-0.1,0-0.2,0-0.3-0.1L64.6,100c-0.2-0.1-0.3-0.3-0.3-0.5
	c0-0.2,0.1-0.4,0.3-0.5l21.5-12.4c0.2-0.1,0.4-0.1,0.5,0c0.2,0.1,0.3,0.3,0.3,0.5v24.8c0,0.2-0.1,0.4-0.3,0.5
	C86.5,112.4,86.4,112.4,86.3,112.4"/>
<path d="M65.4,100.4v22.9l19.8-11.4L65.4,100.4z M64.9,124.8c-0.1,0-0.2,0-0.3-0.1c-0.2-0.1-0.3-0.3-0.3-0.5V99.5
	c0-0.2,0.1-0.4,0.3-0.5c0.2-0.1,0.4-0.1,0.5,0l21.4,12.4c0.2,0.1,0.3,0.3,0.3,0.5c0,0.2-0.1,0.4-0.3,0.5l-21.4,12.4
	C65.1,124.8,65,124.8,64.9,124.8"/>
<path d="M44.6,111.9l19.8,11.4v-22.9L44.6,111.9z M64.9,124.8c-0.1,0-0.2,0-0.3-0.1l-21.4-12.4c-0.2-0.1-0.3-0.3-0.3-0.5
	c0-0.2,0.1-0.4,0.3-0.5L64.6,99c0.2-0.1,0.4-0.1,0.5,0c0.2,0.1,0.3,0.3,0.3,0.5v24.8c0,0.2-0.1,0.4-0.3,0.5
	C65.1,124.8,65,124.8,64.9,124.8"/>
<path d="M87.4,87.1l19.8,11.4V75.7L87.4,87.1z M107.8,100c-0.1,0-0.2,0-0.3-0.1L86.1,87.6c-0.2-0.1-0.3-0.3-0.3-0.5
	c0-0.2,0.1-0.4,0.3-0.5l21.5-12.4c0.2-0.1,0.4-0.1,0.5,0c0.2,0.1,0.3,0.3,0.3,0.5v24.8c0,0.2-0.1,0.4-0.3,0.5
	C108,100,107.9,100,107.8,100"/>
<path d="M108.4,75.7v22.9l19.8-11.4L108.4,75.7z M107.8,100c-0.1,0-0.2,0-0.3-0.1c-0.2-0.1-0.3-0.3-0.3-0.5V74.7
	c0-0.2,0.1-0.4,0.3-0.5c0.2-0.1,0.4-0.1,0.5,0l21.5,12.4c0.2,0.1,0.3,0.3,0.3,0.5c0,0.2-0.1,0.4-0.3,0.5L108.1,100
	C108,100,107.9,100,107.8,100"/>
<path d="M86.9,88.1v22.9l19.8-11.4L86.9,88.1z M86.4,112.4c-0.1,0-0.2,0-0.3-0.1l0,0c-0.2-0.1-0.3-0.3-0.3-0.5V87.1
	c0-0.2,0.1-0.4,0.3-0.5c0.2-0.1,0.4-0.1,0.5,0L108.1,99c0.2,0.1,0.3,0.3,0.3,0.5c0,0.2-0.1,0.4-0.3,0.5l-21.4,12.4
	C86.6,112.4,86.5,112.4,86.4,112.4"/>
<path d="M108.9,99.5l19.8,11.4V88.1L108.9,99.5z M129.2,112.4c-0.1,0-0.2,0-0.3-0.1L107.5,100c-0.2-0.1-0.3-0.3-0.3-0.5
	c0-0.2,0.1-0.4,0.3-0.5L129,86.6c0.2-0.1,0.4-0.1,0.5,0c0.2,0.1,0.3,0.3,0.3,0.5v24.8c0,0.2-0.1,0.4-0.3,0.5
	C129.4,112.4,129.3,112.4,129.2,112.4"/>
<path d="M108.4,100.4v22.9l19.8-11.4L108.4,100.4z M107.8,124.8c-0.1,0-0.2,0-0.3-0.1c-0.2-0.1-0.3-0.3-0.3-0.5V99.5
	c0-0.2,0.1-0.4,0.3-0.5c0.2-0.1,0.4-0.1,0.5,0l21.4,12.4c0.2,0.1,0.3,0.3,0.3,0.5c0,0.2-0.1,0.4-0.3,0.5l-21.4,12.4
	C108,124.8,107.9,124.8,107.8,124.8"/>
<path d="M87.5,111.9l19.8,11.4v-22.9L87.5,111.9z M107.8,124.8c-0.1,0-0.2,0-0.3-0.1l-21.4-12.4c-0.2-0.1-0.3-0.3-0.3-0.5
	c0-0.2,0.1-0.4,0.3-0.5L107.5,99c0.2-0.1,0.4-0.1,0.5,0c0.2,0.1,0.3,0.3,0.3,0.5v24.8c0,0.2-0.1,0.4-0.3,0.5
	C108,124.8,107.9,124.8,107.8,124.8"/>
<path d="M64.8,46.8c1.8,0,3.3,1.5,3.3,3.3c0,1.8-1.5,3.3-3.3,3.3c-1.8,0-3.3-1.5-3.3-3.3C61.6,48.3,63,46.8,64.8,46.8"/>
<path d="M64.8,22.1c1.8,0,3.3,1.5,3.3,3.3c0,1.8-1.5,3.3-3.3,3.3c-1.8,0-3.3-1.5-3.3-3.3C61.6,23.5,63,22.1,64.8,22.1"/>
<path d="M64.8,71.4c1.8,0,3.3,1.5,3.3,3.3c0,1.8-1.5,3.3-3.3,3.3c-1.8,0-3.3-1.5-3.3-3.3C61.6,72.9,63,71.4,64.8,71.4"/>
<path d="M64.8,96.1c1.8,0,3.3,1.5,3.3,3.3c0,1.8-1.5,3.3-3.3,3.3c-1.8,0-3.3-1.5-3.3-3.3C61.6,97.6,63,96.1,64.8,96.1"/>
<path d="M21.6,22.1c1.8,0,3.3,1.5,3.3,3.3c0,1.8-1.5,3.3-3.3,3.3c-1.8,0-3.3-1.5-3.3-3.3C18.3,23.5,19.7,22.1,21.6,22.1"/>
<path d="M21.6,96.1c1.8,0,3.3,1.5,3.3,3.3c0,1.8-1.5,3.3-3.3,3.3c-1.8,0-3.3-1.5-3.3-3.3C18.3,97.6,19.7,96.1,21.6,96.1"/>
<path d="M43.5,59.2c1.8,0,3.3,1.5,3.3,3.3c0,1.8-1.5,3.3-3.3,3.3c-1.8,0-3.3-1.5-3.3-3.3C40.2,60.7,41.7,59.2,43.5,59.2"/>
<path d="M86.4,59.2c1.8,0,3.3,1.5,3.3,3.3c0,1.8-1.5,3.3-3.3,3.3c-1.8,0-3.3-1.5-3.3-3.3C83.1,60.7,84.6,59.2,86.4,59.2"/>
<path d="M43.5,34.4c1.8,0,3.3,1.5,3.3,3.3c0,1.8-1.5,3.3-3.3,3.3c-1.8,0-3.3-1.5-3.3-3.3C40.2,35.9,41.7,34.4,43.5,34.4"/>
<path d="M86.4,34.4c1.8,0,3.3,1.5,3.3,3.3c0,1.8-1.5,3.3-3.3,3.3c-1.8,0-3.3-1.5-3.3-3.3C83.1,35.9,84.6,34.4,86.4,34.4"/>
<path d="M43.5,83.8c1.8,0,3.3,1.5,3.3,3.3c0,1.8-1.5,3.3-3.3,3.3c-1.8,0-3.3-1.5-3.3-3.3C40.2,85.3,41.7,83.8,43.5,83.8"/>
<path d="M86.4,83.8c1.8,0,3.3,1.5,3.3,3.3c0,1.8-1.5,3.3-3.3,3.3c-1.8,0-3.3-1.5-3.3-3.3C83.1,85.3,84.6,83.8,86.4,83.8"/>
<path d="M107.8,22.1c1.8,0,3.3,1.5,3.3,3.3c0,1.8-1.5,3.3-3.3,3.3c-1.8,0-3.3-1.5-3.3-3.3C104.5,23.5,106,22.1,107.8,22.1"/>
<path d="M107.8,96.1c1.8,0,3.3,1.5,3.3,3.3c0,1.8-1.5,3.3-3.3,3.3c-1.8,0-3.3-1.5-3.3-3.3C104.5,97.6,106,96.1,107.8,96.1"/>
</svg>
