<?xml version="1.0" encoding="utf-8"?>
<!-- Generator: Adobe Illustrator 18.1.1, SVG Export Plug-In . SVG Version: 6.00 Build 0)  -->
<svg version="1.1" id="Layer_1" xmlns="http://www.w3.org/2000/svg" xmlns:xlink="http://www.w3.org/1999/xlink" x="0px" y="0px"
	 viewBox="224 -0.5 832.1 800.5" enable-background="new 224 -0.5 832.1 800.5" xml:space="preserve">
<path d="M234.2,82.7l126.9,73.1V9.6L234.2,82.7z M365,166c-0.6,0-1.3,0-1.9-0.6L225.9,85.9c-1.3-0.6-1.9-1.9-1.9-3.2
	c0-1.3,0.6-2.6,1.9-3.2L363.1,0.6c1.3-0.6,2.6-0.6,3.2,0c1.3,0.6,1.9,1.9,1.9,3.2v159c0,1.3-0.6,2.6-1.9,3.2
	C366.3,166,365.6,166,365,166"/>
<path d="M368.2,9.6v146.8l126.9-73.1L368.2,9.6z M365,166c-0.6,0-1.3,0-1.9-0.6c-1.3-0.6-1.9-1.9-1.9-3.2V3.2c0-1.3,0.6-2.6,1.9-3.2
	s2.6-0.6,3.2,0l137.8,79.5c1.3,0.6,1.9,1.9,1.9,3.2s-0.6,2.6-1.9,3.2l-137.2,79.5C366.3,166,365.6,166,365,166"/>
<path d="M231,89.1v146.8l126.9-73.1L231,89.1z M227.8,245.5c-0.6,0-1.3,0-1.9-0.6l0,0c-1.3-0.6-1.9-1.9-1.9-3.2v-159
	c0-1.3,0.6-2.6,1.9-3.2c1.3-0.6,2.6-0.6,3.2,0L366.9,159c1.3,0.6,1.9,1.9,1.9,3.2c0,1.3-0.6,2.6-1.9,3.2l-137.8,79.5
	C228.5,244.9,228.5,245.5,227.8,245.5"/>
<path d="M372.1,162.2L499,235.3V89.1L372.1,162.2z M502.2,245.5c-0.6,0-1.3,0-1.9-0.6l-137.2-79.5c-1.3-0.6-1.9-1.9-1.9-3.2
	c0-1.3,0.6-2.6,1.9-3.2l137.8-79.5c1.3-0.6,2.6-0.6,3.2,0c1.3,0.6,1.9,1.9,1.9,3.2v159c0,1.3-0.6,2.6-1.9,3.2
	C503.5,244.9,502.8,245.5,502.2,245.5"/>
<path d="M368.2,168.6v146.8l126.9-73.1L368.2,168.6z M365,324.4c-0.6,0-1.3,0-1.9-0.6c-1.3-0.6-1.9-1.9-1.9-3.2V162.2
	c0-1.3,0.6-2.6,1.9-3.2c1.3-0.6,2.6-0.6,3.2,0l137.2,79.5c1.3,0.6,1.9,1.9,1.9,3.2s-0.6,2.6-1.9,3.2l-136.5,79.5
	C366.3,324.4,365.6,324.4,365,324.4"/>
<path d="M234.2,241.7l126.9,73.1V168.6L234.2,241.7z M365,324.4c-0.6,0-1.3,0-1.9-0.6l-137.2-78.8c-1.3-0.6-1.9-1.9-1.9-3.2
	s0.6-2.6,1.9-3.2L363.1,159c1.3-0.6,2.6-0.6,3.2,0c1.3,0.6,1.9,1.9,1.9,3.2v159c0,1.3-0.6,2.6-1.9,3.2
	C366.3,324.4,365.6,324.4,365,324.4"/>
<path d="M509.2,82.7l126.9,73.1V9.6L509.2,82.7z M640,166c-0.6,0-1.3,0-1.9-0.6L500.9,85.9c-1.3-0.6-1.9-1.9-1.9-3.2
	s0.6-2.6,1.9-3.2L638.1,0.6c1.3-0.6,2.6-0.6,3.8,0c1.3,0.6,1.9,1.9,1.9,3.2v159c0,1.3-0.6,2.6-1.9,3.2C641.3,166,640.6,166,640,166"
	/>
<path d="M643.2,9.6v146.8l126.9-73.1L643.2,9.6z M640,166c-0.6,0-1.3,0-1.9-0.6c-1.3-0.6-1.9-1.9-1.9-3.2V3.2c0-1.3,0.6-2.6,1.9-3.2
	c1.3,0,2.6,0,3.8,0.6l137.8,79.5c1.3,0.6,1.9,1.9,1.9,3.2c0,1.3-0.6,2.6-1.9,3.2l-137.8,78.8C641.3,166,640.6,166,640,166"/>
<path d="M506,89.1v146.8l126.9-73.1L506,89.1z M502.8,245.5c-0.6,0-1.3,0-1.9-0.6l0,0c-1.3-0.6-1.9-1.9-1.9-3.2v-159
	c0-1.3,0.6-2.6,1.9-3.2c1.3-0.6,2.6-0.6,3.2,0L641.9,159c1.3,0.6,1.9,1.9,1.9,3.2c0,1.3-0.6,2.6-1.9,3.2l-137.8,79.5
	C503.5,244.9,503.5,245.5,502.8,245.5"/>
<path d="M647.1,162.2L774,235.3V89.1L647.1,162.2z M777.2,245.5c-0.6,0-1.3,0-1.9-0.6l-137.2-79.5c-1.3-0.6-1.9-1.9-1.9-3.2
	c0-1.3,0.6-2.6,1.9-3.2l137.8-79.5c1.3-0.6,2.6-0.6,3.2,0c1.3,0.6,1.9,1.9,1.9,3.2v159c0,1.3-0.6,2.6-1.9,3.2
	C778.5,244.9,777.8,245.5,777.2,245.5"/>
<path d="M643.2,168.6v146.8l126.9-73.1L643.2,168.6z M640,324.4c-0.6,0-1.3,0-1.9-0.6c-1.3-0.6-1.9-1.9-1.9-3.2V162.2
	c0-1.3,0.6-2.6,1.9-3.2c1.3-0.6,2.6-0.6,3.2,0l137.2,79.5c1.3,0.6,1.9,1.9,1.9,3.2s-0.6,2.6-1.9,3.2l-136.5,79.5
	C641.3,324.4,640.6,324.4,640,324.4"/>
<path d="M509.9,241.7l126.9,73.1V168.6L509.9,241.7z M640,324.4c-0.6,0-1.3,0-1.9-0.6l-137.2-78.8c-1.3-0.6-1.9-1.9-1.9-3.2
	s0.6-2.6,1.9-3.2L638.1,159c1.3-0.6,2.6-0.6,3.2,0c1.3,0.6,1.9,1.9,1.9,3.2v159c0,1.3-0.6,2.6-1.9,3.2
	C641.3,324.4,640.6,324.4,640,324.4"/>
<path d="M371.4,321.2l126.9,73.1V247.4L371.4,321.2z M502.2,403.8c-0.6,0-1.3,0-1.9-0.6l-137.8-78.8c-1.3-0.6-1.9-1.9-1.9-3.2
	c0-1.3,0.6-2.6,1.9-3.2l137.8-79.5c1.3-0.6,2.6-0.6,3.2,0c1.3,0.6,1.9,1.9,1.9,3.2v159c0,1.3-0.6,2.6-1.9,3.2
	C503.5,403.8,502.8,403.8,502.2,403.8"/>
<path d="M505.4,247.4v146.8l126.9-73.1L505.4,247.4z M502.2,403.8c-0.6,0-1.3,0-1.9-0.6c-1.3-0.6-1.9-1.9-1.9-3.2V241.7
	c0-1.3,0.6-2.6,1.9-3.2c1.3-0.6,2.6-0.6,3.2,0l137.8,79.5c1.3,0.6,1.9,1.9,1.9,3.2c0,1.3-0.6,2.6-1.9,3.2l-137.8,78.8
	C503.5,403.8,502.8,403.8,502.2,403.8"/>
<path d="M368.2,326.9v146.8l126.9-73.1L368.2,326.9z M364.4,483.3c-0.6,0-1.3,0-1.9-0.6l0,0c-1.3-0.6-1.9-1.9-1.9-3.2V321.2
	c0-1.3,0.6-2.6,1.9-3.2s2.6-0.6,3.2,0l137.8,79.5c1.3,0.6,1.9,1.9,1.9,3.2s-0.6,2.6-1.9,3.2l-137.2,78.8
	C365.6,483.3,365,483.3,364.4,483.3"/>
<path d="M509.2,400.6l126.9,73.1V326.9L509.2,400.6z M639.4,483.3c-0.6,0-1.3,0-1.9-0.6l-137.2-79.5c-1.3-0.6-1.9-1.9-1.9-3.2
	c0-1.3,0.6-2.6,1.9-3.2l137.8-79.5c1.3-0.6,2.6-0.6,3.2,0c0.6,0.6,1.9,1.9,1.9,3.2v159c0,1.3-0.6,2.6-1.9,3.2
	C640.6,483.3,640,483.3,639.4,483.3"/>
<path d="M505.4,406.4v146.8l126.9-73.1L505.4,406.4z M502.2,562.8c-0.6,0-1.3,0-1.9-0.6c-1.3-0.6-1.9-1.9-1.9-3.2V400.6
	c0-1.3,0.6-2.6,1.9-3.2c1.3-0.6,2.6-0.6,3.2,0l137.2,79.5c1.3,0.6,1.9,1.9,1.9,3.2c0,1.3-0.6,2.6-1.9,3.2l-137.2,78.8
	C503.5,562.8,502.8,562.8,502.2,562.8"/>
<path d="M371.4,479.5l126.9,73.1V406.4L371.4,479.5z M502.2,562.8c-0.6,0-1.3,0-1.9-0.6l-137.2-79.5c-1.3-0.6-1.9-1.9-1.9-3.2
	c0-1.3,0.6-2.6,1.9-3.2l137.2-78.8c1.3-0.6,2.6-0.6,3.2,0c1.3,0.6,1.9,1.9,1.9,3.2v159c0,1.3-0.6,2.6-1.9,3.2
	C503.5,562.8,502.8,562.8,502.2,562.8"/>
<path d="M646.4,321.2l126.9,73.1V247.4L646.4,321.2z M777.2,403.8c-0.6,0-1.3,0-1.9-0.6l-137.8-78.8c-1.3-0.6-1.9-1.9-1.9-3.2
	c0-1.3,0.6-2.6,1.9-3.2l137.8-79.5c1.3-0.6,2.6-0.6,3.2,0c1.3,0.6,1.9,1.9,1.9,3.2v159c0,1.3-0.6,2.6-1.9,3.2
	C778.5,403.8,777.8,403.8,777.2,403.8"/>
<path d="M780.4,247.4v146.8l126.9-73.1L780.4,247.4z M777.2,403.8c-0.6,0-1.3,0-1.9-0.6c-1.3-0.6-1.9-1.9-1.9-3.2V241.7
	c0-1.3,0.6-2.6,1.9-3.2c1.3-0.6,2.6-0.6,3.2,0l137.8,79.5c1.3,0.6,1.9,1.9,1.9,3.2c0,1.3-0.6,2.6-1.9,3.2l-137.8,78.8
	C778.5,403.8,777.8,403.8,777.2,403.8"/>
<path d="M643.2,326.9v146.8l126.9-73.1L643.2,326.9z M639.4,483.3c-0.6,0-1.3,0-1.9-0.6l0,0c-1.3-0.6-1.9-1.9-1.9-3.2V321.2
	c0-1.3,0.6-2.6,1.9-3.2c1.3-0.6,2.6-0.6,3.2,0l137.8,79.5c1.3,0.6,1.9,1.9,1.9,3.2s-0.6,2.6-1.9,3.2l-137.2,78.8
	C640.6,483.3,640,483.3,639.4,483.3"/>
<path d="M784.2,400.6l126.9,73.1V326.9L784.2,400.6z M914.4,483.3c-0.6,0-1.3,0-1.9-0.6l-137.2-79.5c-1.3-0.6-1.9-1.9-1.9-3.2
	c0-1.3,0.6-2.6,1.9-3.2l137.8-79.5c1.3-0.6,2.6-0.6,3.2,0c1.3,0.6,1.9,1.9,1.9,3.2v159c0,1.3-0.6,2.6-1.9,3.2
	C915.6,483.3,915,483.3,914.4,483.3"/>
<path d="M780.4,406.4v146.8l126.9-73.1L780.4,406.4z M777.2,562.8c-0.6,0-1.3,0-1.9-0.6c-1.3-0.6-1.9-1.9-1.9-3.2V400.6
	c0-1.3,0.6-2.6,1.9-3.2c1.3-0.6,2.6-0.6,3.2,0l137.8,79.5c1.3,0.6,1.9,1.9,1.9,3.2c0,1.3-0.6,2.6-1.9,3.2l-137.8,78.8
	C778.5,562.8,777.8,562.8,777.2,562.8"/>
<path d="M646.4,479.5l126.9,73.1V406.4L646.4,479.5z M777.2,562.8c-0.6,0-1.3,0-1.9-0.6l-137.2-79.5c-1.3-0.6-1.9-1.9-1.9-3.2
	c0-1.3,0.6-2.6,1.9-3.2l137.2-78.8c1.3-0.6,2.6-0.6,3.2,0c1.3,0.6,1.9,1.9,1.9,3.2v159c0,1.3-0.6,2.6-1.9,3.2
	C778.5,562.8,777.8,562.8,777.2,562.8"/>
<path d="M784.2,82.7l126.9,73.1V9.6L784.2,82.7z M915,166c-0.6,0-1.3,0-1.9-0.6L775.9,85.9c-1.3-0.6-1.9-1.9-1.9-3.2
	s0.6-2.6,1.9-3.2L913.7,0c1.3-0.6,2.6-0.6,3.2,0c1.3,0.6,1.9,1.9,1.9,3.2v159c0,1.3-0.6,2.6-1.9,3.2C916.3,166,915.6,166,915,166"/>
<path d="M918.8,9.6v146.8l126.9-73.1L918.8,9.6z M915,166c-0.6,0-1.3,0-1.9-0.6c-1.3-0.6-1.9-1.9-1.9-3.2V3.2c0-1.3,0.6-2.6,1.9-3.2
	s2.6-0.6,3.2,0l137.8,79.5c1.3,0.6,1.9,1.9,1.9,3.2s-0.6,2.6-1.9,3.2l-137.8,79.5C916.3,166,915.6,166,915,166"/>
<path d="M781,89.1v146.8l126.9-73.1L781,89.1z M777.8,245.5c-0.6,0-1.3,0-1.9-0.6l0,0c-1.3-0.6-1.9-1.9-1.9-3.2v-159
	c0-1.3,0.6-2.6,1.9-3.2s2.6-0.6,3.2,0L916.9,159c1.3,0.6,1.9,1.9,1.9,3.2c0,1.3-0.6,2.6-1.9,3.2l-137.8,79.5
	C779.1,244.9,778.5,245.5,777.8,245.5"/>
<path d="M922.1,162.2l126.9,73.1V89.1L922.1,162.2z M1052.2,245.5c-0.6,0-1.3,0-1.9-0.6l-137.2-79.5c-1.3-0.6-1.9-1.9-1.9-3.2
	s0.6-2.6,1.9-3.2l137.8-78.8c1.3-0.6,2.6-0.6,3.2,0c1.3,0.6,1.9,1.9,1.9,3.2v159c0,1.3-0.6,2.6-1.9,3.2
	C1053.5,244.9,1052.8,245.5,1052.2,245.5"/>
<path d="M918.8,168.6v146.8l126.9-73.1L918.8,168.6z M915,324.4c-0.6,0-1.3,0-1.9-0.6c-1.3-0.6-1.9-1.9-1.9-3.2V162.2
	c0-1.3,0.6-2.6,1.9-3.2c1.3-0.6,2.6-0.6,3.2,0l137.2,79.5c1.3,0.6,1.9,1.9,1.9,3.2s-0.6,2.6-1.9,3.2l-137.2,79.5
	C916.3,324.4,915.6,324.4,915,324.4"/>
<path d="M784.9,241.7l126.9,73.1V168.6L784.9,241.7z M915,324.4c-0.6,0-1.3,0-1.9-0.6l-137.2-78.8c-1.3-0.6-1.9-1.9-1.9-3.2
	s0.6-2.6,1.9-3.2L913.1,159c1.3-0.6,2.6-0.6,3.2,0c1.3,0.6,1.9,1.9,1.9,3.2v159c0,1.3-0.6,2.6-1.9,3.2
	C916.3,324.4,915.6,324.4,915,324.4"/>
<path d="M234.2,558.3l126.9,73.1V485.3L234.2,558.3z M365,641c-0.6,0-1.3,0-1.9-0.6l-137.2-78.8c-1.3-0.6-1.9-1.9-1.9-3.2
	c0-1.3,0.6-2.6,1.9-3.2l137.8-79.5c1.3-0.6,2.6-0.6,3.2,0c1.3,0.6,1.9,1.9,1.9,3.2v159c0,1.3-0.6,2.6-1.9,3.2
	C366.3,641,365.6,641,365,641"/>
<path d="M368.2,485.3v146.8L495.1,559L368.2,485.3z M365,641c-0.6,0-1.3,0-1.9-0.6c-1.3-0.6-1.9-1.9-1.9-3.2V478.8
	c0-1.3,0.6-2.6,1.9-3.2c1.3-0.6,2.6-0.6,3.2,0l137.8,79.5c1.3,0.6,1.9,1.9,1.9,3.2s-0.6,2.6-1.9,3.2L366.9,641
	C366.3,641,365.6,641,365,641"/>
<path d="M231,564.7v146.8l126.9-73.1L231,564.7z M227.8,720.5c-0.6,0-1.3,0-1.9-0.6l0,0c-1.3-0.6-1.9-1.9-1.9-3.2V558.3
	c0-1.3,0.6-2.6,1.9-3.2c1.3-0.6,2.6-0.6,3.2,0l137.8,79.5c1.3,0.6,1.9,1.9,1.9,3.2s-0.6,2.6-1.9,3.2l-137.8,78.8
	C228.5,720.5,228.5,720.5,227.8,720.5"/>
<path d="M372.1,637.8L499,710.9V564.7L372.1,637.8z M502.2,720.5c-0.6,0-1.3,0-1.9-0.6L363.1,641c-1.3-0.6-1.9-1.9-1.9-3.2
	s0.6-2.6,1.9-3.2l137.8-79.5c1.3-0.6,2.6-0.6,3.2,0c1.3,0.6,1.9,1.9,1.9,3.2v159c0,1.3-0.6,2.6-1.9,3.2
	C503.5,720.5,502.8,720.5,502.2,720.5"/>
<path d="M368.2,643.6v146.8l126.9-73.1L368.2,643.6z M365,800c-0.6,0-1.3,0-1.9-0.6c-1.3-0.6-1.9-1.9-1.9-3.2V637.8
	c0-1.3,0.6-2.6,1.9-3.2c1.3-0.6,2.6-0.6,3.2,0l137.2,79.5c1.3,0.6,1.9,1.9,1.9,3.2c0,1.3-0.6,2.6-1.9,3.2L366.3,800
	C366.3,800,365.6,800,365,800"/>
<path d="M234.2,717.3l126.9,73.1V643.6L234.2,717.3z M365,800c-0.6,0-1.3,0-1.9-0.6l-137.2-79.5c-1.3-0.6-1.9-1.9-1.9-3.2
	s0.6-2.6,1.9-3.2l137.2-78.8c1.3-0.6,2.6-0.6,3.2,0c1.3,0.6,1.9,1.9,1.9,3.2v159c0,1.3-0.6,2.6-1.9,3.2C366.3,800,365.6,800,365,800
	"/>
<path d="M509.2,558.3l126.9,73.1V485.3L509.2,558.3z M640,641c-0.6,0-1.3,0-1.9-0.6l-137.2-78.8c-1.3-0.6-1.9-1.9-1.9-3.2
	s0.6-2.6,1.9-3.2l137.8-79.5c1.3-0.6,2.6-0.6,3.2,0c1.3,0.6,1.9,1.9,1.9,3.2v159c0,1.3-0.6,2.6-1.9,3.2C641.3,641,640.6,641,640,641
	"/>
<path d="M643.2,485.3v146.8L770.1,559L643.2,485.3z M640,641c-0.6,0-1.3,0-1.9-0.6c-1.3-0.6-1.9-1.9-1.9-3.2V478.8
	c0-1.3,0.6-2.6,1.9-3.2c1.3-0.6,2.6-0.6,3.2,0l137.8,79.5c1.3,0.6,1.9,1.9,1.9,3.2s-0.6,2.6-1.9,3.2L641.9,641
	C641.3,641,640.6,641,640,641"/>
<path d="M506,564.7v146.8l126.9-73.1L506,564.7z M502.8,720.5c-0.6,0-1.3,0-1.9-0.6l0,0c-1.3-0.6-1.9-1.9-1.9-3.2V558.3
	c0-1.3,0.6-2.6,1.9-3.2c1.3-0.6,2.6-0.6,3.2,0l137.8,79.5c1.3,0.6,1.9,1.9,1.9,3.2s-0.6,2.6-1.9,3.2l-137.2,79.5
	C503.5,720.5,503.5,720.5,502.8,720.5"/>
<path d="M647.1,637.8L774,710.9V564.7L647.1,637.8z M777.2,720.5c-0.6,0-1.3,0-1.9-0.6L638.1,641c-1.3-0.6-1.9-1.9-1.9-3.2
	s0.6-2.6,1.9-3.2l137.8-79.5c1.3-0.6,2.6-0.6,3.2,0c1.3,0.6,1.9,1.9,1.9,3.2v159c0,1.3-0.6,2.6-1.9,3.2
	C778.5,720.5,777.8,720.5,777.2,720.5"/>
<path d="M643.2,643.6v146.8l126.9-73.1L643.2,643.6z M640,800c-0.6,0-1.3,0-1.9-0.6c-1.3-0.6-1.9-1.9-1.9-3.2V637.8
	c0-1.3,0.6-2.6,1.9-3.2c1.3-0.6,2.6-0.6,3.2,0l137.2,79.5c1.3,0.6,1.9,1.9,1.9,3.2c0,1.3-0.6,2.6-1.9,3.2L641.3,800
	C641.3,800,640.6,800,640,800"/>
<path d="M509.9,717.3l126.9,73.1V643.6L509.9,717.3z M640,800c-0.6,0-1.3,0-1.9-0.6l-137.2-79.5c-1.3-0.6-1.9-1.9-1.9-3.2
	s0.6-2.6,1.9-3.2l137.2-78.8c1.3-0.6,2.6-0.6,3.2,0c1.3,0.6,1.9,1.9,1.9,3.2v159c0,1.3-0.6,2.6-1.9,3.2C641.3,800,640.6,800,640,800
	"/>
<path d="M784.2,558.3l126.9,73.1V485.3L784.2,558.3z M915,641c-0.6,0-1.3,0-1.9-0.6l-137.2-78.8c-1.3-0.6-1.9-1.9-1.9-3.2
	s0.6-2.6,1.9-3.2l137.8-79.5c1.3-0.6,2.6-0.6,3.2,0c1.3,0.6,1.9,1.9,1.9,3.2v159c0,1.3-0.6,2.6-1.9,3.2C916.3,641,915.6,641,915,641
	"/>
<path d="M918.8,485.3v146.8l126.9-73.1L918.8,485.3z M915,641c-0.6,0-1.3,0-1.9-0.6c-1.3-0.6-1.9-1.9-1.9-3.2V478.8
	c0-1.3,0.6-2.6,1.9-3.2c1.3-0.6,2.6-0.6,3.2,0l137.8,79.5c1.3,0.6,1.9,1.9,1.9,3.2s-0.6,2.6-1.9,3.2L916.9,641
	C916.3,641,915.6,641,915,641"/>
<path d="M781,564.7v146.8l126.9-73.1L781,564.7z M777.8,720.5c-0.6,0-1.3,0-1.9-0.6l0,0c-1.3-0.6-1.9-1.9-1.9-3.2V558.3
	c0-1.3,0.6-2.6,1.9-3.2c1.3-0.6,2.6-0.6,3.2,0l137.8,79.5c1.3,0.6,1.9,1.9,1.9,3.2s-0.6,2.6-1.9,3.2l-137.2,79.5
	C779.1,720.5,778.5,720.5,777.8,720.5"/>
<path d="M922.1,637.8l126.9,73.1V564.7L922.1,637.8z M1052.2,720.5c-0.6,0-1.3,0-1.9-0.6L913.1,641c-1.3-0.6-1.9-1.9-1.9-3.2
	s0.6-2.6,1.9-3.2l137.8-79.5c1.3-0.6,2.6-0.6,3.2,0c1.3,0.6,1.9,1.9,1.9,3.2v159c0,1.3-0.6,2.6-1.9,3.2
	C1053.5,720.5,1052.8,720.5,1052.2,720.5"/>
<path d="M918.8,643.6v146.8l126.9-73.1L918.8,643.6z M915,800c-0.6,0-1.3,0-1.9-0.6c-1.3-0.6-1.9-1.9-1.9-3.2V637.8
	c0-1.3,0.6-2.6,1.9-3.2c1.3-0.6,2.6-0.6,3.2,0l137.2,79.5c1.3,0.6,1.9,1.9,1.9,3.2c0,1.3-0.6,2.6-1.9,3.2L916.3,800
	C916.3,800,915.6,800,915,800"/>
<path d="M784.9,717.3l126.9,73.1V643.6L784.9,717.3z M915,800c-0.6,0-1.3,0-1.9-0.6l-137.2-79.5c-1.3-0.6-1.9-1.9-1.9-3.2
	s0.6-2.6,1.9-3.2l137.2-78.8c1.3-0.6,2.6-0.6,3.2,0c1.3,0.6,1.9,1.9,1.9,3.2v159c0,1.3-0.6,2.6-1.9,3.2C916.3,800,915.6,800,915,800
	"/>
<path d="M639.4,300c11.5,0,21.2,9.6,21.2,21.2s-9.6,21.2-21.2,21.2s-21.2-9.6-21.2-21.2C618.8,309.6,627.8,300,639.4,300"/>
<path d="M639.4,141.7c11.5,0,21.2,9.6,21.2,21.2s-9.6,21.2-21.2,21.2s-21.2-9.6-21.2-21.2C618.8,150.6,627.8,141.7,639.4,141.7"/>
<path d="M639.4,457.7c11.5,0,21.2,9.6,21.2,21.2s-9.6,21.2-21.2,21.2s-21.2-9.6-21.2-21.2C618.8,467.3,627.8,457.7,639.4,457.7"/>
<path d="M639.4,616c11.5,0,21.2,9.6,21.2,21.2c0,11.5-9.6,21.2-21.2,21.2s-21.2-9.6-21.2-21.2C618.8,625.6,627.8,616,639.4,616"/>
<path d="M362.4,141.7c11.5,0,21.2,9.6,21.2,21.2S374,184,362.4,184s-21.2-9.6-21.2-21.2C341.3,150.6,350.3,141.7,362.4,141.7"/>
<path d="M362.4,616c11.5,0,21.2,9.6,21.2,21.2c0,11.5-9.6,21.2-21.2,21.2s-21.2-9.6-21.2-21.2C341.3,625.6,350.3,616,362.4,616"/>
<path d="M502.8,379.5c11.5,0,21.2,9.6,21.2,21.2c0,11.5-9.6,21.2-21.2,21.2c-11.5,0-21.2-9.6-21.2-21.2
	C481.7,389.1,491.3,379.5,502.8,379.5"/>
<path d="M777.8,379.5c11.5,0,21.2,9.6,21.2,21.2c0,11.5-9.6,21.2-21.2,21.2c-11.5,0-21.2-9.6-21.2-21.2
	C756.7,389.1,766.3,379.5,777.8,379.5"/>
<path d="M502.8,220.5c11.5,0,21.2,9.6,21.2,21.2s-9.6,21.2-21.2,21.2c-11.5,0-21.2-9.6-21.2-21.2S491.3,220.5,502.8,220.5"/>
<path d="M777.8,220.5c11.5,0,21.2,9.6,21.2,21.2s-9.6,21.2-21.2,21.2c-11.5,0-21.2-9.6-21.2-21.2S766.3,220.5,777.8,220.5"/>
<path d="M502.8,537.2c11.5,0,21.2,9.6,21.2,21.2c0,11.5-9.6,21.2-21.2,21.2c-11.5,0-21.2-9.6-21.2-21.2
	C481.7,546.8,491.3,537.2,502.8,537.2"/>
<path d="M777.8,537.2c11.5,0,21.2,9.6,21.2,21.2c0,11.5-9.6,21.2-21.2,21.2c-11.5,0-21.2-9.6-21.2-21.2
	C756.7,546.8,766.3,537.2,777.8,537.2"/>
<path d="M915,141.7c11.5,0,21.2,9.6,21.2,21.2S926.5,184,915,184c-11.5,0-21.2-9.6-21.2-21.2C893.8,150.6,903.5,141.7,915,141.7"/>
<path d="M915,616c11.5,0,21.2,9.6,21.2,21.2c0,11.5-9.6,21.2-21.2,21.2c-11.5,0-21.2-9.6-21.2-21.2C893.8,625.6,903.5,616,915,616"
	/>
</svg>
