<svg xmlns="http://www.w3.org/2000/svg" viewBox="224 -0.5 832.1 800.5" enable-background="new 224 -0.5 832.1 800.5"><path d="M234.2 82.7l126.9 73.1V9.6L234.2 82.7zM365 166c-.6 0-1.3 0-1.9-.6L225.9 85.9c-1.3-.6-1.9-1.9-1.9-3.2 0-1.3.6-2.6 1.9-3.2L363.1.6c1.3-.6 2.6-.6 3.2 0 1.3.6 1.9 1.9 1.9 3.2v159c0 1.3-.6 2.6-1.9 3.2H365M368.2 9.6v146.8l126.9-73.1L368.2 9.6zM365 166c-.6 0-1.3 0-1.9-.6-1.3-.6-1.9-1.9-1.9-3.2V3.2c0-1.3.6-2.6 1.9-3.2s2.6-.6 3.2 0l137.8 79.5c1.3.6 1.9 1.9 1.9 3.2s-.6 2.6-1.9 3.2l-137.2 79.5c-.6.6-1.3.6-1.9.6M231 89.1v146.8l126.9-73.1L231 89.1zm-3.2 156.4c-.6 0-1.3 0-1.9-.6-1.3-.6-1.9-1.9-1.9-3.2v-159c0-1.3.6-2.6 1.9-3.2 1.3-.6 2.6-.6 3.2 0L366.9 159c1.3.6 1.9 1.9 1.9 3.2 0 1.3-.6 2.6-1.9 3.2l-137.8 79.5c-.6 0-.6.6-1.3.6M372.1 162.2L499 235.3V89.1l-126.9 73.1zm130.1 83.3c-.6 0-1.3 0-1.9-.6l-137.2-79.5c-1.3-.6-1.9-1.9-1.9-3.2 0-1.3.6-2.6 1.9-3.2l137.8-79.5c1.3-.6 2.6-.6 3.2 0 1.3.6 1.9 1.9 1.9 3.2v159c0 1.3-.6 2.6-1.9 3.2-.6 0-1.3.6-1.9.6M368.2 168.6v146.8l126.9-73.1-126.9-73.7zM365 324.4c-.6 0-1.3 0-1.9-.6-1.3-.6-1.9-1.9-1.9-3.2V162.2c0-1.3.6-2.6 1.9-3.2 1.3-.6 2.6-.6 3.2 0l137.2 79.5c1.3.6 1.9 1.9 1.9 3.2s-.6 2.6-1.9 3.2L367 324.4h-2M234.2 241.7l126.9 73.1V168.6l-126.9 73.1zM365 324.4c-.6 0-1.3 0-1.9-.6L225.9 245c-1.3-.6-1.9-1.9-1.9-3.2s.6-2.6 1.9-3.2L363.1 159c1.3-.6 2.6-.6 3.2 0 1.3.6 1.9 1.9 1.9 3.2v159c0 1.3-.6 2.6-1.9 3.2H365M509.2 82.7l126.9 73.1V9.6L509.2 82.7zM640 166c-.6 0-1.3 0-1.9-.6L500.9 85.9c-1.3-.6-1.9-1.9-1.9-3.2s.6-2.6 1.9-3.2L638.1.6c1.3-.6 2.6-.6 3.8 0 1.3.6 1.9 1.9 1.9 3.2v159c0 1.3-.6 2.6-1.9 3.2H640M643.2 9.6v146.8l126.9-73.1L643.2 9.6zM640 166c-.6 0-1.3 0-1.9-.6-1.3-.6-1.9-1.9-1.9-3.2V3.2c0-1.3.6-2.6 1.9-3.2 1.3 0 2.6 0 3.8.6l137.8 79.5c1.3.6 1.9 1.9 1.9 3.2 0 1.3-.6 2.6-1.9 3.2l-137.8 78.8c-.6.7-1.3.7-1.9.7M506 89.1v146.8l126.9-73.1L506 89.1zm-3.2 156.4c-.6 0-1.3 0-1.9-.6-1.3-.6-1.9-1.9-1.9-3.2v-159c0-1.3.6-2.6 1.9-3.2 1.3-.6 2.6-.6 3.2 0L641.9 159c1.3.6 1.9 1.9 1.9 3.2 0 1.3-.6 2.6-1.9 3.2l-137.8 79.5c-.6 0-.6.6-1.3.6M647.1 162.2L774 235.3V89.1l-126.9 73.1zm130.1 83.3c-.6 0-1.3 0-1.9-.6l-137.2-79.5c-1.3-.6-1.9-1.9-1.9-3.2 0-1.3.6-2.6 1.9-3.2l137.8-79.5c1.3-.6 2.6-.6 3.2 0 1.3.6 1.9 1.9 1.9 3.2v159c0 1.3-.6 2.6-1.9 3.2-.6 0-1.3.6-1.9.6M643.2 168.6v146.8l126.9-73.1-126.9-73.7zM640 324.4c-.6 0-1.3 0-1.9-.6-1.3-.6-1.9-1.9-1.9-3.2V162.2c0-1.3.6-2.6 1.9-3.2 1.3-.6 2.6-.6 3.2 0l137.2 79.5c1.3.6 1.9 1.9 1.9 3.2s-.6 2.6-1.9 3.2L642 324.4h-2M509.9 241.7l126.9 73.1V168.6l-126.9 73.1zM640 324.4c-.6 0-1.3 0-1.9-.6L500.9 245c-1.3-.6-1.9-1.9-1.9-3.2s.6-2.6 1.9-3.2L638.1 159c1.3-.6 2.6-.6 3.2 0 1.3.6 1.9 1.9 1.9 3.2v159c0 1.3-.6 2.6-1.9 3.2H640M371.4 321.2l126.9 73.1V247.4l-126.9 73.8zm130.8 82.6c-.6 0-1.3 0-1.9-.6l-137.8-78.8c-1.3-.6-1.9-1.9-1.9-3.2 0-1.3.6-2.6 1.9-3.2l137.8-79.5c1.3-.6 2.6-.6 3.2 0 1.3.6 1.9 1.9 1.9 3.2v159c0 1.3-.6 2.6-1.9 3.2 0-.1-.7-.1-1.3-.1M505.4 247.4v146.8l126.9-73.1-126.9-73.7zm-3.2 156.4c-.6 0-1.3 0-1.9-.6-1.3-.6-1.9-1.9-1.9-3.2V241.7c0-1.3.6-2.6 1.9-3.2 1.3-.6 2.6-.6 3.2 0L641.3 318c1.3.6 1.9 1.9 1.9 3.2 0 1.3-.6 2.6-1.9 3.2l-137.8 78.8c0 .6-.7.6-1.3.6M368.2 326.9v146.8l126.9-73.1-126.9-73.7zm-3.8 156.4c-.6 0-1.3 0-1.9-.6-1.3-.6-1.9-1.9-1.9-3.2V321.2c0-1.3.6-2.6 1.9-3.2s2.6-.6 3.2 0l137.8 79.5c1.3.6 1.9 1.9 1.9 3.2s-.6 2.6-1.9 3.2l-137.2 78.8c-.7.6-1.3.6-1.9.6M509.2 400.6l126.9 73.1V326.9l-126.9 73.7zm130.2 82.7c-.6 0-1.3 0-1.9-.6l-137.2-79.5c-1.3-.6-1.9-1.9-1.9-3.2 0-1.3.6-2.6 1.9-3.2l137.8-79.5c1.3-.6 2.6-.6 3.2 0 .6.6 1.9 1.9 1.9 3.2v159c0 1.3-.6 2.6-1.9 3.2-.7.6-1.3.6-1.9.6M505.4 406.4v146.8l126.9-73.1-126.9-73.7zm-3.2 156.4c-.6 0-1.3 0-1.9-.6-1.3-.6-1.9-1.9-1.9-3.2V400.6c0-1.3.6-2.6 1.9-3.2 1.3-.6 2.6-.6 3.2 0l137.2 79.5c1.3.6 1.9 1.9 1.9 3.2 0 1.3-.6 2.6-1.9 3.2l-137.2 78.8c0 .7-.7.7-1.3.7M371.4 479.5l126.9 73.1V406.4l-126.9 73.1zm130.8 83.3c-.6 0-1.3 0-1.9-.6l-137.2-79.5c-1.3-.6-1.9-1.9-1.9-3.2 0-1.3.6-2.6 1.9-3.2l137.2-78.8c1.3-.6 2.6-.6 3.2 0 1.3.6 1.9 1.9 1.9 3.2v159c0 1.3-.6 2.6-1.9 3.2 0-.1-.7-.1-1.3-.1M646.4 321.2l126.9 73.1V247.4l-126.9 73.8zm130.8 82.6c-.6 0-1.3 0-1.9-.6l-137.8-78.8c-1.3-.6-1.9-1.9-1.9-3.2 0-1.3.6-2.6 1.9-3.2l137.8-79.5c1.3-.6 2.6-.6 3.2 0 1.3.6 1.9 1.9 1.9 3.2v159c0 1.3-.6 2.6-1.9 3.2 0-.1-.7-.1-1.3-.1M780.4 247.4v146.8l126.9-73.1-126.9-73.7zm-3.2 156.4c-.6 0-1.3 0-1.9-.6-1.3-.6-1.9-1.9-1.9-3.2V241.7c0-1.3.6-2.6 1.9-3.2 1.3-.6 2.6-.6 3.2 0L916.3 318c1.3.6 1.9 1.9 1.9 3.2 0 1.3-.6 2.6-1.9 3.2l-137.8 78.8c0 .6-.7.6-1.3.6M643.2 326.9v146.8l126.9-73.1-126.9-73.7zm-3.8 156.4c-.6 0-1.3 0-1.9-.6-1.3-.6-1.9-1.9-1.9-3.2V321.2c0-1.3.6-2.6 1.9-3.2 1.3-.6 2.6-.6 3.2 0l137.8 79.5c1.3.6 1.9 1.9 1.9 3.2s-.6 2.6-1.9 3.2l-137.2 78.8c-.7.6-1.3.6-1.9.6M784.2 400.6l126.9 73.1V326.9l-126.9 73.7zm130.2 82.7c-.6 0-1.3 0-1.9-.6l-137.2-79.5c-1.3-.6-1.9-1.9-1.9-3.2 0-1.3.6-2.6 1.9-3.2l137.8-79.5c1.3-.6 2.6-.6 3.2 0 1.3.6 1.9 1.9 1.9 3.2v159c0 1.3-.6 2.6-1.9 3.2-.7.6-1.3.6-1.9.6M780.4 406.4v146.8l126.9-73.1-126.9-73.7zm-3.2 156.4c-.6 0-1.3 0-1.9-.6-1.3-.6-1.9-1.9-1.9-3.2V400.6c0-1.3.6-2.6 1.9-3.2 1.3-.6 2.6-.6 3.2 0l137.8 79.5c1.3.6 1.9 1.9 1.9 3.2 0 1.3-.6 2.6-1.9 3.2l-137.8 78.8c0 .7-.7.7-1.3.7M646.4 479.5l126.9 73.1V406.4l-126.9 73.1zm130.8 83.3c-.6 0-1.3 0-1.9-.6l-137.2-79.5c-1.3-.6-1.9-1.9-1.9-3.2 0-1.3.6-2.6 1.9-3.2l137.2-78.8c1.3-.6 2.6-.6 3.2 0 1.3.6 1.9 1.9 1.9 3.2v159c0 1.3-.6 2.6-1.9 3.2 0-.1-.7-.1-1.3-.1M784.2 82.7l126.9 73.1V9.6L784.2 82.7zM915 166c-.6 0-1.3 0-1.9-.6L775.9 85.9c-1.3-.6-1.9-1.9-1.9-3.2s.6-2.6 1.9-3.2L913.7 0c1.3-.6 2.6-.6 3.2 0 1.3.6 1.9 1.9 1.9 3.2v159c0 1.3-.6 2.6-1.9 3.2-.6.6-1.3.6-1.9.6M918.8 9.6v146.8l126.9-73.1L918.8 9.6zM915 166c-.6 0-1.3 0-1.9-.6-1.3-.6-1.9-1.9-1.9-3.2V3.2c0-1.3.6-2.6 1.9-3.2s2.6-.6 3.2 0l137.8 79.5c1.3.6 1.9 1.9 1.9 3.2s-.6 2.6-1.9 3.2l-137.8 79.5c0 .6-.7.6-1.3.6M781 89.1v146.8l126.9-73.1L781 89.1zm-3.2 156.4c-.6 0-1.3 0-1.9-.6-1.3-.6-1.9-1.9-1.9-3.2v-159c0-1.3.6-2.6 1.9-3.2s2.6-.6 3.2 0L916.9 159c1.3.6 1.9 1.9 1.9 3.2 0 1.3-.6 2.6-1.9 3.2l-137.8 79.5s-.6.6-1.3.6M922.1 162.2l126.9 73.1V89.1l-126.9 73.1zm130.1 83.3c-.6 0-1.3 0-1.9-.6l-137.2-79.5c-1.3-.6-1.9-1.9-1.9-3.2s.6-2.6 1.9-3.2l137.8-78.8c1.3-.6 2.6-.6 3.2 0 1.3.6 1.9 1.9 1.9 3.2v159c0 1.3-.6 2.6-1.9 3.2-.6-.7-1.3-.1-1.9-.1M918.8 168.6v146.8l126.9-73.1-126.9-73.7zM915 324.4c-.6 0-1.3 0-1.9-.6-1.3-.6-1.9-1.9-1.9-3.2V162.2c0-1.3.6-2.6 1.9-3.2 1.3-.6 2.6-.6 3.2 0l137.2 79.5c1.3.6 1.9 1.9 1.9 3.2s-.6 2.6-1.9 3.2l-137.2 79.5H915M784.9 241.7l126.9 73.1V168.6l-126.9 73.1zM915 324.4c-.6 0-1.3 0-1.9-.6L775.9 245c-1.3-.6-1.9-1.9-1.9-3.2s.6-2.6 1.9-3.2L913.1 159c1.3-.6 2.6-.6 3.2 0 1.3.6 1.9 1.9 1.9 3.2v159c0 1.3-.6 2.6-1.9 3.2H915M234.2 558.3l126.9 73.1V485.3l-126.9 73zM365 641c-.6 0-1.3 0-1.9-.6l-137.2-78.8c-1.3-.6-1.9-1.9-1.9-3.2 0-1.3.6-2.6 1.9-3.2l137.8-79.5c1.3-.6 2.6-.6 3.2 0 1.3.6 1.9 1.9 1.9 3.2v159c0 1.3-.6 2.6-1.9 3.2-.6-.1-1.3-.1-1.9-.1M368.2 485.3v146.8L495.1 559l-126.9-73.7zM365 641c-.6 0-1.3 0-1.9-.6-1.3-.6-1.9-1.9-1.9-3.2V478.8c0-1.3.6-2.6 1.9-3.2 1.3-.6 2.6-.6 3.2 0l137.8 79.5c1.3.6 1.9 1.9 1.9 3.2s-.6 2.6-1.9 3.2L366.9 641H365M231 564.7v146.8l126.9-73.1L231 564.7zm-3.2 155.8c-.6 0-1.3 0-1.9-.6-1.3-.6-1.9-1.9-1.9-3.2V558.3c0-1.3.6-2.6 1.9-3.2 1.3-.6 2.6-.6 3.2 0l137.8 79.5c1.3.6 1.9 1.9 1.9 3.2s-.6 2.6-1.9 3.2l-137.8 78.8c-.6.7-.6.7-1.3.7M372.1 637.8L499 710.9V564.7l-126.9 73.1zm130.1 82.7c-.6 0-1.3 0-1.9-.6L363.1 641c-1.3-.6-1.9-1.9-1.9-3.2s.6-2.6 1.9-3.2l137.8-79.5c1.3-.6 2.6-.6 3.2 0 1.3.6 1.9 1.9 1.9 3.2v159c0 1.3-.6 2.6-1.9 3.2h-1.9M368.2 643.6v146.8l126.9-73.1-126.9-73.7zM365 800c-.6 0-1.3 0-1.9-.6-1.3-.6-1.9-1.9-1.9-3.2V637.8c0-1.3.6-2.6 1.9-3.2 1.3-.6 2.6-.6 3.2 0l137.2 79.5c1.3.6 1.9 1.9 1.9 3.2 0 1.3-.6 2.6-1.9 3.2L366.3 800H365M234.2 717.3l126.9 73.1V643.6l-126.9 73.7zM365 800c-.6 0-1.3 0-1.9-.6l-137.2-79.5c-1.3-.6-1.9-1.9-1.9-3.2s.6-2.6 1.9-3.2l137.2-78.8c1.3-.6 2.6-.6 3.2 0 1.3.6 1.9 1.9 1.9 3.2v159c0 1.3-.6 2.6-1.9 3.2 0-.1-.7-.1-1.3-.1M509.2 558.3l126.9 73.1V485.3l-126.9 73zM640 641c-.6 0-1.3 0-1.9-.6l-137.2-78.8c-1.3-.6-1.9-1.9-1.9-3.2s.6-2.6 1.9-3.2l137.8-79.5c1.3-.6 2.6-.6 3.2 0 1.3.6 1.9 1.9 1.9 3.2v159c0 1.3-.6 2.6-1.9 3.2-.6-.1-1.3-.1-1.9-.1M643.2 485.3v146.8L770.1 559l-126.9-73.7zM640 641c-.6 0-1.3 0-1.9-.6-1.3-.6-1.9-1.9-1.9-3.2V478.8c0-1.3.6-2.6 1.9-3.2 1.3-.6 2.6-.6 3.2 0l137.8 79.5c1.3.6 1.9 1.9 1.9 3.2s-.6 2.6-1.9 3.2L641.9 641H640M506 564.7v146.8l126.9-73.1L506 564.7zm-3.2 155.8c-.6 0-1.3 0-1.9-.6-1.3-.6-1.9-1.9-1.9-3.2V558.3c0-1.3.6-2.6 1.9-3.2 1.3-.6 2.6-.6 3.2 0l137.8 79.5c1.3.6 1.9 1.9 1.9 3.2s-.6 2.6-1.9 3.2l-137.2 79.5h-1.9M647.1 637.8L774 710.9V564.7l-126.9 73.1zm130.1 82.7c-.6 0-1.3 0-1.9-.6L638.1 641c-1.3-.6-1.9-1.9-1.9-3.2s.6-2.6 1.9-3.2l137.8-79.5c1.3-.6 2.6-.6 3.2 0 1.3.6 1.9 1.9 1.9 3.2v159c0 1.3-.6 2.6-1.9 3.2h-1.9M643.2 643.6v146.8l126.9-73.1-126.9-73.7zM640 800c-.6 0-1.3 0-1.9-.6-1.3-.6-1.9-1.9-1.9-3.2V637.8c0-1.3.6-2.6 1.9-3.2 1.3-.6 2.6-.6 3.2 0l137.2 79.5c1.3.6 1.9 1.9 1.9 3.2 0 1.3-.6 2.6-1.9 3.2L641.3 800H640M509.9 717.3l126.9 73.1V643.6l-126.9 73.7zM640 800c-.6 0-1.3 0-1.9-.6l-137.2-79.5c-1.3-.6-1.9-1.9-1.9-3.2s.6-2.6 1.9-3.2l137.2-78.8c1.3-.6 2.6-.6 3.2 0 1.3.6 1.9 1.9 1.9 3.2v159c0 1.3-.6 2.6-1.9 3.2 0-.1-.7-.1-1.3-.1M784.2 558.3l126.9 73.1V485.3l-126.9 73zM915 641c-.6 0-1.3 0-1.9-.6l-137.2-78.8c-1.3-.6-1.9-1.9-1.9-3.2s.6-2.6 1.9-3.2l137.8-79.5c1.3-.6 2.6-.6 3.2 0 1.3.6 1.9 1.9 1.9 3.2v159c0 1.3-.6 2.6-1.9 3.2-.6-.1-1.3-.1-1.9-.1M918.8 485.3v146.8l126.9-73.1-126.9-73.7zM915 641c-.6 0-1.3 0-1.9-.6-1.3-.6-1.9-1.9-1.9-3.2V478.8c0-1.3.6-2.6 1.9-3.2 1.3-.6 2.6-.6 3.2 0l137.8 79.5c1.3.6 1.9 1.9 1.9 3.2s-.6 2.6-1.9 3.2L916.9 641H915M781 564.7v146.8l126.9-73.1L781 564.7zm-3.2 155.8c-.6 0-1.3 0-1.9-.6-1.3-.6-1.9-1.9-1.9-3.2V558.3c0-1.3.6-2.6 1.9-3.2 1.3-.6 2.6-.6 3.2 0l137.8 79.5c1.3.6 1.9 1.9 1.9 3.2s-.6 2.6-1.9 3.2l-137.2 79.5h-1.9M922.1 637.8l126.9 73.1V564.7l-126.9 73.1zm130.1 82.7c-.6 0-1.3 0-1.9-.6L913.1 641c-1.3-.6-1.9-1.9-1.9-3.2s.6-2.6 1.9-3.2l137.8-79.5c1.3-.6 2.6-.6 3.2 0 1.3.6 1.9 1.9 1.9 3.2v159c0 1.3-.6 2.6-1.9 3.2h-1.9M918.8 643.6v146.8l126.9-73.1-126.9-73.7zM915 800c-.6 0-1.3 0-1.9-.6-1.3-.6-1.9-1.9-1.9-3.2V637.8c0-1.3.6-2.6 1.9-3.2 1.3-.6 2.6-.6 3.2 0l137.2 79.5c1.3.6 1.9 1.9 1.9 3.2 0 1.3-.6 2.6-1.9 3.2L916.3 800H915M784.9 717.3l126.9 73.1V643.6l-126.9 73.7zM915 800c-.6 0-1.3 0-1.9-.6l-137.2-79.5c-1.3-.6-1.9-1.9-1.9-3.2s.6-2.6 1.9-3.2l137.2-78.8c1.3-.6 2.6-.6 3.2 0 1.3.6 1.9 1.9 1.9 3.2v159c0 1.3-.6 2.6-1.9 3.2 0-.1-.7-.1-1.3-.1M639.4 300c11.5 0 21.2 9.6 21.2 21.2s-9.6 21.2-21.2 21.2-21.2-9.6-21.2-21.2c.6-11.6 9.6-21.2 21.2-21.2M639.4 141.7c11.5 0 21.2 9.6 21.2 21.2s-9.6 21.2-21.2 21.2-21.2-9.6-21.2-21.2c.6-12.3 9.6-21.2 21.2-21.2M639.4 457.7c11.5 0 21.2 9.6 21.2 21.2s-9.6 21.2-21.2 21.2-21.2-9.6-21.2-21.2c.6-11.6 9.6-21.2 21.2-21.2M639.4 616c11.5 0 21.2 9.6 21.2 21.2 0 11.5-9.6 21.2-21.2 21.2s-21.2-9.6-21.2-21.2c.6-11.6 9.6-21.2 21.2-21.2M362.4 141.7c11.5 0 21.2 9.6 21.2 21.2S374 184 362.4 184s-21.2-9.6-21.2-21.2c.1-12.2 9.1-21.1 21.2-21.1M362.4 616c11.5 0 21.2 9.6 21.2 21.2 0 11.5-9.6 21.2-21.2 21.2s-21.2-9.6-21.2-21.2c.1-11.6 9.1-21.2 21.2-21.2M502.8 379.5c11.5 0 21.2 9.6 21.2 21.2 0 11.5-9.6 21.2-21.2 21.2-11.5 0-21.2-9.6-21.2-21.2.1-11.6 9.7-21.2 21.2-21.2M777.8 379.5c11.5 0 21.2 9.6 21.2 21.2 0 11.5-9.6 21.2-21.2 21.2-11.5 0-21.2-9.6-21.2-21.2.1-11.6 9.7-21.2 21.2-21.2M502.8 220.5c11.5 0 21.2 9.6 21.2 21.2s-9.6 21.2-21.2 21.2c-11.5 0-21.2-9.6-21.2-21.2s9.7-21.2 21.2-21.2M777.8 220.5c11.5 0 21.2 9.6 21.2 21.2s-9.6 21.2-21.2 21.2c-11.5 0-21.2-9.6-21.2-21.2s9.7-21.2 21.2-21.2M502.8 537.2c11.5 0 21.2 9.6 21.2 21.2 0 11.5-9.6 21.2-21.2 21.2-11.5 0-21.2-9.6-21.2-21.2.1-11.6 9.7-21.2 21.2-21.2M777.8 537.2c11.5 0 21.2 9.6 21.2 21.2 0 11.5-9.6 21.2-21.2 21.2-11.5 0-21.2-9.6-21.2-21.2.1-11.6 9.7-21.2 21.2-21.2M915 141.7c11.5 0 21.2 9.6 21.2 21.2S926.5 184 915 184s-21.2-9.6-21.2-21.2c0-12.2 9.7-21.1 21.2-21.1M915 616c11.5 0 21.2 9.6 21.2 21.2 0 11.5-9.6 21.2-21.2 21.2-11.5 0-21.2-9.6-21.2-21.2S903.5 616 915 616"/></svg>