<svg xmlns="http://www.w3.org/2000/svg" viewBox="0 0 30.9 30.9" enable-background="new 0 0 30.9 30.9"><path d="M23.2 12.3v.5c0 5.1-3.9 11.1-11.1 11.1-2.2 0-4.2-.6-6-1.7.3 0 .6.1.9.1 1.8 0 3.5-.6 4.8-1.7-1.7 0-3.1-1.2-3.6-2.7.2 0 .5.1.7.1.4 0 .7 0 1-.1-1.6-.5-2.9-2-2.9-3.9v-.1c.5.3 1.1.5 1.8.5-1-.7-1.7-1.9-1.7-3.2 0-.7.2-1.4.5-2 1.9 2.4 4.8 3.9 8 4.1-.1-.3-.1-.6-.1-.9 0-2.1 1.7-3.9 3.9-3.9 1.1 0 2.1.5 2.8 1.2.9-.2 1.7-.5 2.5-.9-.3.9-.9 1.7-1.7 2.2.8-.1 1.5-.3 2.2-.6-.5.7-1.2 1.4-2 1.9M15.5 0C6.9 0 0 6.9 0 15.5 0 24 6.9 30.9 15.5 30.9c8.5 0 15.4-6.9 15.4-15.4C30.9 6.9 24 0 15.5 0"/></svg>