<svg xmlns="http://www.w3.org/2000/svg" xmlns:xlink="http://www.w3.org/1999/xlink" preserveAspectRatio="xMidYMid" width="16.65" height="31" viewBox="0 0 16.65 31">
  <defs>
    <style>
      .cls-1 {
        fill: #2b2c42;
        fill-rule: evenodd;
      }
    </style>
  </defs>
  <path d="M-0.012,16.859 L-0.012,11.348 L4.912,11.348 L4.912,7.289 C4.912,4.981 5.582,3.190 6.919,1.918 C8.259,0.646 10.041,0.009 12.268,0.009 C14.159,0.009 15.626,0.084 16.668,0.232 L16.668,5.148 L13.636,5.148 C12.529,5.148 11.784,5.372 11.398,5.819 C11.012,6.265 10.818,6.936 10.818,7.829 L10.818,11.348 L16.474,11.348 L15.722,16.859 L10.818,16.859 L10.818,30.991 L4.912,30.991 L4.912,16.859 L-0.012,16.859 Z" class="cls-1"/>
</svg>
