<svg xmlns="http://www.w3.org/2000/svg" xmlns:xlink="http://www.w3.org/1999/xlink" preserveAspectRatio="xMidYMid" width="28.44" height="26.84" viewBox="0 0 28.44 26.84">
  <defs>
    <style>
      .cls-1 {
        fill: #2b2c42;
        fill-rule: evenodd;
      }
    </style>
  </defs>
  <path d="M0.001,3.138 C0.001,4.026 0.313,4.770 0.939,5.371 C1.565,5.971 2.380,6.272 3.385,6.272 L3.411,6.272 C4.451,6.272 5.288,5.971 5.923,5.371 C6.557,4.770 6.874,4.026 6.874,3.138 C6.857,2.233 6.540,1.484 5.923,0.892 C5.306,0.300 4.486,0.004 3.464,0.004 C2.442,0.004 1.609,0.300 0.966,0.892 C0.322,1.484 0.001,2.233 0.001,3.138 ZM0.371,26.849 L6.478,26.849 L6.478,8.726 L0.371,8.726 L0.371,26.849 ZM9.835,26.849 L15.942,26.849 L15.942,16.717 C15.942,16.056 16.004,15.568 16.127,15.255 C16.391,14.645 16.788,14.128 17.317,13.701 C17.846,13.274 18.498,13.061 19.273,13.061 C21.317,13.061 22.340,14.428 22.340,17.161 L22.340,26.849 L28.447,26.849 L28.447,16.456 C28.447,13.775 27.803,11.747 26.517,10.371 C25.231,8.996 23.529,8.308 21.414,8.308 C19.018,8.308 17.176,9.327 15.889,11.363 L15.942,11.363 L15.942,8.726 L9.835,8.726 C9.888,9.875 9.888,15.916 9.835,26.849 Z" class="cls-1"/>
</svg>
