<svg xmlns="http://www.w3.org/2000/svg" xmlns:xlink="http://www.w3.org/1999/xlink" preserveAspectRatio="xMidYMid" width="28.44" height="23.38" viewBox="0 0 28.44 23.38">
  <defs>
    <style>
      .cls-1 {
        fill: #2b2c42;
        fill-rule: evenodd;
      }
    </style>
  </defs>
  <path d="M-0.002,20.730 C0.419,20.780 0.888,20.804 1.406,20.804 C4.112,20.804 6.525,19.963 8.641,18.283 C7.378,18.259 6.249,17.866 5.249,17.104 C4.251,16.343 3.564,15.372 3.191,14.190 C3.588,14.251 3.956,14.281 4.293,14.281 C4.809,14.281 5.322,14.214 5.828,14.080 C4.480,13.800 3.364,13.120 2.480,12.043 C1.595,10.965 1.153,9.714 1.153,8.288 L1.153,8.215 C1.969,8.679 2.848,8.928 3.788,8.964 C2.993,8.428 2.362,7.729 1.893,6.863 C1.422,5.998 1.188,5.060 1.188,4.049 C1.188,2.978 1.453,1.985 1.983,1.071 C3.438,2.886 5.209,4.339 7.296,5.429 C9.383,6.519 11.620,7.125 14.002,7.246 C13.905,6.784 13.858,6.334 13.858,5.894 C13.858,4.262 14.426,2.871 15.563,1.720 C16.700,0.569 18.074,-0.006 19.687,-0.006 C21.372,-0.006 22.790,0.614 23.946,1.857 C25.256,1.601 26.491,1.126 27.646,0.432 C27.201,1.832 26.346,2.917 25.083,3.684 C26.201,3.563 27.320,3.258 28.441,2.770 C27.633,3.964 26.659,4.981 25.517,5.822 C25.527,5.993 25.535,6.249 25.535,6.590 C25.535,8.172 25.306,9.754 24.848,11.330 C24.390,12.908 23.696,14.422 22.764,15.870 C21.832,17.321 20.722,18.603 19.435,19.716 C18.148,20.831 16.595,21.720 14.779,22.385 C12.960,23.048 11.018,23.380 8.949,23.380 C5.688,23.380 2.703,22.497 -0.002,20.730 Z" class="cls-1"/>
</svg>
