<?xml version="1.0" encoding="utf-8"?>
<!-- Generator: Adobe Illustrator 18.1.0, SVG Export Plug-In . SVG Version: 6.00 Build 0)  -->
<svg version="1.1" id="Layer_1" xmlns="http://www.w3.org/2000/svg" xmlns:xlink="http://www.w3.org/1999/xlink" x="0px" y="0px"
	 viewBox="-561 351 100 92" enable-background="new -561 351 100 92" xml:space="preserve">
<path fill="#FFFFFF" d="M-480.1,411.6c0-3.5-2.8-6.3-6.3-6.3h-0.1c-0.9-2.4-3.2-4.2-5.9-4.2c-0.1,0-0.2,0.1-0.4,0.1
	c-0.8-2.5-3.2-4.3-5.9-4.3c-0.7,0-1.4,0.2-2.1,0.4v-12.9c0-3.5-2.8-6.3-6.3-6.3s-6.3,2.8-6.3,6.3v18.7l-0.7,0.2
	c-0.8,0.3-7.7,2.7-7.7,8.3c0,0.5-0.1,1.4-0.2,2.5c-0.4,4.7-0.6,8.8,0.4,10.9c1.5,3.1,6.4,8.5,8.2,10.4v7.5h4.2v-8.4
	c0-0.5-0.2-1.1-0.6-1.4c-1.8-1.9-6.8-7.4-8-9.9c-0.6-1.2-0.2-6.5,0-8.8c0.1-1.2,0.2-2.3,0.2-2.9c0-1.9,2.6-3.4,4.2-4v4
	c0,0.1-0.1,1.4-1.5,2.8c-0.8,0.8-0.8,2.1,0,3c0.4,0.4,0.9,0.6,1.5,0.6c0.5,0,1.1-0.2,1.5-0.6c2.6-2.6,2.7-5.4,2.7-5.7v-27.2
	c0-1.2,0.9-2.1,2.1-2.1c1.2,0,2.1,0.9,2.1,2.1v18.8v8.4c0,1.2,0.9,2.1,2.1,2.1c1.2,0,2.1-0.9,2.1-2.1v-8.4c0-1.2,0.9-2.1,2.1-2.1
	c1.2,0,2.1,0.9,2.1,2.1v8.4c0,1.2,0.9,2.1,2.1,2.1c1.2,0,2.1-0.9,2.1-2.1v-6.3c1.2,0,2.1,0.9,2.1,2.1v6.3c0,1.2,0.9,2.1,2.1,2.1
	c1.2,0,2.1-0.9,2.1-2.1v-4.1c1,0.1,1.8,1,1.8,2.1c0.2,3,0.5,11.4,0,14.2c-0.2,1.5-3.1,4.8-7.2,6.8c-0.7,0.4-1.2,1.1-1.2,1.9v8.4h4.2
	v-7.1c3.9-2.2,7.8-5.9,8.3-9.3C-479.5,422.9-480,412.7-480.1,411.6z"/>
<path fill="#FFFFFF" d="M-461,351h-100v77.4h36.6c-0.3-0.5-0.6-1-0.8-1.5c-0.4-0.8-0.6-1.7-0.8-2.7h-30.8v-69h91.6v69h-10.5
	c-0.1,1.2-0.1,2.3-0.3,3.1c-0.1,0.4-0.2,0.7-0.3,1.1h15.2L-461,351L-461,351z"/>
<path fill="#FFFFFF" d="M-507,374c-1.2,0-2.1-0.9-2.1-2.1v-8.4c0-1.2,0.9-2.1,2.1-2.1c1.2,0,2.1,0.9,2.1,2.1v8.4
	C-504.9,373.1-505.8,374-507,374z"/>
<path fill="#FFFFFF" d="M-498.6,378.2c-0.5,0-1.1-0.2-1.5-0.6c-0.8-0.8-0.8-2.1,0-3l6.3-6.3c0.8-0.8,2.1-0.8,3,0
	c0.8,0.8,0.8,2.1,0,3l-6.3,6.3C-497.6,378-498.1,378.2-498.6,378.2z"/>
<path fill="#FFFFFF" d="M-515.4,378.2c-0.5,0-1.1-0.2-1.5-0.6l-6.3-6.3c-0.8-0.8-0.8-2.1,0-3c0.8-0.8,2.1-0.8,3,0l6.3,6.3
	c0.8,0.8,0.8,2.1,0,3C-514.3,378-514.8,378.2-515.4,378.2z"/>
<path fill="#FFFFFF" d="M-488.2,386.6h-6.3c-1.2,0-2.1-0.9-2.1-2.1s0.9-2.1,2.1-2.1h6.3c1.2,0,2.1,0.9,2.1,2.1
	S-487,386.6-488.2,386.6z"/>
<path fill="#FFFFFF" d="M-519.5,386.6h-6.3c-1.2,0-2.1-0.9-2.1-2.1s0.9-2.1,2.1-2.1h6.3c1.2,0,2.1,0.9,2.1,2.1
	S-518.4,386.6-519.5,386.6z"/>
</svg>
