<?xml version="1.0" encoding="utf-8"?>
<!-- Generator: Adobe Illustrator 18.1.0, SVG Export Plug-In . SVG Version: 6.00 Build 0)  -->
<svg version="1.1" id="Layer_1" xmlns="http://www.w3.org/2000/svg" xmlns:xlink="http://www.w3.org/1999/xlink" x="0px" y="0px"
	 viewBox="0 0 40 40" enable-background="new 0 0 40 40" xml:space="preserve">
<path fill="#231F20" d="M33.8,0H6.3C2.8,0,0,2.8,0,6.3v27.5C0,37.2,2.8,40,6.3,40h27.5c3.5,0,6.2-2.8,6.2-6.3V6.3
	C40,2.8,37.2,0,33.8,0z"/>
<path fill="#FFFFFF" d="M24.4,21h-2.8c0,4.5,0,10,0,10h-4.2c0,0,0-5.5,0-10h-2v-3.5h2v-2.3c0-1.6,0.8-4.2,4.2-4.2l3.1,0v3.4
	c0,0-1.9,0-2.2,0c-0.4,0-0.9,0.2-0.9,1v2.1h3.2L24.4,21z"/>
</svg>
