<?xml version="1.0" encoding="utf-8"?>
<!-- Generator: Adobe Illustrator 18.1.0, SVG Export Plug-In . SVG Version: 6.00 Build 0)  -->
<svg version="1.1" id="Layer_1" xmlns="http://www.w3.org/2000/svg" xmlns:xlink="http://www.w3.org/1999/xlink" x="0px" y="0px"
	 viewBox="-561 347 100 100" enable-background="new -561 347 100 100" xml:space="preserve">
<path fill="#FFFFFF" d="M-530.4,407.2l46.6-29.9c0,0,10.6-8.6,15.5-2.8c4.9,5.8,0.7,9.4-9.3,17l-44.2,31.4c0,0-8.3,6.2-14.3,0.6
	C-542.4,417.6-536,410.8-530.4,407.2z"/>
<path fill="#FFFFFF" d="M-465.3,380.9c0,0,0.8,3.9-3.1,7.5c-4,3.7-19.5,14.7-19.5,14.7l0.7-2.7
	C-487.2,400.4-465.5,386.5-465.3,380.9z"/>
<path fill="#FFFFFF" d="M-495.2,406.1l6.8-4.9c0,0-3.5,17.2-3.5,18.5c0,0-1.4,8.3-2.6,10.7c0,0-3.9,8.9-5,9.2c0,0-0.9-2.3,0-8.9
	c0.9-6.5,3.3-14.8,3.3-14.8s1.2-6-0.4-7.3l-0.6-1.2L-495.2,406.1z"/>
<path fill="#FFFFFF" d="M-488.5,407.7c0,0,4.2,7.6,6.2,7.8h1.1c0,0-1.1,3.1,0.4,4.8c1.5,1.7,4.2,1.2,4.2,1.2s-1.4,2.8,0,5.3
	c1.4,2.5,4.1,1.2,4.1,1.2s-1.2,2.7,0,4.9c1.2,2.2,5,1.4,5.3,1.2c0.3-0.1,0.9-0.2,0.9-0.2s-0.5,2.3,1.6,0.5c0,0,2.1-3.3-1.1-3
	c0,0-7.1,2.6-3.9-2.3c0,0,4.4-5.9-2.4-4c0,0-5.2,3.1-2-2.2c0,0,4.6-5.7-2.3-4.4c0,0-4.3,1.7-2.2-2.2c0,0,4-5-1.2-4
	c0,0-3.9,3.7-4.1-2.9c0,0,0.3-0.9,1.2-1.5c0.9-0.5-0.2-2.1-0.4-2.5c-0.2-0.4-2.4-2.9-2.4-2.9l-2.5,1.8l-0.6,2.8"/>
<path fill="#FFFFFF" d="M-471,371.3l-12.9-15c0,0-4.4-4.1-5.4-4.5s-3.5-2-3.9,1.4c-0.4,3.3-0.4,5.7-0.4,5.7s0.3,3.3,1.7,3.5
	c1.5,0.2,4-2.5,4-2.5s1.5-1.5,4,3.2l3.1,3.4c0,0,1.1,4-2.7,3.4c-0.1,0-0.1,0-0.2,0c-4.1-0.7-3.5-3.6-3.5-3.6s-1.5-0.7-1.1,2.1
	c0.4,2.8,2.2,4.4,2.8,4.9l1.7,1.5C-483.6,374.9-477.9,370.1-471,371.3z"/>
<path fill="#FFFFFF" d="M-490.2,379.4c0,0,0.5,0.5-10.4-1.9c-9.9-2.2-19.1-4.1-19.1-4.1s-17.3-3.6-20.8-9.2c0,0-0.7-0.8,3.2-1.7
	c3.9-0.9,8.9-2.7,19.1,0c10.2,2.7,23.5,6.1,23.5,6.1l5.4,1.9c0,0,2,3.1,4.1,5.4L-490.2,379.4z"/>
<path fill="#FFFFFF" d="M-526.2,402.6l5.4-17.9c0,0,0.7-6-0.6-8.6c-1.3-2.6-4.9,4.4-5.3,5.1c0,0-3.2,8.1-6.4,19.2l0.7,3.6
	c0,0-1.3,1.1,0.8,0.9c0,0,0.7,0.7,0.5,1.1L-526.2,402.6z"/>
<path fill="#FFFFFF" d="M-539.8,416.4c0,0-0.2,1.6-1.7-0.1c-1.5-1.7-9.2-11.9-9.7-12.3c-0.6-0.4-6.2-9.3-6.5-11.7c0,0,0.7-1,3.1-2
	l1.7-0.8c0,0,0.7-0.7,2,0.8c1.3,1.5,3.2,2.5,3.2,2.5s-1,6.9,3.4,10.4c0,0,4.1,1.8,6.7,0c2.6-1.8,0.5-1.9,0.5-1.9l-0.1-0.8
	c0,0,0.9-0.6,2.5,1l0.7,0l0.4,2.3c0,0-1.5,2,0.7,2l0.3,1C-532.8,406.9-539.8,410.6-539.8,416.4z"/>
<path fill="#FFFFFF" d="M-497.9,408.1c0,0,0.9,0.5,0.5,1.6l-26.2,17.9c0,0-8.9,5.7-14.3-4.6c0,0,5.4,7.4,13.8,3.3L-497.9,408.1z"/>
<path fill="#FFFFFF" d="M-532.6,428.6c0,0-1.6,0.5-1,2c0.6,1.6,1.6,1.5,2.5,0.7c0.9-0.8,0.4-1.5,0-2.3
	C-531.5,428.3-532.6,428.6-532.6,428.6z"/>
<path fill="#FFFFFF" d="M-531.2,432.8c1-0.2,1-1.6,1-1.6c1.2,0.9,1.7,3.1,1.9,7c0.2,4-3.8,3.6-3.8,3.6s-3.3,0.4-3.9-5.5
	c-0.6-5.9,1.6-6.1,1.6-6.1C-534,433.3-532.1,433.1-531.2,432.8z M-534.3,438.7c1.4,3.4,3.9,1.5,3.9,1.5c2.3-0.7,0.5-6.9,0.5-6.9
	c-2.3,2.7-4.9-0.5-4.9-0.5S-535.7,435.3-534.3,438.7z"/>
</svg>
