<?xml version="1.0" encoding="utf-8"?>
<!-- Generator: Adobe Illustrator 18.1.0, SVG Export Plug-In . SVG Version: 6.00 Build 0)  -->
<svg version="1.1" id="Layer_1" xmlns="http://www.w3.org/2000/svg" xmlns:xlink="http://www.w3.org/1999/xlink" x="0px" y="0px"
	 viewBox="-577 347 67.9 100" enable-background="new -577 347 67.9 100" xml:space="preserve">
<path fill="#FFFFFF" d="M-532.3,432.4v0.9c0,0.8-0.6,1.4-1.4,1.4h-18.8c-0.8,0-1.4-0.6-1.4-1.4v-0.9c0-0.8,0.6-1.4,1.4-1.4h18.8
	C-532.9,431-532.3,431.7-532.3,432.4z"/>
<path fill="#FFFFFF" d="M-532.3,426.8v0.9c0,0.8-0.6,1.4-1.4,1.4h-18.8c-0.8,0-1.4-0.6-1.4-1.4v-0.9c0-0.8,0.6-1.4,1.4-1.4h18.8
	C-532.9,425.4-532.3,426-532.3,426.8z"/>
<path fill="#FFFFFF" d="M-550.1,442.3h14.1c0,2.8-3.8,4.7-7,4.7C-546.4,447-550.1,445.1-550.1,442.3z"/>
<path fill="#FFFFFF" d="M-543.1,347c-18.7,0-33.9,15.2-33.9,34c0,11.7,5.9,22.4,15.7,28.6c0.9,0.6,1.6,2.3,2.4,4
	c0.9,2.1,1.8,4.4,3.6,6.5c2.9,3.3,7.5,3.3,12.2,3.3c5.6,0,9.5-0.2,12.3-3.4c1.9-2.1,2.9-4.5,3.8-6.6c0.8-1.8,1.5-3.5,2.5-4.1
	c9.7-6.3,15.4-16.9,15.4-28.4C-509.1,362.2-524.3,347-543.1,347z M-543.2,418.1c-0.6-6.2-1.8-14.4-3.5-20.6c1.5-0.9,2.8-1.8,4-2.9
	c0.9,0.8,1.8,1.6,2.7,2.3c0.4,0.3,0.8,0.5,1.2,0.8c-0.7,3.4-1.3,7.7-2.1,13.2c-0.4,2.5-0.7,5-1,7.2c-0.4,0-0.7,0-1.1,0L-543.2,418.1
	L-543.2,418.1z M-544.3,384.8c0.1-0.1,0.5-0.4,1.7-0.4h0.1c0.5,0,1.2,0.1,1.3,0.5c0.2,0.7-0.2,2.1-1.4,3.8
	C-543.9,386.8-544.4,385.4-544.3,384.8z M-527.4,404.9c-2.3,1.5-3.4,4-4.5,6.5c-0.8,1.8-1.6,3.7-2.9,5.1c-0.6,0.7-1.6,1.1-3.1,1.3
	c0.3-2,0.6-4.2,0.9-6.4c0.5-3.6,1.2-8.5,2-12.5c1.6,0.2,3.1-0.2,4.1-0.7c1.8-0.9,3-2.6,2.9-4.5c0-1.3-0.6-3.7-4.4-5.4
	c-0.8-0.4-1.8-0.3-2.6,0.1c-1.2,0.7-2.1,2.2-2.9,5c-0.8-0.6-1.5-1.2-2.1-1.8c2.2-2.7,3.2-5.6,2.5-8c-0.6-2.1-2.6-3.3-5.2-3.4
	c-3.8,0-5,2-5.4,3.1c-0.8,2.4,0.5,5.3,2.6,8.1c-0.7,0.7-1.6,1.3-2.6,1.9c-1.1-2.7-2.3-4.7-3.7-5.4c-1.1-0.5-2.3-0.5-3.4,0.3
	c-3.5,2.3-3.7,5.6-2.4,7.7c1.3,2,3.9,3.2,7,2.8c1.2,4.4,2.3,10.8,3.2,19.1c-2.2-0.2-3.3-0.5-4-1.4c-1.2-1.4-2-3.3-2.7-5
	c-1-2.5-2.1-5-4.4-6.5c-8.3-5.3-13.3-14.3-13.3-24.2c0-15.8,12.9-28.6,28.6-28.6s28.6,12.8,28.6,28.6
	C-514.5,390.7-519.3,399.7-527.4,404.9z M-534.2,395.1c0.3-1.1,0.6-2,0.9-2.6c1,0.6,1.3,1.2,1.3,1.4c0,0.3-0.3,0.6-0.7,0.8
	C-533.1,395-533.5,395.1-534.2,395.1C-534.1,395.1-534.1,395.1-534.2,395.1z M-551.7,395c-1.2,0-2-0.5-2.4-1c-0.5-0.8,0.3-1.6,0.9-2
	C-552.7,392.4-552.2,393.4-551.7,395z"/>
<path fill="#FFFFFF" d="M-532.3,438.1v0.9c0,0.8-0.6,1.4-1.4,1.4h-18.8c-0.8,0-1.4-0.6-1.4-1.4v-0.9c0-0.8,0.6-1.4,1.4-1.4h18.8
	C-532.9,436.7-532.3,437.3-532.3,438.1z"/>
</svg>
