<?xml version="1.0" encoding="utf-8"?>
<!-- Generator: Adobe Illustrator 18.1.0, SVG Export Plug-In . SVG Version: 6.00 Build 0)  -->
<svg version="1.1" id="Your_Icon" xmlns="http://www.w3.org/2000/svg" xmlns:xlink="http://www.w3.org/1999/xlink" x="0px" y="0px"
	 viewBox="-561 347 100 100" enable-background="new -561 347 100 100" xml:space="preserve">
<g>
	<path fill="#FFFFFF" d="M-490.6,355.4c0.1,0,0.2,0,0.4,0c-0.9,4.7-1.4,9.7-2.4,14.2c-1.2,0.2-2.9-2.2-4.3-3
		c-7.8,10-16.1,19.3-22.8,30.9c-0.8,1.3-2.4,3.7-2.4,5.1c0,3.1,4.7,6.4,6.9,8.2c1.4,1.2,2.6,2.2,4.3,3.4c1.5,1,4,1.7,3.7,3.7
		c-0.5,3.5-4.9,0-6.7-1.3c-4-2.8-11.9-8.2-12-13.9c0-3.6,3.3-8.1,5.2-11c6.6-9.8,13.7-18.5,20.8-27.5c-1.3-1.4-3.1-2.1-4.1-3.7
		C-499.5,358.9-495.1,357.1-490.6,355.4z"/>
	<path fill="#FFFFFF" d="M-521.9,370.8c1.5-1.6,2.7-3.4,4.1-5.1c1.1,0.4,1.6,1.4,2.6,1.9c-1.4,1.9-2.8,3.7-4.3,5.4
		c1.1,1.7,2.7,2.9,4.1,4.3c-0.6,1-1.4,1.9-2.4,2.4c-1.1-1.4-2.6-2.5-3.7-3.9c-0.7,0.6-1.5,2-2.6,3.4c-0.7,0.9-2.2,3.1-2.6,3.2
		c-1,0.1-2-1-2.6-1.9c1.7-2.4,3.6-4.7,5.4-6.9c-1.8-2-3.7-3.8-5.6-5.6c0.4-1.1,1.5-1.5,2.1-2.4C-525.3,367-523.9,369.2-521.9,370.8z
		"/>
	<path fill="#FFFFFF" d="M-538,369.3c-0.9,0.8-1.7,1.5-2.8,2.6c-0.5,0.5-2.6,2.2-2.6,2.6c0,0.7,2.1,1.7,2.6,2.1
		c1.1,0.9,1.6,1.6,2.6,2.1c-0.2,1.2-1,1.6-1.7,2.6c-1.9-1.5-3.9-2.9-5.6-4.5c-1.5,1.4-3,2.8-4.3,4.3c-1-0.5-1.7-1.3-2.2-2.2
		c1.4-1.2,2.7-2.5,3.9-3.9c-2.1-1.9-4.4-3.5-6.6-5.2c0.4-1,1.2-1.5,1.7-2.4c2.4,1.7,4.7,3.6,6.9,5.4c2.2-1.6,3.9-3.7,5.8-5.6
		C-539.2,367.5-538.5,368.3-538,369.3z"/>
	<path fill="#FFFFFF" d="M-469.6,369.3c-1.9,1.6-3.5,3.6-5.4,5.2c0.6,0.5,1.5,1.4,2.6,2.2c0.8,0.6,2.7,1.5,2.8,2.1
		c0.1,0.9-0.3,1.8-1.9,2.4c-1.1-0.9-1.7-1.3-2.8-2.2c-0.4-0.3-2.3-2.3-2.8-2.2c-1.1,0-3.2,4.3-4.3,4.3c-1,0-1.7-1.2-2.2-2.1
		c1.2-1.5,2.7-2.6,3.9-4.1c-2-1.9-4.3-3.5-6.6-5.2c0.4-1.1,1.1-1.8,1.7-2.4c2.5,1.7,4.7,3.5,6.9,5.4c2.2-1.6,3.9-3.7,5.8-5.6
		C-470.9,367.5-470.1,368.3-469.6,369.3z"/>
	<path fill="#FFFFFF" d="M-489.5,389.5c0.8,0.3,2.2,1.3,2.2,2.1c0.1,1.2-5.2,4.3-5.4,5.6c1.7,1.5,3.4,2.9,5.2,4.1
		c-0.4,1-1.2,1.5-1.7,2.4c-2.1-1.2-3.8-2.8-5.6-4.3c-1.8,1.2-3,2.8-4.5,4.3c-0.8-0.9-2.2-1.3-2.2-2.1c0-0.9,3.7-3.3,4.1-4.1
		c-2.1-1.9-4.4-3.5-6.6-5.2c0.4-1.1,1-1.8,1.9-2.4c2.2,1.9,4.6,3.5,6.7,5.4C-493.3,393.4-491.3,391.5-489.5,389.5z"/>
	<path fill="#FFFFFF" d="M-493,415.1c7.1-1.1,11.5,4.4,11.6,10.3c0.1,5.9-3.6,10.6-7.7,12.2c-6.5,2.5-12.7-2.6-13.5-8.1
		C-503.5,422.6-498.8,416-493,415.1z M-493.8,420.4c-6.4,1.1-4.1,14.2,3.9,12.4C-483.7,430-487,419.2-493.8,420.4z"/>
</g>
</svg>
