<?xml version="1.0" encoding="utf-8"?>
<!-- Generator: Adobe Illustrator 18.1.0, SVG Export Plug-In . SVG Version: 6.00 Build 0)  -->
<svg version="1.1" id="Layer_1" xmlns="http://www.w3.org/2000/svg" xmlns:xlink="http://www.w3.org/1999/xlink" x="0px" y="0px"
	 viewBox="0 0 40 40" enable-background="new 0 0 40 40" xml:space="preserve">
<path fill="#231F20" d="M33.8,0H6.3C2.8,0,0,2.8,0,6.3v27.5C0,37.2,2.8,40,6.3,40h27.5c3.5,0,6.2-2.8,6.2-6.3V6.3
	C40,2.8,37.2,0,33.8,0z"/>
<path fill="#FFFFFF" d="M13.9,18.6H7.1c0.1,0.6,0.4,1.1,1,1.3H13C13.5,19.7,13.7,19.2,13.9,18.6z"/>
<path fill="#FFFFFF" d="M27.1,19.9H32c0.6-0.2,0.9-0.7,1-1.3h-6.8C26.3,19.2,26.6,19.7,27.1,19.9z"/>
<path fill="#FFFFFF" d="M24.3,17.9v-1.4c0.7,0.1,1.3,0.3,1.6,0.5c0.2,0.2,0.4,0.4,0.5,0.7H33c-0.1-1.2-0.6-2.6-1.1-3.1
	C30,12.2,20,12.4,20,12.4s-10-0.2-11.9,2.2c-0.5,0.5-1,1.9-1.1,3.1h6.7c0.1-0.3,0.2-0.5,0.5-0.7c0.3-0.2,0.9-0.3,1.6-0.5v1.4L14,20
	l-2.6,6.5v1.3v0.8c0,0.4,0.3,0.8,0.7,0.8H20h7.9c0.4,0,0.7-0.3,0.7-0.8v-0.8v-1.3L26.1,20L24.3,17.9z M22.9,16.4v1.3h-5.7v-1.3
	C18.6,16.2,21.4,16.2,22.9,16.4z M20,26.4c-1.9,0-3.5-1.6-3.5-3.6c0-2,1.6-3.6,3.5-3.6s3.5,1.6,3.5,3.6C23.5,24.8,22,26.4,20,26.4z"
	/>
</svg>
