<?xml version="1.0" encoding="utf-8"?>
<!-- Generator: Adobe Illustrator 18.1.0, SVG Export Plug-In . SVG Version: 6.00 Build 0)  -->
<svg version="1.1" id="Layer_1" xmlns="http://www.w3.org/2000/svg" xmlns:xlink="http://www.w3.org/1999/xlink" x="0px" y="0px"
	 viewBox="0 0 40 40" enable-background="new 0 0 40 40" xml:space="preserve">
<path fill="#231F20" d="M33.8,0H6.3C2.8,0,0,2.8,0,6.3v27.5C0,37.2,2.8,40,6.3,40h27.5c3.5,0,6.2-2.8,6.2-6.3V6.3
	C40,2.8,37.2,0,33.8,0z"/>
<rect x="11.3" y="17.5" fill="#FFFFFF" width="4.3" height="12.9"/>
<path fill="#FFFFFF" d="M13.4,15.8L13.4,15.8c-1.5,0-2.4-1-2.4-2.2c0-1.3,1-2.2,2.4-2.2c1.5,0,2.4,1,2.4,2.2
	C15.9,14.8,14.9,15.8,13.4,15.8z"/>
<path fill="#FFFFFF" d="M31,30.4h-4.3v-6.9c0-1.7-0.6-2.9-2.2-2.9c-1.2,0-1.9,0.8-2.2,1.6c-0.1,0.3-0.1,0.7-0.1,1v7.2h-4.3
	c0,0,0.1-11.7,0-12.9h4.3v1.8c0.6-0.9,1.6-2.1,3.9-2.1c2.8,0,4.9,1.8,4.9,5.8V30.4z"/>
</svg>
