<?xml version="1.0" encoding="utf-8"?>
<!-- Generator: Adobe Illustrator 18.1.0, SVG Export Plug-In . SVG Version: 6.00 Build 0)  -->
<svg version="1.1" id="Layer_1" xmlns="http://www.w3.org/2000/svg" xmlns:xlink="http://www.w3.org/1999/xlink" x="0px" y="0px"
	 viewBox="0 0 40 40" enable-background="new 0 0 40 40" xml:space="preserve">
<path fill="#231F20" d="M33.8,0H6.3C2.8,0,0,2.8,0,6.3v27.5C0,37.2,2.8,40,6.3,40h27.5c3.5,0,6.2-2.8,6.2-6.3V6.3
	C40,2.8,37.2,0,33.8,0z"/>
<path fill="#FFFFFF" d="M7.8,13.1v17h25v-17H7.8z M31.8,14.8l-7.5,6.6l7.5,7.3v0.4h-1l-7.3-7l-3.2,2.8l-3.2-2.8l-7.3,7h-1v-0.4
	l7.5-7.3l-7.5-6.6v-0.6h0.8l10.7,9.4L31,14.2h0.8V14.8z"/>
</svg>
