<?xml version="1.0" encoding="utf-8"?>
<!-- Generator: Adobe Illustrator 18.1.0, SVG Export Plug-In . SVG Version: 6.00 Build 0)  -->
<svg version="1.1" id="Layer_1" xmlns="http://www.w3.org/2000/svg" xmlns:xlink="http://www.w3.org/1999/xlink" x="0px" y="0px"
	 viewBox="0 0 1000 360" enable-background="new 0 0 1000 360" xml:space="preserve">
<g opacity="0.75">
	<g>
		<g>
			<polyline fill="none" stroke="#FFFFFF" stroke-width="0.5" stroke-miterlimit="10" points="82.3,91 140.7,22.4 158.5,11.4 
				145.3,43.9 210.3,14.1 131.3,91.8 137.4,97.1 149.4,94.2 148.9,131 149,122.8 247.5,23.4 224.3,92.3 210.9,125.2 261,68.4 
				246.2,103.3 215.8,160.3 241.4,138.2 298.2,88.7 235.1,175 245.4,174.5 251.1,180.4 283.5,165.5 338.3,102 328.4,130 
				308.3,172.4 287.3,216.1 305.2,204.7 312.2,208.9 389.7,177.1 361.9,226.6 330,175.3 305,139.4 292.1,129.9 293.5,152 326,242.2 
				256.4,134.3 304.5,232.9 290.8,221.6 301.7,282.9 290.2,276.6 283,279.6 283,298.5 262.8,299.1 233.1,234.3 220.9,226.4 
				183.2,202.6 165.5,182.6 161.1,191.9 174.3,239.7 169.3,266.2 149.7,223.6 131.2,201.9 133.1,224.9 110.2,193.5 121,236.1 
				121.1,255.4 114.1,258.8 138.9,332.2 81.2,290.3 116.2,272.1 137.5,277.6 122.5,257.2 124.9,249.2 149.3,256.9 75.6,194.5 
				87.3,193.2 81.7,179.5 101.7,184.1 153.4,211.3 125.1,181.4 138.2,181 135.7,169.6 130.9,156.4 242.7,213.5 219.6,187.3 
				141.9,135.2 252.5,191.4 143.5,114.2 211.4,142.6 212.1,133.4 225.7,133.4 291.8,162.4 249.2,130.8 290.3,141.9 195.1,70 
				219.4,80.4 168,44.4 211.1,55 311.8,47.9 243.7,64 276.5,135.9 239.2,93.8 226.5,83.2 170.5,23.9 235.3,145.8 221.6,132.7 
				161,62.1 159.4,78.6 153.1,83.6 154.2,107.1 134.7,79.4 153.1,131.9 111.2,62.6 157.3,183.4 137.5,155.2 97.6,117.2 127.6,130.9 
				83.4,183.8 103.7,175.5 99.5,190.5 141.9,161.4 182.4,134.1 165,161.5 129.3,206.2 149.7,198 171.9,187.9 129.6,239 252.8,150.8 
				233,180.4 161.7,241.5 226.7,208.4 161.6,282 257,201.7 257.3,212.4 175.4,302 236.7,272.3 191.3,308.9 294.1,291.1 280.6,206.8 
				210.6,302.3 252.3,205.9 238.3,219.7 208.3,290.8 219.8,223.7 205.3,238.8 157,309.9 214.6,174.6 152.1,280.9 174.5,187 133,268 
				160.5,180 114.2,272.9 151.2,161.7 108.8,245 96.1,255.5 114.1,190.6 107.8,185.7 101.6,180.1 88.7,191.1 82.4,191.8 
				108.1,250.7 66.2,117.9 99,173 108,174.9 127.3,207.7 97.6,111.6 154.2,238.4 148.1,194.8 170.3,236.4 148.4,145.5 165.2,170.8 
				160,129.9 180.6,166.6 216.6,194.8 220.5,181.3 231.7,189.9 231.8,165.1 240.7,166.6 262.8,207.9 258.6,170.3 245.7,106.1 
				260.8,126.6 278.5,118.7 310,188.2 320.1,193.4 303.1,117.3 336.1,191.3 314.4,100.9 327.5,115 327,88.4 330.2,72.8 333.6,57.9 
				352,88.1 403.3,55.7 381,114 418.2,122.7 338.8,128.5 425.2,139.4 357,145.2 379.2,154 418.5,163.2 340.6,168.7 389.6,178.4 
				368.9,185.7 308.6,191.5 303.6,199.4 418.1,210.9 333.9,216.5 390,226.5 310.5,231.7 339.9,240.8 390.9,250.6 346.1,275.4 
				340.2,283.2 295.1,289.6 353.2,283.9 390,237 340.1,298 360.7,245.5 346.6,267.5 316.6,288.4 354.4,217.1 288.7,295.3 
				262.5,299.1 286.4,274.3 324.3,203 257.3,269.5 324.4,179.4 262.4,222.2 311.9,169.4 256.7,204.9 307.7,150.6 285.6,162.9 
				213.9,216.3 297.5,126.4 171.9,218.5 278.5,123.6 217.7,165.1 261.1,106.2 154.3,190.8 149.7,184 173.4,146.5 172.9,135.3 
				196,99.2 159.8,106.9 198.8,72.6 156.3,87.3 125.3,128.4 108.5,134.9 121.6,89.8 89.1,113.4 93.8,96.6 98,80.2 92.6,47.7 
				99.5,74.9 64.8,78.1 145.9,97.6 69.3,95 145.7,113.8 144.1,129.5 147,138 38.1,130.8 127.9,151.5 116.2,158 69.1,159.5 
				77.2,168.7 56.2,173.9 47.5,180.7 34.7,187 150,211.3 36,203.4 42.2,212.4 99.1,208.9 127.7,270 94.3,208.9 79.3,174 78.4,159.1 
				108.4,188 130.5,205.8 99.7,148.4 113.8,154.8 161.2,208.3 205.4,231.6 214.5,230.8 221.4,227 174.1,172.2 236.3,220.8 
				152.5,118.1 246.6,208.2 167.5,112.1 237,167.4 248.7,170.3 229.4,129.3 223.8,107.7 248,128.5 292.9,161.6 261,119.6 254,96.1 
				244.5,69 323.2,150.2 256.8,59.2 309,102.7 341.6,90.6 303.8,84.4 318.8,54 285,81.2 299.4,51.5 252.9,79.6 220,105.7 
				282.7,33.2 247.7,47.7 175.1,79.1 253.4,15.6 255.9,0 226.5,22 219.3,28.6 236.3,32.9 222.5,38 226.3,47 139.3,33.2 233.8,64.8 
				175.2,57.1 135,56.7 214.8,85.1 143.1,74.6 262.1,111.4 200.6,99.2 212.6,117.1 207.5,116.9 166.9,120.3 254.4,150.4 
				110.2,131.7 245.3,164.7 101.8,146.1 235.9,178.9 118.9,166 139.2,178.4 98.9,178 121.8,191 172.6,209.9 143.1,211.8 152,221.8 
				212.9,238.9 183.6,244.7 225.1,276.2 203.5,279.7 225.3,292.4 213.2,298 209.6,309.3 144,285 174.5,318 122.3,296.6 149.5,310.6 
				155.2,308.1 159.7,360 156.3,336.9 166.6,339 168.5,325.6 148.1,252.8 148.8,237.2 214,358.5 219.8,352.2 229.4,319.5 
				197.6,225.9 214.3,239.6 245.8,299.1 254.8,298.6 252.1,276.9 239.3,218.1 241,204.4 302.1,296.3 306.2,320.5 307.3,305.7 
				315,302.9 299.1,205 338.1,278 325.5,219.6 320.3,211.6 373.8,293 381.4,271.8 363.3,221.5 336.3,155.2 411.7,264.9 418.3,238.4 
				321,202.9 391.6,124.3 358.4,271.1 351.1,267.7 364.9,138.3 342.8,210.2 344.9,158.4 341.5,134.9 324.1,183 304.8,240.5 
				309.6,175.4 313,116.9 284.1,223.4 296.2,121 277,178.3 245.6,236.6 259.9,122.9 236,203.9 242.1,132 215.1,229.2 208.1,224.1 
				221.9,112.5 174,222.7 176,172 165.8,182.9 161.1,110.5 156.1,95.2 138.2,201.6 143.8,131.9 131.8,96.3 124,95.2 115.9,151.9 
				111.2,135.1 103.1,79.3 91.6,97.1 78.9,177.1 70.3,179.9 62,181.7 64,74.7 25,100.6 111.8,138.8 75,153.4 42.2,159.6 48.8,168.3 
				37.4,175.8 41.8,184.4 0,190 104,204.8 5.6,206.9 54.2,218.2 50.7,224.8 54.7,194.5 66.7,240.9 78,280 85.6,275.2 86.5,192.4 
				102.6,286.7 103.4,202.5 118,279.4 121.9,231.8 134.6,285.8 136.9,219.4 148.9,284.7 154.9,261.2 166.8,306.5 174,296.4 
				171.5,156.4 207.3,284.8 212,227.8 214,158.1 225,193.7 236.3,231.7 236.5,140.5 252.8,237.7 252.8,144.2 277.1,194.9 
				284.1,183.8 295.1,218.2 305.8,268.3 307.4,175 322.7,278.8 326.6,212.1 338.6,277.1 343.8,225.9 354.7,278.1 358.6,211.5 
				368.7,236.4 370.9,168 376.9,144.3 388.7,189.4 415.9,199.2 411.5,193.9 418.3,179.8 423.8,150.1 459.9,264.1 461.7,191.4 
				474.5,247.9 481,230 497.3,219.9 499,174 			"/>
			<polyline fill="none" stroke="#FFFFFF" stroke-width="0.5" stroke-miterlimit="10" points="82.3,91 140.7,22.4 158.5,11.4 
				145.3,43.9 210.3,14.1 131.3,91.8 137.4,97.1 149.4,94.2 148.9,131 149,122.8 247.5,23.4 224.3,92.3 210.9,125.2 261,68.4 
				246.2,103.3 215.8,160.3 241.4,138.2 298.2,88.7 235.1,175 245.4,174.5 251.1,180.4 283.5,165.5 338.3,102 328.4,130 
				308.3,172.4 287.3,216.1 305.2,204.7 312.2,208.9 389.7,177.1 361.9,226.6 330,175.3 305,139.4 292.1,129.9 293.5,152 326,242.2 
				256.4,134.3 304.5,232.9 290.8,221.6 301.7,282.9 290.2,276.6 283,279.6 283,298.5 262.8,299.1 233.1,234.3 220.9,226.4 
				183.2,202.6 165.5,182.6 161.1,191.9 174.3,239.7 169.3,266.2 149.7,223.6 131.2,201.9 133.1,224.9 110.2,193.5 121,236.1 
				121.1,255.4 114.1,258.8 138.9,332.2 81.2,290.3 116.2,272.1 137.5,277.6 122.5,257.2 124.9,249.2 149.3,256.9 75.6,194.5 
				87.3,193.2 81.7,179.5 101.7,184.1 153.4,211.3 125.1,181.4 138.2,181 135.7,169.6 130.9,156.4 242.7,213.5 219.6,187.3 
				141.9,135.2 252.5,191.4 143.5,114.2 211.4,142.6 212.1,133.4 225.7,133.4 291.8,162.4 249.2,130.8 290.3,141.9 195.1,70 
				219.4,80.4 168,44.4 211.1,55 311.8,47.9 243.7,64 276.5,135.9 239.2,93.8 226.5,83.2 170.5,23.9 235.3,145.8 221.6,132.7 
				161,62.1 159.4,78.6 153.1,83.6 154.2,107.1 134.7,79.4 153.1,131.9 111.2,62.6 157.3,183.4 137.5,155.2 97.6,117.2 127.6,130.9 
				83.4,183.8 103.7,175.5 99.5,190.5 141.9,161.4 182.4,134.1 165,161.5 129.3,206.2 149.7,198 171.9,187.9 129.6,239 252.8,150.8 
				233,180.4 161.7,241.5 226.7,208.4 161.6,282 257,201.7 257.3,212.4 175.4,302 236.7,272.3 191.3,308.9 294.1,291.1 280.6,206.8 
				210.6,302.3 252.3,205.9 238.3,219.7 208.3,290.8 219.8,223.7 205.3,238.8 157,309.9 214.6,174.6 152.1,280.9 174.5,187 133,268 
				160.5,180 114.2,272.9 151.2,161.7 108.8,245 96.1,255.5 114.1,190.6 107.8,185.7 101.6,180.1 88.7,191.1 82.4,191.8 
				108.1,250.7 66.2,117.9 99,173 108,174.9 127.3,207.7 97.6,111.6 154.2,238.4 148.1,194.8 170.3,236.4 148.4,145.5 165.2,170.8 
				160,129.9 180.6,166.6 216.6,194.8 220.5,181.3 231.7,189.9 231.8,165.1 240.7,166.6 262.8,207.9 258.6,170.3 245.7,106.1 
				260.8,126.6 278.5,118.7 310,188.2 320.1,193.4 303.1,117.3 336.1,191.3 314.4,100.9 327.5,115 327,88.4 330.2,72.8 333.6,57.9 
				352,88.1 403.3,55.7 381,114 418.2,122.7 338.8,128.5 425.2,139.4 357,145.2 379.2,154 418.5,163.2 340.6,168.7 389.6,178.4 
				368.9,185.7 308.6,191.5 303.6,199.4 409.4,186.7 333.9,216.5 390,226.5 310.5,231.7 339.9,240.8 390.9,250.6 346.1,275.4 
				340.2,283.2 295.1,289.6 353.2,283.9 390,237 340.1,298 360.7,245.5 346.6,267.5 316.6,288.4 354.4,217.1 288.7,295.3 
				262.5,299.1 286.4,274.3 324.3,203 257.3,269.5 324.4,179.4 262.4,222.2 311.9,169.4 256.7,204.9 307.7,150.6 285.6,162.9 
				213.9,216.3 297.5,126.4 171.9,218.5 278.5,123.6 217.7,165.1 261.1,106.2 154.3,190.8 149.7,184 173.4,146.5 172.9,135.3 
				196,99.2 159.8,106.9 198.8,72.6 156.3,87.3 125.3,128.4 108.5,134.9 121.6,89.8 89.1,113.4 93.8,96.6 98,80.2 92.6,47.7 
				99.5,74.9 64.8,78.1 145.9,97.6 69.3,95 145.7,113.8 144.1,129.5 147,138 38.1,130.8 127.9,151.5 116.2,158 69.1,159.5 
				77.2,168.7 56.2,173.9 47.5,180.7 34.7,187 150,211.3 36,203.4 42.2,212.4 99.1,208.9 127.7,270 94.3,208.9 79.3,174 78.4,159.1 
				108.4,188 130.5,205.8 99.7,148.4 113.8,154.8 161.2,208.3 205.4,231.6 214.5,230.8 221.4,227 174.1,172.2 236.3,220.8 
				152.5,118.1 246.6,208.2 167.5,112.1 237,167.4 248.7,170.3 229.4,129.3 223.8,107.7 248,128.5 292.9,161.6 261,119.6 254,96.1 
				244.5,69 323.2,150.2 256.8,59.2 309,102.7 341.6,90.6 303.8,84.4 318.8,54 285,81.2 299.4,51.5 252.9,79.6 220,105.7 
				282.7,33.2 247.7,47.7 175.1,79.1 253.4,15.6 255.9,0 226.5,22 219.3,28.6 236.3,32.9 222.5,38 226.3,47 139.3,33.2 233.8,64.8 
				175.2,57.1 135,56.7 214.8,85.1 143.1,74.6 262.1,111.4 200.6,99.2 212.6,117.1 207.5,116.9 166.9,120.3 254.4,150.4 
				110.2,131.7 245.3,164.7 101.8,146.1 235.9,178.9 118.9,166 139.2,178.4 98.9,178 121.8,191 172.6,209.9 143.1,211.8 152,221.8 
				212.9,238.9 183.6,244.7 225.1,276.2 203.5,279.7 225.3,292.4 213.2,298 209.6,309.3 144,285 174.5,318 122.3,296.6 149.5,310.6 
				155.2,308.1 159.7,360 156.3,336.9 166.6,339 168.5,325.6 148.1,252.8 148.8,237.2 214,358.5 219.8,352.2 229.4,319.5 
				197.6,225.9 214.3,239.6 245.8,299.1 254.8,298.6 252.1,276.9 239.3,218.1 241,204.4 302.1,296.3 306.2,320.5 307.3,305.7 
				315,302.9 299.1,205 338.1,278 325.5,219.6 320.3,211.6 373.8,293 381.4,271.8 363.3,221.5 336.3,155.2 411.7,264.9 426.8,219.3 
				321,202.9 391.6,124.3 358.4,271.1 351.1,267.7 364.9,138.3 342.8,210.2 344.9,158.4 341.5,134.9 324.1,183 304.8,240.5 
				309.6,175.4 313,116.9 284.1,223.4 296.2,121 277,178.3 245.6,236.6 259.9,122.9 236,203.9 242.1,132 215.1,229.2 208.1,224.1 
				221.9,112.5 174,222.7 176,172 165.8,182.9 161.1,110.5 156.1,95.2 138.2,201.6 143.8,131.9 131.8,96.3 124,95.2 115.9,151.9 
				111.2,135.1 103.1,79.3 91.6,97.1 78.9,177.1 70.3,179.9 62,181.7 64,74.7 25,100.6 111.8,138.8 75,153.4 42.2,159.6 48.8,168.3 
				37.4,175.8 41.8,184.4 0,190 104,204.8 5.6,206.9 54.2,218.2 50.7,224.8 54.7,194.5 66.7,240.9 78,280 85.6,275.2 86.5,192.4 
				102.6,286.7 103.4,202.5 118,279.4 121.9,231.8 134.6,285.8 136.9,219.4 148.9,284.7 154.9,261.2 166.8,306.5 174,296.4 
				171.5,156.4 207.3,284.8 212,227.8 214,158.1 225,193.7 236.3,231.7 236.5,140.5 252.8,237.7 252.8,144.2 277.1,194.9 
				284.1,183.8 295.1,218.2 305.8,268.3 307.4,175 322.7,278.8 326.6,212.1 338.6,277.1 343.8,225.9 354.7,278.1 358.6,211.5 
				368.7,236.4 370.9,168 413.4,144.3 422.2,205.3 445.3,157.6 438.6,243.7 451.2,196.2 483.2,113.8 494,265.4 522,141.4 538,239.1 
				568.8,166.3 581.4,220.7 593.1,174 601,196.2 			"/>
		</g>
		<line fill="none" stroke="#FFFFFF" stroke-width="0.5" stroke-miterlimit="10" x1="601" y1="196.2" x2="611.8" y2="196.2"/>
	</g>
	<g>
		<g>
			<polyline fill="none" stroke="#FFFFFF" stroke-width="0.25" stroke-miterlimit="10" points="611.6,190.2 613.8,206.5 
				615.9,190.8 618.1,200.5 620.3,201.9 622.5,194.9 624.7,191.7 626.9,196.5 629.1,203.7 631.2,196.6 633.4,192.9 635.6,188.6 
				637.8,205 640,188.5 642.2,197.7 644.4,201.2 646.6,196.2 648.7,201.4 650.9,194.7 653.1,199.7 655.3,192.8 657.5,186.4 
				659.7,200.2 661.9,196.1 664.1,186.7 666.3,200.5 668.4,202.6 670.6,197 672.8,194.9 675,192.8 677.2,194.7 			"/>
		</g>
		<g>
			<polygon fill="none" stroke="#FFFFFF" stroke-width="0.25" stroke-miterlimit="10" points="613.8,207.8 611.3,196.7 611.8,196.6 
				613.7,205.3 615.9,189.5 618.3,200.3 620.2,201.6 622.3,194.8 624.7,191.2 627.1,196.4 629.1,203 631,196.5 633.2,192.8 
				635.7,187.9 637.8,203.3 639.9,187.2 642.4,197.6 644.3,200.7 646.6,195.7 648.7,200.7 650.9,194.1 653.1,199 655.1,192.7 
				657.6,185.4 659.8,199.5 661.7,196 664.1,185.5 666.5,200.4 668.4,202.2 670.5,196.8 672.7,194.7 675,192.5 678.4,196 
				678.1,196.3 675,193.1 673,195 670.8,197.1 668.5,203 666,200.6 666,200.5 664,187.9 662.1,196.2 659.6,200.9 657.4,187.3 
				655.5,192.9 653.1,200.3 651,195.3 648.8,202 646.5,196.8 644.4,201.7 642,197.8 640.1,189.8 637.8,206.8 635.5,189.4 
				633.6,193.1 631.4,196.7 629.1,204.5 626.7,196.6 624.6,192.2 622.7,195 620.4,202.3 617.9,200.6 616,192.1 			"/>
		</g>
	</g>
	<g>
		<polyline fill="none" stroke="#FFFFFF" stroke-width="0.5" stroke-miterlimit="10" points="678.5,196.4 682.9,194.1 687,194.6 
			691.1,195 694.9,197.6 699.1,198.2 703.1,196.5 707.1,194.9 711.3,196.1 715.5,197.4 719.5,196.3 723.5,195.2 727.5,194.2 
			731.6,193.2 735.7,194.1 739.8,196.5 		"/>
	</g>
	<g>
		<g>
			<polyline fill="none" stroke="#FFFFFF" stroke-width="0.25" stroke-miterlimit="10" points="739.8,192 741.4,203.7 742.9,192.4 
				744.5,199.4 746.1,200.4 747.6,195.4 749.2,193 750.8,196.5 752.4,201.7 753.9,196.5 755.5,193.9 757.1,190.9 758.6,202.6 
				760.2,190.7 761.8,197.4 763.4,199.8 764.9,196.3 766.5,200 768.1,195.2 769.6,198.8 771.2,193.8 772.8,189.2 774.4,199.1 
				775.9,196.2 777.5,189.4 779.1,199.3 780.7,200.9 782.2,196.8 783.8,195.3 785.4,193.8 787,195.2 			"/>
		</g>
		<g>
			<polygon fill="none" stroke="#FFFFFF" stroke-width="0.25" stroke-miterlimit="10" points="741.4,205 739.5,196.2 739.9,196.1 
				741.3,202.4 742.9,191.1 744.7,199.2 745.9,200 747.5,195.2 749.3,192.6 751,196.4 752.4,200.9 753.7,196.5 755.3,193.8 
				757.2,190.1 758.6,200.9 760.1,189.5 762,197.3 763.3,199.4 764.9,195.7 766.5,199.3 768,194.6 769.6,198.1 771,193.8 
				772.9,188.3 774.5,198.4 775.7,196.1 777.5,188.2 779.3,199.2 780.6,200.5 782.1,196.7 785.4,193.5 787.9,196.1 787.5,196.4 
				785.4,194.1 782.4,197 780.7,201.3 778.9,199.5 778.9,199.4 777.5,190.6 776.1,196.3 774.2,199.8 772.7,190.2 771.4,193.9 
				769.7,199.4 768.1,195.8 766.5,200.6 764.9,196.9 763.4,200.3 761.6,197.4 760.3,192 758.6,204.4 756.9,191.6 755.7,194 
				754.1,196.7 752.4,202.5 750.6,196.6 749.2,193.5 747.9,195.5 746.2,200.7 744.3,199.5 743,193.7 			"/>
		</g>
	</g>
	<g>
		<line fill="none" stroke="#FFFFFF" stroke-width="0.5" stroke-miterlimit="10" x1="787.5" y1="195.3" x2="821.1" y2="196.4"/>
	</g>
	<g>
		<polyline fill="none" stroke="#FFFFFF" stroke-width="0.25" stroke-miterlimit="10" points="820.3,196.3 842.6,192.9 883.2,196.9 
			933,195.2 955.3,192.9 977.7,196.1 1000,193.6 		"/>
		<g>
			<polyline fill="none" stroke="#FFFFFF" stroke-width="0.25" stroke-miterlimit="10" points="820.3,196.3 842.6,192.9 
				883.2,196.9 933,195.2 955.3,192.9 977.7,196.1 999.5,193.7 			"/>
			<g>
				<polygon fill="none" stroke="#FFFFFF" stroke-width="0.25" stroke-miterlimit="10" points="997.8,192 997.5,192.3 999.3,193.7 
					997.9,195.4 998.2,195.7 1000,193.6 				"/>
			</g>
		</g>
	</g>
</g>
</svg>
