<svg xmlns="http://www.w3.org/2000/svg" viewBox="0 0 216.4 124.8" enable-background="new 0 0 216.4 124.8"><path fill="none" stroke="#000101" stroke-width="2" stroke-miterlimit="10" d="M108.2 48.6c7.5 0 13.7 6.2 13.7 13.8 0 7.6-6.1 13.8-13.7 13.8S94.5 70 94.5 62.4c0-7.6 6.2-13.8 13.7-13.8zm0 55.6C85.4 104.2 67 85.5 67 62.4c0-23.1 18.5-41.8 41.2-41.8s41.2 18.7 41.2 41.8-18.4 41.8-41.2 41.8zM215.4 62v-.8c-.3-1.7-1-3.3-2.2-4.5-6.8-8.2-15-15.5-23.2-22.2-18-14.4-38.4-26.4-60.9-31.3C116.1.4 103 .3 90 2.7 78.1 4.8 66.6 9.3 55.9 14.9 39.1 23.5 23.8 35.5 10.4 49c-2.5 2.5-4.9 5-7.2 7.7-3 3.6-3 7.8 0 11.4 6.8 8.2 15 15.5 23.2 22.2 17.8 14.4 38.2 26.4 60.7 31.3 13 2.8 26.1 2.9 39.2.6 11.9-2.2 23.3-6.6 34.1-12.2 16.8-8.7 32.1-20.7 45.5-34.1 2.5-2.5 4.9-5 7.2-7.7 1.2-1.2 2-2.8 2.2-4.5V62.5s.1-.4.1-.5z"/></svg>