<svg xmlns="http://www.w3.org/2000/svg" viewBox="0 0 200.7 124.8" enable-background="new 0 0 200.7 124.8"><path d="M166.4 122.8c15.5-4.6 27.7-16.8 32.3-32.3v32.3h-32.3zm-41.6-17.4c3 8 9.4 14.3 17.4 17.4h-17.4v-17.4zm-2 17.4H2C2.5 56.4 56.4 2.5 122.8 2V122.8zM2 2h99.9C51.2 11.1 11.1 51.2 2 101.9V2zm151.8 93.8V77.9h44.9c-.5 24.5-20.4 44.4-44.9 44.9v-27zm-20.5-17.9c-3.7 1.8-6.7 4.8-8.5 8.5v-8.5h8.5zm18.5 3.5c-.9-1.4-2.1-2.6-3.5-3.5h3.5v3.5zm0 11.8v.6h-.6l.6-.6M140.7 89V93.8h-15.8c.5-8.5 7.3-15.3 15.8-15.8v11zm4.4-2h-2.4v-9c4.8.5 8.6 4.3 9 9h-6.6zm-2.4 2h2.4v.4h-2.4V89zm2.4 4.6c-1.1-.3-1.9-1.2-2.2-2.2h2.2v2.2zm2 .1V89h4.7c-.5 2.4-2.4 4.3-4.7 4.7M124.8 2c40.5.5 73.4 33.4 73.9 73.9h-73.9V2zm0 93.8h27v27c-14.6-.6-26.4-12.4-27-27m73.9-36.2c-6.6-28.5-29.1-51-57.6-57.6h57.6v57.6zM124.8 0H0v124.8H200.7V0h-75.9z"/></svg>