<svg xmlns="http://www.w3.org/2000/svg" viewBox="240 0 800 800" enable-background="new 240 0 800 800"><path fill="#231F20" d="M783.4 337.9c-35.4 20-81.7 41.9-136.7 58.1-11.4 2.9-19.2 1.4-23 .1-55.4-23.1-93.9-41.6-128.1-61.1l-.6-.3c-21.1-11.6-21.3 0-21.3 0v135c0 18.4 14.9 33.3 33.3 33.3h255.7c18.4 0 33.3-14.9 33.3-33.3V337.9c.2-7.7-12.6 0-12.6 0zM640 0C419.1 0 240 179.1 240 400s179.1 400 400 400 400-179.1 400-400S860.9 0 640 0zm220.2 523.7c0 18.4-14.9 33.3-33.3 33.3H453.2c-18.4 0-33.3-14.9-33.3-33.3V276.3c0-18.4 14.9-33.3 33.3-33.3h373.7c18.4 0 33.3 14.9 33.3 33.3v247.4z"/></svg>