<?xml version="1.0" encoding="utf-8"?>
<!-- Generator: Adobe Illustrator 18.1.1, SVG Export Plug-In . SVG Version: 6.00 Build 0)  -->
<svg version="1.1" id="Layer_1" xmlns="http://www.w3.org/2000/svg" xmlns:xlink="http://www.w3.org/1999/xlink" x="0px" y="0px"
	 viewBox="1.8 172.9 610.2 441.1" enable-background="new 1.8 172.9 610.2 441.1" xml:space="preserve">
<g>
	<g>
		<g>
			<defs>
				<rect id="SVGID_1_" x="2.2" y="173.4" width="609.4" height="440.6"/>
			</defs>
			<clipPath id="SVGID_2_">
				<use xlink:href="#SVGID_1_"  overflow="visible"/>
			</clipPath>
			<path clip-path="url(#SVGID_2_)" d="M79.9,264.8c-0.4,0-0.7,0-1.1-0.4L3.3,220.7c-0.7-0.4-1.1-1.1-1.1-1.8c0-0.7,0.4-1.4,1.1-1.8
				l75.9-43.7c0.7-0.4,1.4-0.4,1.8,0c0.7,0.4,1.1,1.1,1.1,1.8v87.6c0,0.7-0.4,1.4-1.1,1.8C80.6,264.8,80.2,264.8,79.9,264.8
				 M7.8,218.9l69.9,40.3v-80.5L7.8,218.9z"/>
		</g>
	</g>
	<g>
		<g>
			<defs>
				<rect id="SVGID_3_" x="2.2" y="173.4" width="609.4" height="440.6"/>
			</defs>
			<clipPath id="SVGID_4_">
				<use xlink:href="#SVGID_3_"  overflow="visible"/>
			</clipPath>
			<path clip-path="url(#SVGID_4_)" d="M79.9,264.8c-0.4,0-0.7,0-1.1-0.4c-0.7-0.4-1.1-1.1-1.1-1.8V175c0-0.7,0.4-1.4,1.1-1.8
				c0.7-0.4,1.4-0.4,1.8,0l75.9,43.8c0.7,0.4,1.1,1.1,1.1,1.8c0,0.7-0.4,1.4-1.1,1.8l-75.6,43.8C80.6,264.8,80.2,264.8,79.9,264.8
				 M81.6,178.7v80.9l69.9-40.3L81.6,178.7z"/>
		</g>
	</g>
	<g>
		<g>
			<defs>
				<rect id="SVGID_5_" x="2.2" y="173.4" width="609.4" height="440.6"/>
			</defs>
			<clipPath id="SVGID_6_">
				<use xlink:href="#SVGID_5_"  overflow="visible"/>
			</clipPath>
			<path clip-path="url(#SVGID_6_)" d="M4,308.6c-0.4,0-0.7,0-1.1-0.4l0,0c-0.7-0.4-1.1-1.1-1.1-1.8v-87.6c0-0.7,0.4-1.4,1.1-1.8
				s1.4-0.4,1.8,0l75.9,43.8c0.7,0.4,1.1,1.1,1.1,1.8c0,0.7-0.4,1.4-1.1,1.8L5,308.2C4.7,308.2,4.3,308.6,4,308.6 M6.1,222.4v80.9
				L76,263L6.1,222.4z"/>
		</g>
	</g>
	<g>
		<g>
			<defs>
				<rect id="SVGID_7_" x="2.2" y="173.4" width="609.4" height="440.6"/>
			</defs>
			<clipPath id="SVGID_8_">
				<use xlink:href="#SVGID_7_"  overflow="visible"/>
			</clipPath>
			<path clip-path="url(#SVGID_8_)" d="M155.4,308.6c-0.4,0-0.7,0-1.1-0.4l-75.6-43.8c-0.7-0.4-1.1-1.1-1.1-1.8
				c0-0.7,0.4-1.4,1.1-1.8l75.9-43.8c0.7-0.4,1.4-0.4,1.8,0c0.7,0.4,1.1,1.1,1.1,1.8v87.6c0,0.7-0.4,1.4-1.1,1.8
				C156.1,308.2,155.8,308.6,155.4,308.6 M83.8,262.7l69.9,40.6v-80.9L83.8,262.7z"/>
		</g>
	</g>
	<g>
		<g>
			<defs>
				<rect id="SVGID_9_" x="2.2" y="173.4" width="609.4" height="440.6"/>
			</defs>
			<clipPath id="SVGID_10_">
				<use xlink:href="#SVGID_9_"  overflow="visible"/>
			</clipPath>
			<path clip-path="url(#SVGID_10_)" d="M79.9,352c-0.4,0-0.7,0-1.1-0.4c-0.7-0.4-1.1-1.1-1.1-1.8v-87.2c0-0.7,0.4-1.4,1.1-1.8
				s1.4-0.4,1.8,0l75.6,43.8c0.7,0.4,1.1,1.1,1.1,1.8c0,0.7-0.4,1.4-1.1,1.8L80.9,352C80.6,352,80.2,352,79.9,352 M81.6,266.2v80.9
				l69.9-40.3L81.6,266.2z"/>
		</g>
	</g>
	<g>
		<g>
			<defs>
				<rect id="SVGID_11_" x="2.2" y="173.4" width="609.4" height="440.6"/>
			</defs>
			<clipPath id="SVGID_12_">
				<use xlink:href="#SVGID_11_"  overflow="visible"/>
			</clipPath>
			<path clip-path="url(#SVGID_12_)" d="M79.9,352c-0.4,0-0.7,0-1.1-0.4L3.3,308.2c-0.7-0.4-1.1-1.1-1.1-1.8c0-0.7,0.4-1.4,1.1-1.8
				l75.6-43.8c0.7-0.4,1.4-0.4,1.8,0c0.7,0.4,1.1,1.1,1.1,1.8v87.6c0,0.7-0.4,1.4-1.1,1.8C80.6,352,80.2,352,79.9,352 M7.8,306.5
				l69.9,40.3v-80.5L7.8,306.5z"/>
		</g>
	</g>
	<g>
		<g>
			<defs>
				<rect id="SVGID_13_" x="2.2" y="173.4" width="609.4" height="440.6"/>
			</defs>
			<clipPath id="SVGID_14_">
				<use xlink:href="#SVGID_13_"  overflow="visible"/>
			</clipPath>
			<path clip-path="url(#SVGID_14_)" d="M231.3,264.8c-0.4,0-0.7,0-1.1-0.4l-75.6-43.8c-0.7-0.4-1.1-1.1-1.1-1.8
				c0-0.7,0.4-1.4,1.1-1.8l75.9-43.8c0.7-0.4,1.4-0.4,1.8,0c0.7,0.4,1.1,1.1,1.1,1.8v87.6c0,0.7-0.4,1.4-1.1,1.8
				C232.1,264.8,231.7,264.8,231.3,264.8 M159.3,218.9l69.9,40.3v-80.5L159.3,218.9z"/>
		</g>
	</g>
	<g>
		<g>
			<defs>
				<rect id="SVGID_15_" x="2.2" y="173.4" width="609.4" height="440.6"/>
			</defs>
			<clipPath id="SVGID_16_">
				<use xlink:href="#SVGID_15_"  overflow="visible"/>
			</clipPath>
			<path clip-path="url(#SVGID_16_)" d="M231.3,264.8c-0.4,0-0.7,0-1.1-0.4c-0.7-0.4-1.1-1.1-1.1-1.8V175c0-0.7,0.4-1.4,1.1-1.8
				c0.7-0.4,1.4-0.4,1.8,0l75.9,43.8c0.7,0.4,1.1,1.1,1.1,1.8c0,0.7-0.4,1.4-1.1,1.8l-75.6,43.8
				C232.1,264.8,231.7,264.8,231.3,264.8 M233.1,178.7v80.9l69.9-40.3L233.1,178.7z"/>
		</g>
	</g>
	<g>
		<g>
			<defs>
				<rect id="SVGID_17_" x="2.2" y="173.4" width="609.4" height="440.6"/>
			</defs>
			<clipPath id="SVGID_18_">
				<use xlink:href="#SVGID_17_"  overflow="visible"/>
			</clipPath>
			<path clip-path="url(#SVGID_18_)" d="M155.4,308.6c-0.4,0-0.7,0-1.1-0.4l0,0c-0.7-0.4-1.1-1.1-1.1-1.8v-87.6
				c0-0.7,0.4-1.4,1.1-1.8c0.7-0.4,1.4-0.4,1.8,0l75.9,43.8c0.7,0.4,1.1,1.1,1.1,1.8c0,0.7-0.4,1.4-1.1,1.8l-75.6,43.8
				C156.1,308.2,155.8,308.6,155.4,308.6 M157.6,222.4v80.9l69.9-40.3L157.6,222.4z"/>
		</g>
	</g>
	<g>
		<g>
			<defs>
				<rect id="SVGID_19_" x="2.2" y="173.4" width="609.4" height="440.6"/>
			</defs>
			<clipPath id="SVGID_20_">
				<use xlink:href="#SVGID_19_"  overflow="visible"/>
			</clipPath>
			<path clip-path="url(#SVGID_20_)" d="M306.9,308.6c-0.4,0-0.7,0-1.1-0.4l-75.6-43.8c-0.7-0.4-1.1-1.1-1.1-1.8
				c0-0.7,0.4-1.4,1.1-1.8l75.9-43.4c0.7-0.4,1.4-0.4,1.8,0c0.7,0.4,1.1,1.1,1.1,1.8v87.6c0,0.7-0.4,1.4-1.1,1.8
				C307.6,308.2,307.3,308.6,306.9,308.6 M235.2,262.7l69.9,40.6v-80.9L235.2,262.7z"/>
		</g>
	</g>
	<g>
		<g>
			<defs>
				<rect id="SVGID_21_" x="2.2" y="173.4" width="609.4" height="440.6"/>
			</defs>
			<clipPath id="SVGID_22_">
				<use xlink:href="#SVGID_21_"  overflow="visible"/>
			</clipPath>
			<path clip-path="url(#SVGID_22_)" d="M231.3,352c-0.4,0-0.7,0-1.1-0.4c-0.7-0.4-1.1-1.1-1.1-1.8v-87.2c0-0.7,0.4-1.4,1.1-1.8
				c0.7-0.4,1.4-0.4,1.8,0l75.6,43.8c0.7,0.4,1.1,1.1,1.1,1.8c0,0.7-0.4,1.4-1.1,1.8L232.4,352C232.1,352,231.7,352,231.3,352
				 M233.1,266.2v80.9l69.9-40.3L233.1,266.2z"/>
		</g>
	</g>
	<g>
		<g>
			<defs>
				<rect id="SVGID_23_" x="2.2" y="173.4" width="609.4" height="440.6"/>
			</defs>
			<clipPath id="SVGID_24_">
				<use xlink:href="#SVGID_23_"  overflow="visible"/>
			</clipPath>
			<path clip-path="url(#SVGID_24_)" d="M231.3,352c-0.4,0-0.7,0-1.1-0.4l-75.6-43.4c-0.7-0.4-1.1-1.1-1.1-1.8
				c0-0.7,0.4-1.4,1.1-1.8l75.6-43.8c0.7-0.4,1.4-0.4,1.8,0c0.7,0.4,1.1,1.1,1.1,1.8v87.6c0,0.7-0.4,1.4-1.1,1.8
				C232.1,352,231.7,352,231.3,352 M159.3,306.5l69.9,40.3v-80.5L159.3,306.5z"/>
		</g>
	</g>
	<g>
		<g>
			<defs>
				<rect id="SVGID_25_" x="2.2" y="173.4" width="609.4" height="440.6"/>
			</defs>
			<clipPath id="SVGID_26_">
				<use xlink:href="#SVGID_25_"  overflow="visible"/>
			</clipPath>
			<path clip-path="url(#SVGID_26_)" d="M155.4,395.8c-0.4,0-0.7,0-1.1-0.4L78.5,352c-0.7-0.4-1.1-1.1-1.1-1.8s0.4-1.4,1.1-1.8
				l75.9-43.8c0.7-0.4,1.4-0.4,1.8,0c0.7,0.4,1.1,1.1,1.1,1.8V394c0,0.7-0.4,1.4-1.1,1.8C155.8,395.8,155.4,395.8,155.4,395.8
				 M83.4,350.3l69.9,40.3v-80.9L83.4,350.3z"/>
		</g>
	</g>
	<g>
		<g>
			<defs>
				<rect id="SVGID_27_" x="2.2" y="173.4" width="609.4" height="440.6"/>
			</defs>
			<clipPath id="SVGID_28_">
				<use xlink:href="#SVGID_27_"  overflow="visible"/>
			</clipPath>
			<path clip-path="url(#SVGID_28_)" d="M155.4,395.8c-0.4,0-0.7,0-1.1-0.4c-0.7-0.4-1.1-1.1-1.1-1.8v-87.2c0-0.7,0.4-1.4,1.1-1.8
				c0.7-0.4,1.4-0.4,1.8,0l75.9,43.8c0.7,0.4,1.1,1.1,1.1,1.8s-0.4,1.4-1.1,1.8l-75.9,43.4C155.8,395.8,155.4,395.8,155.4,395.8
				 M157.2,309.6v80.9l69.9-40.3L157.2,309.6z"/>
		</g>
	</g>
	<g>
		<g>
			<defs>
				<rect id="SVGID_29_" x="2.2" y="173.4" width="609.4" height="440.6"/>
			</defs>
			<clipPath id="SVGID_30_">
				<use xlink:href="#SVGID_29_"  overflow="visible"/>
			</clipPath>
			<path clip-path="url(#SVGID_30_)" d="M79.5,439.6c-0.4,0-0.7,0-1.1-0.4l0,0c-0.7-0.4-1.1-1.1-1.1-1.8v-87.2
				c0-0.7,0.4-1.4,1.1-1.8s1.4-0.4,1.8,0l75.9,43.8c0.7,0.4,1.1,1.1,1.1,1.8s-0.4,1.4-1.1,1.8l-75.6,43.8
				C80.2,439.6,79.9,439.6,79.5,439.6 M81.3,353.4v80.9l69.9-40.3L81.3,353.4z"/>
		</g>
	</g>
	<g>
		<g>
			<defs>
				<rect id="SVGID_31_" x="2.2" y="173.4" width="609.4" height="440.6"/>
			</defs>
			<clipPath id="SVGID_32_">
				<use xlink:href="#SVGID_31_"  overflow="visible"/>
			</clipPath>
			<path clip-path="url(#SVGID_32_)" d="M231,439.6c-0.4,0-0.7,0-1.1-0.4l-75.6-43.8c-0.7-0.4-1.1-1.1-1.1-1.8s0.4-1.4,1.1-1.8
				l75.9-43.8c0.7-0.4,1.4-0.4,1.8,0c0.7,0.4,1.1,1.1,1.1,1.8v87.6c0,0.7-0.4,1.4-1.1,1.8C231.7,439.6,231.3,439.6,231,439.6
				 M159,394l69.9,40.3v-80.9L159,394z"/>
		</g>
	</g>
	<g>
		<g>
			<defs>
				<rect id="SVGID_33_" x="2.2" y="173.4" width="609.4" height="440.6"/>
			</defs>
			<clipPath id="SVGID_34_">
				<use xlink:href="#SVGID_33_"  overflow="visible"/>
			</clipPath>
			<path clip-path="url(#SVGID_34_)" d="M155.4,483.4c-0.4,0-0.7,0-1.1-0.4c-0.7-0.4-1.1-1.1-1.1-1.8V394c0-0.7,0.4-1.4,1.1-1.8
				c0.7-0.4,1.4-0.4,1.8,0L232,436c0.7,0.4,1.1,1.1,1.1,1.8s-0.4,1.4-1.1,1.8l-75.6,43.8C155.8,483.4,155.4,483.4,155.4,483.4
				 M157.2,397.2v80.9l69.9-40.6L157.2,397.2z"/>
		</g>
	</g>
	<g>
		<g>
			<defs>
				<rect id="SVGID_35_" x="2.2" y="173.4" width="609.4" height="440.6"/>
			</defs>
			<clipPath id="SVGID_36_">
				<use xlink:href="#SVGID_35_"  overflow="visible"/>
			</clipPath>
			<path clip-path="url(#SVGID_36_)" d="M155.4,483.4c-0.4,0-0.7,0-1.1-0.4l-75.6-43.8c-0.7-0.4-1.1-1.1-1.1-1.8s0.4-1.4,1.1-1.8
				l75.6-43.4c0.7-0.4,1.4-0.4,1.8,0c0.7,0.4,1.1,1.1,1.1,1.8v87.6c0,0.7-0.4,1.4-1.1,1.8C155.8,483.4,155.4,483.4,155.4,483.4
				 M83.4,437.5l69.9,40.3v-80.5L83.4,437.5z"/>
		</g>
	</g>
	<g>
		<g>
			<defs>
				<rect id="SVGID_37_" x="2.2" y="173.4" width="609.4" height="440.6"/>
			</defs>
			<clipPath id="SVGID_38_">
				<use xlink:href="#SVGID_37_"  overflow="visible"/>
			</clipPath>
			<path clip-path="url(#SVGID_38_)" d="M306.9,395.8c-0.4,0-0.7,0-1.1-0.4L229.9,352c-0.7-0.4-1.1-1.1-1.1-1.8s0.4-1.4,1.1-1.8
				l75.9-43.8c0.7-0.4,1.4-0.4,1.8,0c0.7,0.4,1.1,1.1,1.1,1.8V394c0,0.7-0.4,1.4-1.1,1.8C307.3,395.8,306.9,395.8,306.9,395.8
				 M234.9,350.3l69.9,40.3v-80.9L234.9,350.3z"/>
		</g>
	</g>
	<g>
		<g>
			<defs>
				<rect id="SVGID_39_" x="2.2" y="173.4" width="609.4" height="440.6"/>
			</defs>
			<clipPath id="SVGID_40_">
				<use xlink:href="#SVGID_39_"  overflow="visible"/>
			</clipPath>
			<path clip-path="url(#SVGID_40_)" d="M306.9,395.8c-0.4,0-0.7,0-1.1-0.4c-0.7-0.4-1.1-1.1-1.1-1.8v-87.2c0-0.7,0.4-1.4,1.1-1.8
				s1.4-0.4,1.8,0l75.9,43.8c0.7,0.4,1.1,1.1,1.1,1.8s-0.4,1.4-1.1,1.8l-75.9,43.8C307.3,395.8,306.9,395.8,306.9,395.8
				 M308.7,309.6v80.9l69.9-40.3L308.7,309.6z"/>
		</g>
	</g>
	<g>
		<g>
			<defs>
				<rect id="SVGID_41_" x="2.2" y="173.4" width="609.4" height="440.6"/>
			</defs>
			<clipPath id="SVGID_42_">
				<use xlink:href="#SVGID_41_"  overflow="visible"/>
			</clipPath>
			<path clip-path="url(#SVGID_42_)" d="M231,439.6c-0.4,0-0.7,0-1.1-0.4l0,0c-0.7-0.4-1.1-1.1-1.1-1.8v-87.2c0-0.7,0.4-1.4,1.1-1.8
				c0.7-0.4,1.4-0.4,1.8,0l75.9,43.8c0.7,0.4,1.1,1.1,1.1,1.8s-0.4,1.4-1.1,1.8L232,439.2C231.7,439.6,231.3,439.6,231,439.6
				 M232.8,353.4v80.9l69.9-40.3L232.8,353.4z"/>
		</g>
	</g>
	<g>
		<g>
			<defs>
				<rect id="SVGID_43_" x="2.2" y="173.4" width="609.4" height="440.6"/>
			</defs>
			<clipPath id="SVGID_44_">
				<use xlink:href="#SVGID_43_"  overflow="visible"/>
			</clipPath>
			<path clip-path="url(#SVGID_44_)" d="M382.5,439.6c-0.4,0-0.7,0-1.1-0.4l-75.6-43.8c-0.7-0.4-1.1-1.1-1.1-1.8s0.4-1.4,1.1-1.8
				l75.9-43.8c0.7-0.4,1.4-0.4,1.8,0c0.7,0.4,1.1,1.1,1.1,1.8v87.6c0,0.7-0.4,1.4-1.1,1.8C383.2,439.6,382.8,439.6,382.5,439.6
				 M310.4,394l69.9,40.3v-80.9L310.4,394z"/>
		</g>
	</g>
	<g>
		<g>
			<defs>
				<rect id="SVGID_45_" x="2.2" y="173.4" width="609.4" height="440.6"/>
			</defs>
			<clipPath id="SVGID_46_">
				<use xlink:href="#SVGID_45_"  overflow="visible"/>
			</clipPath>
			<path clip-path="url(#SVGID_46_)" d="M306.9,483.4c-0.4,0-0.7,0-1.1-0.4c-0.7-0.4-1.1-1.1-1.1-1.8V394c0-0.7,0.4-1.4,1.1-1.8
				s1.4-0.4,1.8,0l75.6,43.8c0.7,0.4,1.1,1.1,1.1,1.8s-0.4,1.4-1.1,1.8l-75.6,43.8C307.3,483.4,306.9,483.4,306.9,483.4
				 M308.7,397.2v80.9l69.9-40.3L308.7,397.2z"/>
		</g>
	</g>
	<g>
		<g>
			<defs>
				<rect id="SVGID_47_" x="2.2" y="173.4" width="609.4" height="440.6"/>
			</defs>
			<clipPath id="SVGID_48_">
				<use xlink:href="#SVGID_47_"  overflow="visible"/>
			</clipPath>
			<path clip-path="url(#SVGID_48_)" d="M306.9,483.4c-0.4,0-0.7,0-1.1-0.4l-75.6-43.8c-0.7-0.4-1.1-1.1-1.1-1.8s0.4-1.4,1.1-1.8
				l75.6-43.8c0.7-0.4,1.4-0.4,1.8,0c0.7,0.4,1.1,1.1,1.1,1.8v87.6c0,0.7-0.4,1.4-1.1,1.8C307.3,483.4,306.9,483.4,306.9,483.4
				 M234.9,437.5l69.9,40.3v-80.5L234.9,437.5z"/>
		</g>
	</g>
	<g>
		<g>
			<defs>
				<rect id="SVGID_49_" x="2.2" y="173.4" width="609.4" height="440.6"/>
			</defs>
			<clipPath id="SVGID_50_">
				<use xlink:href="#SVGID_49_"  overflow="visible"/>
			</clipPath>
			<path clip-path="url(#SVGID_50_)" d="M382.8,264.8c-0.4,0-0.7,0-1.1-0.4l-75.5-43.7c-0.7-0.4-1.1-1.1-1.1-1.8
				c0-0.7,0.4-1.4,1.1-1.8l75.9-43.8c0.7-0.4,1.4-0.4,1.8,0c0.7,0.4,1.1,1.1,1.1,1.8v87.6c0,0.7-0.4,1.4-1.1,1.8
				C383.5,264.8,383.2,264.8,382.8,264.8 M310.8,218.9l69.9,40.3v-80.5L310.8,218.9z"/>
		</g>
	</g>
	<g>
		<g>
			<defs>
				<rect id="SVGID_51_" x="2.2" y="173.4" width="609.4" height="440.6"/>
			</defs>
			<clipPath id="SVGID_52_">
				<use xlink:href="#SVGID_51_"  overflow="visible"/>
			</clipPath>
			<path clip-path="url(#SVGID_52_)" d="M382.8,264.8c-0.4,0-0.7,0-1.1-0.4c-0.7-0.4-1.1-1.1-1.1-1.8V175c0-0.7,0.4-1.4,1.1-1.8
				s1.4-0.4,1.8,0l75.9,43.8c0.7,0.4,1.1,1.1,1.1,1.8c0,0.7-0.4,1.4-1.1,1.8l-75.6,43.8C383.5,264.8,383.2,264.8,382.8,264.8
				 M384.6,178.7v80.9l69.9-40.3L384.6,178.7z"/>
		</g>
	</g>
	<g>
		<g>
			<defs>
				<rect id="SVGID_53_" x="2.2" y="173.4" width="609.4" height="440.6"/>
			</defs>
			<clipPath id="SVGID_54_">
				<use xlink:href="#SVGID_53_"  overflow="visible"/>
			</clipPath>
			<path clip-path="url(#SVGID_54_)" d="M306.9,308.6c-0.4,0-0.7,0-1.1-0.4l0,0c-0.7-0.4-1.1-1.1-1.1-1.8v-87.6
				c0-0.7,0.4-1.4,1.1-1.8s1.4-0.4,1.8,0l76.3,44.1c0.7,0.4,1.1,1.1,1.1,1.8c0,0.7-0.4,1.4-1.1,1.8l-75.6,43.8
				C307.6,308.2,307.3,308.6,306.9,308.6 M309,222.4v80.9l69.9-40.3L309,222.4z"/>
		</g>
	</g>
	<g>
		<g>
			<defs>
				<rect id="SVGID_55_" x="2.2" y="173.4" width="609.4" height="440.6"/>
			</defs>
			<clipPath id="SVGID_56_">
				<use xlink:href="#SVGID_55_"  overflow="visible"/>
			</clipPath>
			<path clip-path="url(#SVGID_56_)" d="M458.4,308.6c-0.4,0-0.7,0-1.1-0.4l-75.6-43.8c-0.7-0.4-1.1-1.1-1.1-1.8
				c0-0.7,0.4-1.4,1.1-1.8l75.9-43.8c0.7-0.4,1.4-0.4,1.8,0c0.7,0.4,1.1,1.1,1.1,1.8v87.6c0,0.7-0.4,1.4-1.1,1.8
				C459.1,308.2,458.7,308.6,458.4,308.6 M386.7,262.7l69.9,40.6v-80.9L386.7,262.7z"/>
		</g>
	</g>
	<g>
		<g>
			<defs>
				<rect id="SVGID_57_" x="2.2" y="173.4" width="609.4" height="440.6"/>
			</defs>
			<clipPath id="SVGID_58_">
				<use xlink:href="#SVGID_57_"  overflow="visible"/>
			</clipPath>
			<path clip-path="url(#SVGID_58_)" d="M382.8,352c-0.4,0-0.7,0-1.1-0.4c-0.7-0.4-1.1-1.1-1.1-1.8v-87.2c0-0.7,0.4-1.4,1.1-1.8
				s1.4-0.4,1.8,0l75.6,43.8c0.7,0.4,1.1,1.1,1.1,1.8c0,0.7-0.4,1.4-1.1,1.8L383.9,352C383.5,352,383.2,352,382.8,352 M384.6,266.2
				v80.9l69.9-40.6L384.6,266.2z"/>
		</g>
	</g>
	<g>
		<g>
			<defs>
				<rect id="SVGID_59_" x="2.2" y="173.4" width="609.4" height="440.6"/>
			</defs>
			<clipPath id="SVGID_60_">
				<use xlink:href="#SVGID_59_"  overflow="visible"/>
			</clipPath>
			<path clip-path="url(#SVGID_60_)" d="M382.8,352c-0.4,0-0.7,0-1.1-0.4l-75.5-43.4c-0.7-0.4-1.1-1.1-1.1-1.8
				c0-0.7,0.4-1.4,1.1-1.8l75.6-43.8c0.7-0.4,1.4-0.4,1.8,0c0.7,0.4,1.1,1.1,1.1,1.8v87.6c0,0.7-0.4,1.4-1.1,1.8
				C383.5,352,383.2,352,382.8,352 M310.8,306.5l69.9,40.3v-80.5L310.8,306.5z"/>
		</g>
	</g>
	<g>
		<g>
			<defs>
				<rect id="SVGID_61_" x="2.2" y="173.4" width="609.4" height="440.6"/>
			</defs>
			<clipPath id="SVGID_62_">
				<use xlink:href="#SVGID_61_"  overflow="visible"/>
			</clipPath>
			<path clip-path="url(#SVGID_62_)" d="M79.9,526.4c-0.4,0-0.7,0-1.1-0.4L2.9,482.3c-0.7-0.4-1.1-1.1-1.1-1.8s0.4-1.4,1.1-1.8
				L78.8,435c0.7-0.4,1.4-0.4,1.8,0c0.7,0.4,1.1,1.1,1.1,1.8v87.6c0,0.7-0.4,1.4-1.1,1.8C80.6,526.4,80.2,526.4,79.9,526.4
				 M7.8,480.9l69.9,40.3v-80.9L7.8,480.9z"/>
		</g>
	</g>
	<g>
		<g>
			<defs>
				<rect id="SVGID_63_" x="2.2" y="173.4" width="609.4" height="440.6"/>
			</defs>
			<clipPath id="SVGID_64_">
				<use xlink:href="#SVGID_63_"  overflow="visible"/>
			</clipPath>
			<path clip-path="url(#SVGID_64_)" d="M79.9,526.4c-0.4,0-0.7,0-1.1-0.4c-0.7-0.4-1.1-1.1-1.1-1.8V437c0-0.7,0.4-1.4,1.1-1.8
				s1.4-0.4,1.8,0l75.9,43.8c0.7,0.4,1.1,1.1,1.1,1.8s-0.4,1.4-1.1,1.8l-75.9,43.8C80.6,526.4,80.2,526.4,79.9,526.4 M81.6,440.6
				v80.9l69.9-40.6L81.6,440.6z"/>
		</g>
	</g>
	<g>
		<g>
			<defs>
				<rect id="SVGID_65_" x="2.2" y="173.4" width="609.4" height="440.6"/>
			</defs>
			<clipPath id="SVGID_66_">
				<use xlink:href="#SVGID_65_"  overflow="visible"/>
			</clipPath>
			<path clip-path="url(#SVGID_66_)" d="M4,570.2c-0.4,0-0.7,0-1.1-0.4l0,0c-0.7-0.4-1.1-1.1-1.1-1.8v-87.6c0-0.7,0.4-1.4,1.1-1.8
				c0.7-0.4,1.4-0.4,1.8,0l75.9,43.8c0.7,0.4,1.1,1.1,1.1,1.8s-0.4,1.4-1.1,1.8L5,569.9C4.7,570.2,4.3,570.2,4,570.2 M6.1,484.4
				v80.9L76,525L6.1,484.4z"/>
		</g>
	</g>
	<g>
		<g>
			<defs>
				<rect id="SVGID_67_" x="2.2" y="173.4" width="609.4" height="440.6"/>
			</defs>
			<clipPath id="SVGID_68_">
				<use xlink:href="#SVGID_67_"  overflow="visible"/>
			</clipPath>
			<path clip-path="url(#SVGID_68_)" d="M155.4,570.2c-0.4,0-0.7,0-1.1-0.4L78.7,526c-0.7-0.4-1.1-1.1-1.1-1.8s0.4-1.4,1.1-1.8
				l75.9-43.8c0.7-0.4,1.4-0.4,1.8,0c0.7,0.4,1.1,1.1,1.1,1.8V568c0,0.7-0.4,1.4-1.1,1.8C156.1,570.2,155.8,570.2,155.4,570.2
				 M83.8,524.7l69.9,40.3v-80.9L83.8,524.7z"/>
		</g>
	</g>
	<g>
		<g>
			<defs>
				<rect id="SVGID_69_" x="2.2" y="173.4" width="609.4" height="440.6"/>
			</defs>
			<clipPath id="SVGID_70_">
				<use xlink:href="#SVGID_69_"  overflow="visible"/>
			</clipPath>
			<path clip-path="url(#SVGID_70_)" d="M79.9,614c-0.4,0-0.7,0-1.1-0.4c-0.7-0.4-1.1-1.1-1.1-1.8v-87.6c0-0.7,0.4-1.4,1.1-1.8
				c0.7-0.4,1.4-0.4,1.8,0l75.6,43.8c0.7,0.4,1.1,1.1,1.1,1.8s-0.4,1.4-1.1,1.8l-75.6,43.8C80.6,614,80.2,614,79.9,614 M81.6,527.8
				v80.9l69.9-40.3L81.6,527.8z"/>
		</g>
	</g>
	<g>
		<g>
			<defs>
				<rect id="SVGID_71_" x="2.2" y="173.4" width="609.4" height="440.6"/>
			</defs>
			<clipPath id="SVGID_72_">
				<use xlink:href="#SVGID_71_"  overflow="visible"/>
			</clipPath>
			<path clip-path="url(#SVGID_72_)" d="M79.9,614c-0.4,0-0.7,0-1.1-0.4L3.3,569.9c-0.7-0.4-1.1-1.1-1.1-1.8s0.4-1.4,1.1-1.8
				l75.6-43.8c0.7-0.4,1.4-0.4,1.8,0c0.7,0.4,1.1,1.1,1.1,1.8v87.6c0,0.7-0.4,1.4-1.1,1.8C80.6,614,80.2,614,79.9,614 M7.8,568.5
				l69.9,40.3v-80.9L7.8,568.5z"/>
		</g>
	</g>
	<g>
		<g>
			<defs>
				<rect id="SVGID_73_" x="2.2" y="173.4" width="609.4" height="440.6"/>
			</defs>
			<clipPath id="SVGID_74_">
				<use xlink:href="#SVGID_73_"  overflow="visible"/>
			</clipPath>
			<path clip-path="url(#SVGID_74_)" d="M231.3,526.4c-0.4,0-0.7,0-1.1-0.4l-75.9-43.8c-0.7-0.4-1.1-1.1-1.1-1.8s0.4-1.4,1.1-1.8
				l75.9-43.8c0.7-0.4,1.4-0.4,1.8,0c0.7,0.4,1.1,1.1,1.1,1.8v87.6c0,0.7-0.4,1.4-1.1,1.8C232.1,526.4,231.7,526.4,231.3,526.4
				 M159.3,480.9l69.9,40.3v-80.9L159.3,480.9z"/>
		</g>
	</g>
	<g>
		<g>
			<defs>
				<rect id="SVGID_75_" x="2.2" y="173.4" width="609.4" height="440.6"/>
			</defs>
			<clipPath id="SVGID_76_">
				<use xlink:href="#SVGID_75_"  overflow="visible"/>
			</clipPath>
			<path clip-path="url(#SVGID_76_)" d="M231.3,526.4c-0.4,0-0.7,0-1.1-0.4c-0.7-0.4-1.1-1.1-1.1-1.8V437c0-0.7,0.4-1.4,1.1-1.8
				c0.7-0.4,1.4-0.4,1.8,0l75.9,43.8c0.7,0.4,1.1,1.1,1.1,1.8s-0.4,1.4-1.1,1.8L232,526.4C232.1,526.4,231.7,526.4,231.3,526.4
				 M233.1,440.6v80.9l69.9-40.6L233.1,440.6z"/>
		</g>
	</g>
	<g>
		<g>
			<defs>
				<rect id="SVGID_77_" x="2.2" y="173.4" width="609.4" height="440.6"/>
			</defs>
			<clipPath id="SVGID_78_">
				<use xlink:href="#SVGID_77_"  overflow="visible"/>
			</clipPath>
			<path clip-path="url(#SVGID_78_)" d="M155.4,570.2c-0.4,0-0.7,0-1.1-0.4l0,0c-0.7-0.4-1.1-1.1-1.1-1.8v-87.6
				c0-0.7,0.4-1.4,1.1-1.8c0.7-0.4,1.4-0.4,1.8,0l75.9,43.8c0.7,0.4,1.1,1.1,1.1,1.8s-0.4,1.4-1.1,1.8l-75.6,43.8
				C156.1,570.2,155.8,570.2,155.4,570.2 M157.6,484.4v80.9l69.9-40.3L157.6,484.4z"/>
		</g>
	</g>
	<g>
		<g>
			<defs>
				<rect id="SVGID_79_" x="2.2" y="173.4" width="609.4" height="440.6"/>
			</defs>
			<clipPath id="SVGID_80_">
				<use xlink:href="#SVGID_79_"  overflow="visible"/>
			</clipPath>
			<path clip-path="url(#SVGID_80_)" d="M306.9,570.2c-0.4,0-0.7,0-1.1-0.4L230.2,526c-0.7-0.4-1.1-1.1-1.1-1.8s0.4-1.4,1.1-1.8
				l75.9-43.8c0.7-0.4,1.4-0.4,1.8,0c0.7,0.4,1.1,1.1,1.1,1.8V568c0,0.7-0.4,1.4-1.1,1.8C307.6,570.2,307.3,570.2,306.9,570.2
				 M235.2,524.7l69.9,40.3v-80.9L235.2,524.7z"/>
		</g>
	</g>
	<g>
		<g>
			<defs>
				<rect id="SVGID_81_" x="2.2" y="173.4" width="609.4" height="440.6"/>
			</defs>
			<clipPath id="SVGID_82_">
				<use xlink:href="#SVGID_81_"  overflow="visible"/>
			</clipPath>
			<path clip-path="url(#SVGID_82_)" d="M231.3,614c-0.4,0-0.7,0-1.1-0.4c-0.7-0.4-1.1-1.1-1.1-1.8v-87.6c0-0.7,0.4-1.4,1.1-1.8
				c0.7-0.4,1.4-0.4,1.8,0l75.6,43.8c0.7,0.4,1.1,1.1,1.1,1.8s-0.4,1.4-1.1,1.8L232,613.6C232.1,614,231.7,614,231.3,614
				 M233.1,527.8v80.9l69.9-40.3L233.1,527.8z"/>
		</g>
	</g>
	<g>
		<g>
			<defs>
				<rect id="SVGID_83_" x="2.2" y="173.4" width="609.4" height="440.6"/>
			</defs>
			<clipPath id="SVGID_84_">
				<use xlink:href="#SVGID_83_"  overflow="visible"/>
			</clipPath>
			<path clip-path="url(#SVGID_84_)" d="M231.3,614c-0.4,0-0.7,0-1.1-0.4l-75.6-43.8c-0.7-0.4-1.1-1.1-1.1-1.8s0.4-1.4,1.1-1.8
				l75.6-43.8c0.7-0.4,1.4-0.4,1.8,0c0.4,0.4,1.1,1.1,1.1,1.8v87.6c0,0.7-0.4,1.4-1.1,1.8C232.1,614,231.7,614,231.3,614
				 M159.3,568.5l69.9,40.3v-80.9L159.3,568.5z"/>
		</g>
	</g>
	<g>
		<g>
			<defs>
				<rect id="SVGID_85_" x="2.2" y="173.4" width="609.4" height="440.6"/>
			</defs>
			<clipPath id="SVGID_86_">
				<use xlink:href="#SVGID_85_"  overflow="visible"/>
			</clipPath>
			<path clip-path="url(#SVGID_86_)" d="M382.8,526.4c-0.4,0-0.7,0-1.1-0.4l-75.5-43.3c-0.7-0.4-1.1-1.1-1.1-1.8s0.4-1.4,1.1-1.8
				l75.9-43.8c0.7-0.4,1.4-0.4,1.8,0c0.7,0.4,1.1,1.1,1.1,1.8v87.6c0,0.7-0.4,1.4-1.1,1.8C383.5,526.4,383.2,526.4,382.8,526.4
				 M310.8,480.9l69.9,40.3v-80.9L310.8,480.9z"/>
		</g>
	</g>
	<g>
		<g>
			<defs>
				<rect id="SVGID_87_" x="2.2" y="173.4" width="609.4" height="440.6"/>
			</defs>
			<clipPath id="SVGID_88_">
				<use xlink:href="#SVGID_87_"  overflow="visible"/>
			</clipPath>
			<path clip-path="url(#SVGID_88_)" d="M382.8,526.4c-0.4,0-0.7,0-1.1-0.4c-0.7-0.4-1.1-1.1-1.1-1.8V437c0-0.7,0.4-1.4,1.1-1.8
				s1.4-0.4,1.8,0l75.9,43.8c0.7,0.4,1.1,1.1,1.1,1.8s-0.4,1.4-1.1,1.8l-75.6,43.8C383.5,526.4,383.2,526.4,382.8,526.4
				 M384.6,440.6v80.9l69.9-40.6L384.6,440.6z"/>
		</g>
	</g>
	<g>
		<g>
			<defs>
				<rect id="SVGID_89_" x="2.2" y="173.4" width="609.4" height="440.6"/>
			</defs>
			<clipPath id="SVGID_90_">
				<use xlink:href="#SVGID_89_"  overflow="visible"/>
			</clipPath>
			<path clip-path="url(#SVGID_90_)" d="M306.9,570.2c-0.4,0-0.7,0-1.1-0.4l0,0c-0.7-0.4-1.1-1.1-1.1-1.8v-87.6
				c0-0.7,0.4-1.4,1.1-1.8c0.7-0.4,1.4-0.4,1.8,0l75.9,43.8c0.7,0.4,1.1,1.1,1.1,1.8s-0.4,1.4-1.1,1.8l-75.6,43.8
				C307.6,570.2,307.3,570.2,306.9,570.2 M309,484.4v80.9l69.9-40.3L309,484.4z"/>
		</g>
	</g>
	<g>
		<g>
			<defs>
				<rect id="SVGID_91_" x="2.2" y="173.4" width="609.4" height="440.6"/>
			</defs>
			<clipPath id="SVGID_92_">
				<use xlink:href="#SVGID_91_"  overflow="visible"/>
			</clipPath>
			<path clip-path="url(#SVGID_92_)" d="M458.4,570.2c-0.4,0-0.7,0-1.1-0.4L381.7,526c-0.7-0.4-1.1-1.1-1.1-1.8s0.4-1.4,1.1-1.8
				l75.9-43.8c0.7-0.4,1.4-0.4,1.8,0c0.7,0.4,1.1,1.1,1.1,1.8V568c0,0.7-0.4,1.4-1.1,1.8C459.1,570.2,458.7,570.2,458.4,570.2
				 M386.7,524.7l69.9,40.3v-80.9L386.7,524.7z"/>
		</g>
	</g>
	<g>
		<g>
			<defs>
				<rect id="SVGID_93_" x="2.2" y="173.4" width="609.4" height="440.6"/>
			</defs>
			<clipPath id="SVGID_94_">
				<use xlink:href="#SVGID_93_"  overflow="visible"/>
			</clipPath>
			<path clip-path="url(#SVGID_94_)" d="M382.8,614c-0.4,0-0.7,0-1.1-0.4c-0.7-0.4-1.1-1.1-1.1-1.8v-87.6c0-0.7,0.4-1.4,1.1-1.8
				s1.4-0.4,1.8,0l75.6,43.8c0.7,0.4,1.1,1.1,1.1,1.8s-0.4,1.4-1.1,1.8l-75.2,43.8C383.5,614,383.2,614,382.8,614 M384.6,527.8v80.9
				l69.9-40.3L384.6,527.8z"/>
		</g>
	</g>
	<g>
		<g>
			<defs>
				<rect id="SVGID_95_" x="2.2" y="173.4" width="609.4" height="440.6"/>
			</defs>
			<clipPath id="SVGID_96_">
				<use xlink:href="#SVGID_95_"  overflow="visible"/>
			</clipPath>
			<path clip-path="url(#SVGID_96_)" d="M382.8,614c-0.4,0-0.7,0-1.1-0.4l-75.5-43.7c-0.7-0.4-1.1-1.1-1.1-1.8s0.4-1.4,1.1-1.8
				l75.6-43.8c0.7-0.4,1.4-0.4,1.8,0c0.7,0.4,1.1,1.1,1.1,1.8v87.6c0,0.7-0.4,1.4-1.1,1.8C383.5,614,383.2,614,382.8,614
				 M310.8,568.5l69.9,40.3v-80.9L310.8,568.5z"/>
		</g>
	</g>
	<g>
		<g>
			<defs>
				<rect id="SVGID_97_" x="2.2" y="173.4" width="609.4" height="440.6"/>
			</defs>
			<clipPath id="SVGID_98_">
				<use xlink:href="#SVGID_97_"  overflow="visible"/>
			</clipPath>
			<path clip-path="url(#SVGID_98_)" d="M231,338.6c6.4,0,11.7,5.3,11.7,11.7c0,6.4-5.3,11.7-11.7,11.7s-11.7-5.3-11.7-11.7
				S224.6,338.6,231,338.6"/>
		</g>
	</g>
	<g>
		<g>
			<defs>
				<rect id="SVGID_99_" x="2.2" y="173.4" width="609.4" height="440.6"/>
			</defs>
			<clipPath id="SVGID_100_">
				<use xlink:href="#SVGID_99_"  overflow="visible"/>
			</clipPath>
			<path clip-path="url(#SVGID_100_)" d="M231,251.4c6.4,0,11.7,5.3,11.7,11.7s-5.3,11.7-11.7,11.7s-11.7-5.3-11.7-11.7
				S224.6,251.4,231,251.4"/>
		</g>
	</g>
	<g>
		<g>
			<defs>
				<rect id="SVGID_101_" x="2.2" y="173.4" width="609.4" height="440.6"/>
			</defs>
			<clipPath id="SVGID_102_">
				<use xlink:href="#SVGID_101_"  overflow="visible"/>
			</clipPath>
			<path clip-path="url(#SVGID_102_)" d="M231,425.5c6.4,0,11.7,5.3,11.7,11.7c0,6.4-5.3,11.7-11.7,11.7s-11.7-5.3-11.7-11.7
				S224.6,425.5,231,425.5"/>
		</g>
	</g>
	<g>
		<g>
			<defs>
				<rect id="SVGID_103_" x="2.2" y="173.4" width="609.4" height="440.6"/>
			</defs>
			<clipPath id="SVGID_104_">
				<use xlink:href="#SVGID_103_"  overflow="visible"/>
			</clipPath>
			<path clip-path="url(#SVGID_104_)" d="M231,512.7c6.4,0,11.7,5.3,11.7,11.7s-5.3,11.7-11.7,11.7s-11.7-5.3-11.7-11.7
				S224.6,512.7,231,512.7"/>
		</g>
	</g>
	<g>
		<g>
			<defs>
				<rect id="SVGID_105_" x="2.2" y="173.4" width="609.4" height="440.6"/>
			</defs>
			<clipPath id="SVGID_106_">
				<use xlink:href="#SVGID_105_"  overflow="visible"/>
			</clipPath>
			<path clip-path="url(#SVGID_106_)" d="M78.1,251.4c6.4,0,11.7,5.3,11.7,11.7s-5.3,11.7-11.7,11.7s-11.7-5.3-11.7-11.7
				C66.8,256.3,71.8,251.4,78.1,251.4"/>
		</g>
	</g>
	<g>
		<g>
			<defs>
				<rect id="SVGID_107_" x="2.2" y="173.4" width="609.4" height="440.6"/>
			</defs>
			<clipPath id="SVGID_108_">
				<use xlink:href="#SVGID_107_"  overflow="visible"/>
			</clipPath>
			<path clip-path="url(#SVGID_108_)" d="M78.1,512.7c6.4,0,11.7,5.3,11.7,11.7S84.5,536,78.1,536s-11.7-5.3-11.7-11.7
				C66.8,518,71.8,512.7,78.1,512.7"/>
		</g>
	</g>
	<g>
		<g>
			<defs>
				<rect id="SVGID_109_" x="2.2" y="173.4" width="609.4" height="440.6"/>
			</defs>
			<clipPath id="SVGID_110_">
				<use xlink:href="#SVGID_109_"  overflow="visible"/>
			</clipPath>
			<path clip-path="url(#SVGID_110_)" d="M155.4,382.4c6.4,0,11.7,5.3,11.7,11.7c0,6.4-5.3,11.7-11.7,11.7s-11.7-5.3-11.7-11.7
				C144.1,387.7,149.1,382.4,155.4,382.4"/>
		</g>
	</g>
	<g>
		<g>
			<defs>
				<rect id="SVGID_111_" x="2.2" y="173.4" width="609.4" height="440.6"/>
			</defs>
			<clipPath id="SVGID_112_">
				<use xlink:href="#SVGID_111_"  overflow="visible"/>
			</clipPath>
			<path clip-path="url(#SVGID_112_)" d="M306.9,382.4c6.4,0,11.7,5.3,11.7,11.7c0,6.4-5.3,11.7-11.7,11.7
				c-6.4,0-11.7-5.3-11.7-11.7C295.6,387.7,300.6,382.4,306.9,382.4"/>
		</g>
	</g>
	<g>
		<g>
			<defs>
				<rect id="SVGID_113_" x="2.2" y="173.4" width="609.4" height="440.6"/>
			</defs>
			<clipPath id="SVGID_114_">
				<use xlink:href="#SVGID_113_"  overflow="visible"/>
			</clipPath>
			<path clip-path="url(#SVGID_114_)" d="M155.4,294.8c6.4,0,11.7,5.3,11.7,11.7s-5.3,11.7-11.7,11.7s-11.7-5.3-11.7-11.7
				C144.1,300.1,149.1,294.8,155.4,294.8"/>
		</g>
	</g>
	<g>
		<g>
			<defs>
				<rect id="SVGID_115_" x="2.2" y="173.4" width="609.4" height="440.6"/>
			</defs>
			<clipPath id="SVGID_116_">
				<use xlink:href="#SVGID_115_"  overflow="visible"/>
			</clipPath>
			<path clip-path="url(#SVGID_116_)" d="M306.9,294.8c6.4,0,11.7,5.3,11.7,11.7s-5.3,11.7-11.7,11.7c-6.4,0-11.7-5.3-11.7-11.7
				S300.6,294.8,306.9,294.8"/>
		</g>
	</g>
	<g>
		<g>
			<defs>
				<rect id="SVGID_117_" x="2.2" y="173.4" width="609.4" height="440.6"/>
			</defs>
			<clipPath id="SVGID_118_">
				<use xlink:href="#SVGID_117_"  overflow="visible"/>
			</clipPath>
			<path clip-path="url(#SVGID_118_)" d="M155.4,469.2c6.4,0,11.7,5.3,11.7,11.7s-5.3,11.7-11.7,11.7s-11.7-5.3-11.7-11.7
				C144.1,474.5,149.1,469.2,155.4,469.2"/>
		</g>
	</g>
	<g>
		<g>
			<defs>
				<rect id="SVGID_119_" x="2.2" y="173.4" width="609.4" height="440.6"/>
			</defs>
			<clipPath id="SVGID_120_">
				<use xlink:href="#SVGID_119_"  overflow="visible"/>
			</clipPath>
			<path clip-path="url(#SVGID_120_)" d="M306.9,469.2c6.4,0,11.7,5.3,11.7,11.7s-5.3,11.7-11.7,11.7c-6.4,0-11.7-5.3-11.7-11.7
				C295.6,474.5,300.6,469.2,306.9,469.2"/>
		</g>
	</g>
	<g>
		<g>
			<defs>
				<rect id="SVGID_121_" x="2.2" y="173.4" width="609.4" height="440.6"/>
			</defs>
			<clipPath id="SVGID_122_">
				<use xlink:href="#SVGID_121_"  overflow="visible"/>
			</clipPath>
			<path clip-path="url(#SVGID_122_)" d="M382.8,251.4c6.4,0,11.7,5.3,11.7,11.7s-5.3,11.7-11.7,11.7c-6.4,0-11.7-5.3-11.7-11.7
				C371.2,256.3,376.5,251.4,382.8,251.4"/>
		</g>
	</g>
	<g>
		<g>
			<defs>
				<rect id="SVGID_123_" x="2.2" y="173.4" width="609.4" height="440.6"/>
			</defs>
			<clipPath id="SVGID_124_">
				<use xlink:href="#SVGID_123_"  overflow="visible"/>
			</clipPath>
			<path clip-path="url(#SVGID_124_)" d="M382.8,512.7c6.4,0,11.7,5.3,11.7,11.7s-5.3,11.6-11.7,11.6s-11.7-5.3-11.7-11.7
				S376.5,512.7,382.8,512.7"/>
		</g>
	</g>
	<g>
		<g>
			<defs>
				<rect id="SVGID_125_" x="2.2" y="173.4" width="609.4" height="440.6"/>
			</defs>
			<clipPath id="SVGID_126_">
				<use xlink:href="#SVGID_125_"  overflow="visible"/>
			</clipPath>
			<path clip-path="url(#SVGID_126_)" d="M382.5,264.8c-0.4,0-0.7,0-1.1-0.4l-75.9-43.8c-0.7-0.4-1.1-1.1-1.1-1.8
				c0-0.7,0.4-1.4,1.1-1.8l75.9-43.8c0.7-0.4,1.4-0.4,1.8,0c0.7,0.4,1.1,1.1,1.1,1.8v87.6c0,0.7-0.4,1.4-1.1,1.8
				C383.2,264.8,382.8,264.8,382.5,264.8 M310.4,218.9l69.9,40.3v-80.5L310.4,218.9z"/>
		</g>
	</g>
	<g>
		<g>
			<defs>
				<rect id="SVGID_127_" x="2.2" y="173.4" width="609.4" height="440.6"/>
			</defs>
			<clipPath id="SVGID_128_">
				<use xlink:href="#SVGID_127_"  overflow="visible"/>
			</clipPath>
			<path clip-path="url(#SVGID_128_)" d="M382.5,264.8c-0.4,0-0.7,0-1.1-0.4c-0.7-0.4-1.1-1.1-1.1-1.8V175c0-0.7,0.4-1.4,1.1-1.8
				c0.7-0.4,1.4-0.4,1.8,0l75.9,43.8c0.7,0.4,1.1,1.1,1.1,1.8c0,0.7-0.4,1.4-1.1,1.8l-75.6,43.8
				C383.2,264.8,382.8,264.8,382.5,264.8 M384.6,178.7v80.9l69.9-40.6L384.6,178.7z"/>
		</g>
	</g>
	<g>
		<g>
			<defs>
				<rect id="SVGID_129_" x="2.2" y="173.4" width="609.4" height="440.6"/>
			</defs>
			<clipPath id="SVGID_130_">
				<use xlink:href="#SVGID_129_"  overflow="visible"/>
			</clipPath>
			<path clip-path="url(#SVGID_130_)" d="M306.9,308.6c-0.4,0-0.7,0-1.1-0.4l0,0c-0.7-0.4-1.1-1.1-1.1-1.8v-87.6
				c0-0.7,0.4-1.4,1.1-1.8s1.4-0.4,1.8,0l75.9,43.8c0.7,0.4,1.1,1.1,1.1,1.8c0,0.7-0.4,1.4-1.1,1.8l-75.6,43.8
				C307.6,308.2,307.3,308.6,306.9,308.6 M308.7,222.4v80.9l69.9-40.3L308.7,222.4z"/>
		</g>
	</g>
	<g>
		<g>
			<defs>
				<rect id="SVGID_131_" x="2.2" y="173.4" width="609.4" height="440.6"/>
			</defs>
			<clipPath id="SVGID_132_">
				<use xlink:href="#SVGID_131_"  overflow="visible"/>
			</clipPath>
			<path clip-path="url(#SVGID_132_)" d="M458,308.6c-0.4,0-0.7,0-1.1-0.4l-75.6-43.8c-0.7-0.4-1.1-1.1-1.1-1.8
				c0-0.7,0.4-1.4,1.1-1.8l75.9-43.8c0.7-0.4,1.4-0.4,1.8,0c0.7,0.4,1.1,1.1,1.1,1.8v87.6c0,0.7-0.4,1.4-1.1,1.8
				C458.7,308.2,458.4,308.6,458,308.6 M386.3,262.7l69.9,40.6v-80.9L386.3,262.7z"/>
		</g>
	</g>
	<g>
		<g>
			<defs>
				<rect id="SVGID_133_" x="2.2" y="173.4" width="609.4" height="440.6"/>
			</defs>
			<clipPath id="SVGID_134_">
				<use xlink:href="#SVGID_133_"  overflow="visible"/>
			</clipPath>
			<path clip-path="url(#SVGID_134_)" d="M382.5,352c-0.4,0-0.7,0-1.1-0.4c-0.7-0.4-1.1-1.1-1.1-1.8v-87.2c0-0.7,0.4-1.4,1.1-1.8
				s1.4-0.4,1.8,0l75.6,43.8c0.7,0.4,1.1,1.1,1.1,1.8c0,0.7-0.4,1.4-1.1,1.8L383.2,352C383.2,352,382.8,352,382.5,352 M384.6,266.2
				v80.9l69.9-40.6L384.6,266.2z"/>
		</g>
	</g>
	<g>
		<g>
			<defs>
				<rect id="SVGID_135_" x="2.2" y="173.4" width="609.4" height="440.6"/>
			</defs>
			<clipPath id="SVGID_136_">
				<use xlink:href="#SVGID_135_"  overflow="visible"/>
			</clipPath>
			<path clip-path="url(#SVGID_136_)" d="M382.5,352c-0.4,0-0.7,0-1.1-0.4l-75.6-43.8c-0.7-0.4-1.1-1.1-1.1-1.8
				c0-0.7,0.4-1.4,1.1-1.8l75.6-43.8c0.7-0.4,1.4-0.4,1.8,0c0.7,0.4,1.1,1.1,1.1,1.8v87.6c0,0.7-0.4,1.4-1.1,1.8
				C383.2,352,382.8,352,382.5,352 M310.8,306.5l69.9,40.3v-80.5L310.8,306.5z"/>
		</g>
	</g>
	<g>
		<g>
			<defs>
				<rect id="SVGID_137_" x="2.2" y="173.4" width="609.4" height="440.6"/>
			</defs>
			<clipPath id="SVGID_138_">
				<use xlink:href="#SVGID_137_"  overflow="visible"/>
			</clipPath>
			<path clip-path="url(#SVGID_138_)" d="M533.9,264.8c-0.4,0-0.7,0-1.1-0.4l-75.9-43.8c-0.7-0.4-1.1-1.1-1.1-1.8
				c0-0.7,0.4-1.4,1.1-1.8l75.9-43.8c0.7-0.4,1.4-0.4,1.8,0c0.7,0.4,1.1,1.1,1.1,1.8v87.6c0,0.7-0.4,1.4-1.1,1.8
				C534.6,264.8,534.3,264.8,533.9,264.8 M461.9,218.9l70.3,40.6v-80.9L461.9,218.9z"/>
		</g>
	</g>
	<g>
		<g>
			<defs>
				<rect id="SVGID_139_" x="2.2" y="173.4" width="609.4" height="440.6"/>
			</defs>
			<clipPath id="SVGID_140_">
				<use xlink:href="#SVGID_139_"  overflow="visible"/>
			</clipPath>
			<path clip-path="url(#SVGID_140_)" d="M533.9,264.8c-0.4,0-0.7,0-1.1-0.4c-0.7-0.4-1.1-1.1-1.1-1.8V175c0-0.7,0.4-1.4,1.1-1.8
				c0.7-0.4,1.4-0.4,1.8,0l75.9,43.8c0.7,0.4,1.1,1.1,1.1,1.8c0,0.7-0.4,1.4-1.1,1.8l-75.6,43.8
				C534.6,264.8,534.3,264.8,533.9,264.8 M536.1,178.7v80.9l69.9-40.3L536.1,178.7z"/>
		</g>
	</g>
	<g>
		<g>
			<defs>
				<rect id="SVGID_141_" x="2.2" y="173.4" width="609.4" height="440.6"/>
			</defs>
			<clipPath id="SVGID_142_">
				<use xlink:href="#SVGID_141_"  overflow="visible"/>
			</clipPath>
			<path clip-path="url(#SVGID_142_)" d="M458.4,308.6c-0.4,0-0.7,0-1.1-0.4l0,0c-0.7-0.4-1.1-1.1-1.1-1.8v-87.6
				c0-0.7,0.4-1.4,1.1-1.8s1.4-0.4,1.8,0l75.9,43.8c0.7,0.4,1.1,1.1,1.1,1.8c0,0.7-0.4,1.4-1.1,1.8l-75.6,43.8
				C459.1,308.2,458.7,308.6,458.4,308.6 M460.1,222.4v80.9L530,263L460.1,222.4z"/>
		</g>
	</g>
	<g>
		<g>
			<defs>
				<rect id="SVGID_143_" x="2.2" y="173.4" width="609.4" height="440.6"/>
			</defs>
			<clipPath id="SVGID_144_">
				<use xlink:href="#SVGID_143_"  overflow="visible"/>
			</clipPath>
			<path clip-path="url(#SVGID_144_)" d="M609.8,308.6c-0.4,0-0.7,0-1.1-0.4l-75.9-43.8c-0.7-0.4-1.1-1.1-1.1-1.8
				c0-0.7,0.4-1.4,1.1-1.8l75.9-43.8c0.7-0.4,1.4-0.4,1.8,0c0.7,0.4,1.1,1.1,1.1,1.8v87.6c0,0.7-0.4,1.4-1.1,1.8
				C610.2,308.2,609.8,308.6,609.8,308.6 M537.8,262.7l69.9,40.6v-80.9L537.8,262.7z"/>
		</g>
	</g>
	<g>
		<g>
			<defs>
				<rect id="SVGID_145_" x="2.2" y="173.4" width="609.4" height="440.6"/>
			</defs>
			<clipPath id="SVGID_146_">
				<use xlink:href="#SVGID_145_"  overflow="visible"/>
			</clipPath>
			<path clip-path="url(#SVGID_146_)" d="M533.9,352c-0.4,0-0.7,0-1.1-0.4c-0.7-0.4-1.1-1.1-1.1-1.8v-87.2c0-0.7,0.4-1.4,1.1-1.8
				c0.7-0.4,1.4-0.4,1.8,0l75.6,43.8c0.7,0.4,1.1,1.1,1.1,1.8c0,0.7-0.4,1.4-1.1,1.8L534.6,352C534.6,352,534.3,352,533.9,352
				 M536.1,266.2v80.9l69.9-40.3L536.1,266.2z"/>
		</g>
	</g>
	<g>
		<g>
			<defs>
				<rect id="SVGID_147_" x="2.2" y="173.4" width="609.4" height="440.6"/>
			</defs>
			<clipPath id="SVGID_148_">
				<use xlink:href="#SVGID_147_"  overflow="visible"/>
			</clipPath>
			<path clip-path="url(#SVGID_148_)" d="M533.9,352c-0.4,0-0.7,0-1.1-0.4l-75.6-43.8c-0.7-0.4-1.1-1.1-1.1-1.8
				c0-0.7,0.4-1.4,1.1-1.8l75.6-43.8c0.7-0.4,1.4-0.4,1.8,0c0.7,0.4,1.1,1.1,1.1,1.8v87.6c0,0.7-0.4,1.4-1.1,1.8
				C534.6,352,534.3,352,533.9,352 M462.3,306.5l69.9,40.3v-80.5L462.3,306.5z"/>
		</g>
	</g>
	<g>
		<g>
			<defs>
				<rect id="SVGID_149_" x="2.2" y="173.4" width="609.4" height="440.6"/>
			</defs>
			<clipPath id="SVGID_150_">
				<use xlink:href="#SVGID_149_"  overflow="visible"/>
			</clipPath>
			<path clip-path="url(#SVGID_150_)" d="M458,395.8c-0.4,0-0.7,0-1.1-0.4L381,351.6c-0.7-0.4-1.1-1.1-1.1-1.8s0.4-1.4,1.1-1.8
				l75.9-43.8c0.7-0.4,1.4-0.4,1.8,0c0.7,0.4,1.1,1.1,1.1,1.8v87.6c0,0.7-0.4,1.4-1.1,1.8C458.7,395.8,458.4,395.8,458,395.8
				 M386,350.3l69.9,40.3v-80.9L386,350.3z"/>
		</g>
	</g>
	<g>
		<g>
			<defs>
				<rect id="SVGID_151_" x="2.2" y="173.4" width="609.4" height="440.6"/>
			</defs>
			<clipPath id="SVGID_152_">
				<use xlink:href="#SVGID_151_"  overflow="visible"/>
			</clipPath>
			<path clip-path="url(#SVGID_152_)" d="M458,395.8c-0.4,0-0.7,0-1.1-0.4c-0.7-0.4-1.1-1.1-1.1-1.8v-87.2c0-0.7,0.4-1.4,1.1-1.8
				s1.4-0.4,1.8,0l75.9,43.8c0.7,0.4,1.1,1.1,1.1,1.8s-0.4,1.4-1.1,1.8l-75.9,43.8C458.7,395.8,458.4,395.8,458,395.8 M459.8,309.6
				v80.9l69.9-40.3L459.8,309.6z"/>
		</g>
	</g>
	<g>
		<g>
			<defs>
				<rect id="SVGID_153_" x="2.2" y="173.4" width="609.4" height="440.6"/>
			</defs>
			<clipPath id="SVGID_154_">
				<use xlink:href="#SVGID_153_"  overflow="visible"/>
			</clipPath>
			<path clip-path="url(#SVGID_154_)" d="M382.1,439.6c-0.4,0-0.7,0-1.1-0.4l0,0c-0.7-0.4-1.1-1.1-1.1-1.8v-87.2
				c0-0.7,0.4-1.4,1.1-1.8s1.4-0.4,1.8,0l75.9,43.8c0.7,0.4,1.1,1.1,1.1,1.8s-0.4,1.4-1.1,1.8l-75.5,43.8
				C382.8,439.6,382.5,439.6,382.1,439.6 M384.2,353.4v80.9l69.9-40.3L384.2,353.4z"/>
		</g>
	</g>
	<g>
		<g>
			<defs>
				<rect id="SVGID_155_" x="2.2" y="173.4" width="609.4" height="440.6"/>
			</defs>
			<clipPath id="SVGID_156_">
				<use xlink:href="#SVGID_155_"  overflow="visible"/>
			</clipPath>
			<path clip-path="url(#SVGID_156_)" d="M533.6,439.6c-0.4,0-0.7,0-1.1-0.4l-75.6-43.8c-0.7-0.4-1.1-1.1-1.1-1.8s0.4-1.4,1.1-1.8
				l75.9-43.8c0.7-0.4,1.4-0.4,1.8,0c0.7,0.4,1.1,1.1,1.1,1.8v87.6c0,0.7-0.4,1.4-1.1,1.8C534.3,439.6,533.9,439.6,533.6,439.6
				 M461.9,394l69.9,40.3v-80.9L461.9,394z"/>
		</g>
	</g>
	<g>
		<g>
			<defs>
				<rect id="SVGID_157_" x="2.2" y="173.4" width="609.4" height="440.6"/>
			</defs>
			<clipPath id="SVGID_158_">
				<use xlink:href="#SVGID_157_"  overflow="visible"/>
			</clipPath>
			<path clip-path="url(#SVGID_158_)" d="M458,483.4c-0.4,0-0.7,0-1.1-0.4c-0.7-0.4-1.1-1.1-1.1-1.8V394c0-0.7,0.4-1.4,1.1-1.8
				s1.4-0.4,1.8,0l75.6,43.8c0.7,0.4,1.1,1.1,1.1,1.8s-0.4,1.4-1.1,1.8l-75.6,43.8C458.7,483.4,458.4,483.4,458,483.4 M459.8,397.2
				v80.9l69.9-40.3L459.8,397.2z"/>
		</g>
	</g>
	<g>
		<g>
			<defs>
				<rect id="SVGID_159_" x="2.2" y="173.4" width="609.4" height="440.6"/>
			</defs>
			<clipPath id="SVGID_160_">
				<use xlink:href="#SVGID_159_"  overflow="visible"/>
			</clipPath>
			<path clip-path="url(#SVGID_160_)" d="M458,483.4c-0.4,0-0.7,0-1.1-0.4l-75.6-43.8c-0.7-0.4-1.1-1.1-1.1-1.8s0.4-1.4,1.1-1.8
				l75.6-43.8c0.7-0.4,1.4-0.4,1.8,0c0.7,0.4,1.1,1.1,1.1,1.8v87.6c0,0.7-0.4,1.4-1.1,1.8C458.7,483.4,458.4,483.4,458,483.4
				 M386,437.5l69.9,40.3v-80.5L386,437.5z"/>
		</g>
	</g>
	<g>
		<g>
			<defs>
				<rect id="SVGID_161_" x="2.2" y="173.4" width="609.4" height="440.6"/>
			</defs>
			<clipPath id="SVGID_162_">
				<use xlink:href="#SVGID_161_"  overflow="visible"/>
			</clipPath>
			<path clip-path="url(#SVGID_162_)" d="M382.5,526.4c-0.4,0-0.7,0-1.1-0.4l-75.9-43.8c-0.7-0.4-1.1-1.1-1.1-1.8s0.4-1.4,1.1-1.8
				l75.9-43.8c0.7-0.4,1.4-0.4,1.8,0c0.7,0.4,1.1,1.1,1.1,1.8v87.6c0,0.7-0.4,1.4-1.1,1.8C383.2,526.4,382.8,526.4,382.5,526.4
				 M310.4,480.9l69.9,40.3v-80.9L310.4,480.9z"/>
		</g>
	</g>
	<g>
		<g>
			<defs>
				<rect id="SVGID_163_" x="2.2" y="173.4" width="609.4" height="440.6"/>
			</defs>
			<clipPath id="SVGID_164_">
				<use xlink:href="#SVGID_163_"  overflow="visible"/>
			</clipPath>
			<path clip-path="url(#SVGID_164_)" d="M382.5,526.4c-0.4,0-0.7,0-1.1-0.4c-0.7-0.4-1.1-1.1-1.1-1.8V437c0-0.7,0.4-1.4,1.1-1.8
				s1.4-0.4,1.8,0l75.9,43.8c0.7,0.4,1.1,1.1,1.1,1.8s-0.4,1.4-1.1,1.8l-75.9,43.8C383.2,526.4,382.8,526.4,382.5,526.4
				 M384.6,440.6v80.9l69.9-40.6L384.6,440.6z"/>
		</g>
	</g>
	<g>
		<g>
			<defs>
				<rect id="SVGID_165_" x="2.2" y="173.4" width="609.4" height="440.6"/>
			</defs>
			<clipPath id="SVGID_166_">
				<use xlink:href="#SVGID_165_"  overflow="visible"/>
			</clipPath>
			<path clip-path="url(#SVGID_166_)" d="M306.9,570.2c-0.4,0-0.7,0-1.1-0.4l0,0c-0.7-0.4-1.1-1.1-1.1-1.8v-87.6
				c0-0.7,0.4-1.4,1.1-1.8c0.7-0.4,1.4-0.4,1.8,0l75.9,43.8c0.7,0.4,1.1,1.1,1.1,1.8s-0.4,1.4-1.1,1.8l-75.6,43.8
				C307.6,570.2,307.3,570.2,306.9,570.2 M308.7,484.4v80.9l69.9-40.3L308.7,484.4z"/>
		</g>
	</g>
	<g>
		<g>
			<defs>
				<rect id="SVGID_167_" x="2.2" y="173.4" width="609.4" height="440.6"/>
			</defs>
			<clipPath id="SVGID_168_">
				<use xlink:href="#SVGID_167_"  overflow="visible"/>
			</clipPath>
			<path clip-path="url(#SVGID_168_)" d="M458,570.2c-0.4,0-0.7,0-1.1-0.4L381.3,526c-0.7-0.4-1.1-1.1-1.1-1.8s0.4-1.4,1.1-1.8
				l75.9-43.8c0.7-0.4,1.4-0.4,1.8,0c0.7,0.4,1.1,1.1,1.1,1.8V568c0,0.7-0.4,1.4-1.1,1.8C458.7,570.2,458.4,570.2,458,570.2
				 M386.3,524.7l69.9,40.3v-80.9L386.3,524.7z"/>
		</g>
	</g>
	<g>
		<g>
			<defs>
				<rect id="SVGID_169_" x="2.2" y="173.4" width="609.4" height="440.6"/>
			</defs>
			<clipPath id="SVGID_170_">
				<use xlink:href="#SVGID_169_"  overflow="visible"/>
			</clipPath>
			<path clip-path="url(#SVGID_170_)" d="M382.5,614c-0.4,0-0.7,0-1.1-0.4c-0.7-0.4-1.1-1.1-1.1-1.8v-87.6c0-0.7,0.4-1.4,1.1-1.8
				c0.7-0.4,1.4-0.4,1.8,0l75.6,43.8c0.7,0.4,1.1,1.1,1.1,1.8s-0.4,1.4-1.1,1.8l-75.6,43.8C383.2,614,382.8,614,382.5,614
				 M384.6,527.8v80.9l69.9-40.3L384.6,527.8z"/>
		</g>
	</g>
	<g>
		<g>
			<defs>
				<rect id="SVGID_171_" x="2.2" y="173.4" width="609.4" height="440.6"/>
			</defs>
			<clipPath id="SVGID_172_">
				<use xlink:href="#SVGID_171_"  overflow="visible"/>
			</clipPath>
			<path clip-path="url(#SVGID_172_)" d="M382.5,614c-0.4,0-0.7,0-1.1-0.4l-75.6-43.8c-0.7-0.4-1.1-1.1-1.1-1.8s0.4-1.4,1.1-1.8
				l75.6-43.8c0.7-0.4,1.4-0.4,1.8,0c0.7,0.4,1.1,1.1,1.1,1.8v87.6c0,0.7-0.4,1.4-1.1,1.8C383.2,614,382.8,614,382.5,614
				 M310.8,568.5l69.9,40.3v-80.9L310.8,568.5z"/>
		</g>
	</g>
	<g>
		<g>
			<defs>
				<rect id="SVGID_173_" x="2.2" y="173.4" width="609.4" height="440.6"/>
			</defs>
			<clipPath id="SVGID_174_">
				<use xlink:href="#SVGID_173_"  overflow="visible"/>
			</clipPath>
			<path clip-path="url(#SVGID_174_)" d="M533.9,526.4c-0.4,0-0.7,0-1.1-0.4l-75.9-43.8c-0.7-0.4-1.1-1.1-1.1-1.8s0.4-1.4,1.1-1.8
				l75.9-43.8c0.7-0.4,1.4-0.4,1.8,0c0.7,0.4,1.1,1.1,1.1,1.8v87.6c0,0.7-0.4,1.4-1.1,1.8C534.6,526.4,534.3,526.4,533.9,526.4
				 M461.9,480.9l69.9,40.3v-80.9L461.9,480.9z"/>
		</g>
	</g>
	<g>
		<g>
			<defs>
				<rect id="SVGID_175_" x="2.2" y="173.4" width="609.4" height="440.6"/>
			</defs>
			<clipPath id="SVGID_176_">
				<use xlink:href="#SVGID_175_"  overflow="visible"/>
			</clipPath>
			<path clip-path="url(#SVGID_176_)" d="M533.9,526.4c-0.4,0-0.7,0-1.1-0.4c-0.7-0.4-1.1-1.1-1.1-1.8V437c0-0.7,0.4-1.4,1.1-1.8
				c0.7-0.4,1.4-0.4,1.8,0l75.9,43.8c0.7,0.4,1.1,1.1,1.1,1.8s-0.4,1.4-1.1,1.8l-75.9,43.8C534.6,526.4,534.3,526.4,533.9,526.4
				 M536.1,440.6v80.9l69.9-40.6L536.1,440.6z"/>
		</g>
	</g>
	<g>
		<g>
			<defs>
				<rect id="SVGID_177_" x="2.2" y="173.4" width="609.4" height="440.6"/>
			</defs>
			<clipPath id="SVGID_178_">
				<use xlink:href="#SVGID_177_"  overflow="visible"/>
			</clipPath>
			<path clip-path="url(#SVGID_178_)" d="M458.4,570.2c-0.4,0-0.7,0-1.1-0.4l0,0c-0.7-0.4-1.1-1.1-1.1-1.8v-87.6
				c0-0.7,0.4-1.4,1.1-1.8c0.7-0.4,1.4-0.4,1.8,0l75.9,43.8c0.7,0.4,1.1,1.1,1.1,1.8s-0.4,1.4-1.1,1.8l-75.6,43.8
				C459.1,570.2,458.7,570.2,458.4,570.2 M460.1,484.4v80.9L530,525L460.1,484.4z"/>
		</g>
	</g>
	<g>
		<g>
			<defs>
				<rect id="SVGID_179_" x="2.2" y="173.4" width="609.4" height="440.6"/>
			</defs>
			<clipPath id="SVGID_180_">
				<use xlink:href="#SVGID_179_"  overflow="visible"/>
			</clipPath>
			<path clip-path="url(#SVGID_180_)" d="M609.8,570.2c-0.4,0-0.7,0-1.1-0.4l-75.5-43.7c-0.7-0.4-1.1-1.1-1.1-1.8s0.4-1.4,1.1-1.8
				l75.9-43.8c0.7-0.4,1.4-0.4,1.8,0c0.7,0.4,1.1,1.1,1.1,1.8v87.6c0,0.7-0.4,1.4-1.1,1.8C610.2,570.2,609.8,570.2,609.8,570.2
				 M537.8,524.7l69.9,40.3v-80.9L537.8,524.7z"/>
		</g>
	</g>
	<g>
		<g>
			<defs>
				<rect id="SVGID_181_" x="2.2" y="173.4" width="609.4" height="440.6"/>
			</defs>
			<clipPath id="SVGID_182_">
				<use xlink:href="#SVGID_181_"  overflow="visible"/>
			</clipPath>
			<path clip-path="url(#SVGID_182_)" d="M533.9,614c-0.4,0-0.7,0-1.1-0.4c-0.7-0.4-1.1-1.1-1.1-1.8v-87.6c0-0.7,0.4-1.4,1.1-1.8
				c0.7-0.4,1.4-0.4,1.8,0l75.6,43.8c0.7,0.4,1.1,1.1,1.1,1.8s-0.4,1.4-1.1,1.8l-75.6,43.8C534.6,614,534.3,614,533.9,614
				 M536.1,527.8v80.9l69.9-40.3L536.1,527.8z"/>
		</g>
	</g>
	<g>
		<g>
			<defs>
				<rect id="SVGID_183_" x="2.2" y="173.4" width="609.4" height="440.6"/>
			</defs>
			<clipPath id="SVGID_184_">
				<use xlink:href="#SVGID_183_"  overflow="visible"/>
			</clipPath>
			<path clip-path="url(#SVGID_184_)" d="M533.9,614c-0.4,0-0.7,0-1.1-0.4l-75.6-43.8c-0.7-0.4-1.1-1.1-1.1-1.8s0.4-1.4,1.1-1.8
				l75.6-43.8c0.7-0.4,1.4-0.4,1.8,0c0.4,0.4,1.1,1.1,1.1,1.8v87.6c0,0.7-0.4,1.4-1.1,1.8C534.6,614,534.3,614,533.9,614
				 M462.3,568.5l69.9,40.3v-80.9L462.3,568.5z"/>
		</g>
	</g>
	<g>
		<g>
			<defs>
				<rect id="SVGID_185_" x="2.2" y="173.4" width="609.4" height="440.6"/>
			</defs>
			<clipPath id="SVGID_186_">
				<use xlink:href="#SVGID_185_"  overflow="visible"/>
			</clipPath>
			<path clip-path="url(#SVGID_186_)" d="M533.6,338.6c6.4,0,11.7,5.3,11.7,11.7c0,6.4-5.3,11.7-11.7,11.7s-11.7-5.3-11.7-11.7
				C522.3,343.9,527.2,338.6,533.6,338.6"/>
		</g>
	</g>
	<g>
		<g>
			<defs>
				<rect id="SVGID_187_" x="2.2" y="173.4" width="609.4" height="440.6"/>
			</defs>
			<clipPath id="SVGID_188_">
				<use xlink:href="#SVGID_187_"  overflow="visible"/>
			</clipPath>
			<path clip-path="url(#SVGID_188_)" d="M533.6,251.4c6.4,0,11.7,5.3,11.7,11.7s-5.3,11.7-11.7,11.7s-11.7-5.3-11.7-11.7
				S527.2,251.4,533.6,251.4"/>
		</g>
	</g>
	<g>
		<g>
			<defs>
				<rect id="SVGID_189_" x="2.2" y="173.4" width="609.4" height="440.6"/>
			</defs>
			<clipPath id="SVGID_190_">
				<use xlink:href="#SVGID_189_"  overflow="visible"/>
			</clipPath>
			<path clip-path="url(#SVGID_190_)" d="M533.6,425.5c6.4,0,11.7,5.3,11.7,11.7c0,6.4-5.3,11.7-11.7,11.7s-11.7-5.3-11.7-11.7
				S527.2,425.5,533.6,425.5"/>
		</g>
	</g>
	<g>
		<g>
			<defs>
				<rect id="SVGID_191_" x="2.2" y="173.4" width="609.4" height="440.6"/>
			</defs>
			<clipPath id="SVGID_192_">
				<use xlink:href="#SVGID_191_"  overflow="visible"/>
			</clipPath>
			<path clip-path="url(#SVGID_192_)" d="M533.6,512.7c6.4,0,11.7,5.3,11.7,11.7s-5.3,11.7-11.7,11.7s-11.7-5.3-11.7-11.7
				C522.3,518,527.2,512.7,533.6,512.7"/>
		</g>
	</g>
	<g>
		<g>
			<defs>
				<rect id="SVGID_193_" x="2.2" y="173.4" width="609.4" height="440.6"/>
			</defs>
			<clipPath id="SVGID_194_">
				<use xlink:href="#SVGID_193_"  overflow="visible"/>
			</clipPath>
			<path clip-path="url(#SVGID_194_)" d="M381.1,251.4c6.4,0,11.7,5.3,11.7,11.7s-5.3,11.7-11.7,11.7c-6.4,0-11.7-5.3-11.7-11.7
				C369.4,256.3,374.7,251.4,381.1,251.4"/>
		</g>
	</g>
	<g>
		<g>
			<defs>
				<rect id="SVGID_195_" x="2.2" y="173.4" width="609.4" height="440.6"/>
			</defs>
			<clipPath id="SVGID_196_">
				<use xlink:href="#SVGID_195_"  overflow="visible"/>
			</clipPath>
			<path clip-path="url(#SVGID_196_)" d="M381.1,512.7c6.4,0,11.7,5.3,11.7,11.7s-5.3,11.7-11.7,11.7c-6.4,0-11.7-5.3-11.7-11.7
				S374.7,512.7,381.1,512.7"/>
		</g>
	</g>
	<g>
		<g>
			<defs>
				<rect id="SVGID_197_" x="2.2" y="173.4" width="609.4" height="440.6"/>
			</defs>
			<clipPath id="SVGID_198_">
				<use xlink:href="#SVGID_197_"  overflow="visible"/>
			</clipPath>
			<path clip-path="url(#SVGID_198_)" d="M458.4,382.4c6.4,0,11.7,5.3,11.7,11.7c0,6.4-5.3,11.7-11.7,11.7
				c-6.4,0-11.7-5.3-11.7-11.7C446.7,387.7,452,382.4,458.4,382.4"/>
		</g>
	</g>
	<g>
		<g>
			<defs>
				<rect id="SVGID_199_" x="2.2" y="173.4" width="609.4" height="440.6"/>
			</defs>
			<clipPath id="SVGID_200_">
				<use xlink:href="#SVGID_199_"  overflow="visible"/>
			</clipPath>
			<path clip-path="url(#SVGID_200_)" d="M458.4,294.8c6.4,0,11.7,5.3,11.7,11.7s-5.3,11.7-11.7,11.7c-6.4,0-11.7-5.3-11.7-11.7
				S452,294.8,458.4,294.8"/>
		</g>
	</g>
	<g>
		<g>
			<defs>
				<rect id="SVGID_201_" x="2.2" y="173.4" width="609.4" height="440.6"/>
			</defs>
			<clipPath id="SVGID_202_">
				<use xlink:href="#SVGID_201_"  overflow="visible"/>
			</clipPath>
			<path clip-path="url(#SVGID_202_)" d="M458.4,469.2c6.4,0,11.7,5.3,11.7,11.7s-5.3,11.7-11.7,11.7c-6.4,0-11.7-5.3-11.7-11.7
				S452,469.2,458.4,469.2"/>
		</g>
	</g>
</g>
</svg>
