<?xml version="1.0" encoding="utf-8"?>
<!-- Generator: Adobe Illustrator 19.1.0, SVG Export Plug-In . SVG Version: 6.00 Build 0)  -->
<svg version="1.1" id="Layer_1" xmlns="http://www.w3.org/2000/svg" xmlns:xlink="http://www.w3.org/1999/xlink" x="0px" y="0px"
	 viewBox="-376 288.9 38 33.7" enable-background="new -376 288.9 38 33.7" xml:space="preserve">
<path d="M-338,300.6c0-6.4-5.2-11.7-11.7-11.7c-2.8,0-5.3,1-7.3,2.6c-2-1.6-4.5-2.6-7.3-2.6c-6.4,0-11.7,5.2-11.7,11.7
	c0,5,3.2,9.3,7.7,11c0.4,6.1,5.4,11,11.7,11c6.3,0,11.4-5,11.7-11.3C-340.9,309.5-338,305.4-338,300.6z M-375,300.6
	c0-5.9,4.8-10.7,10.7-10.7c2.5,0,4.7,0.8,6.5,2.3c-2.1,2-3.5,4.9-3.6,8c-4,1.8-6.8,5.7-7,10.3C-372.2,308.9-375,305-375,300.6z
	 M-353.7,299.6c-1-0.3-2-0.4-3-0.4c-1.3,0-2.5,0.2-3.6,0.6c0.2-2.7,1.4-5.2,3.3-6.9C-355.2,294.6-353.9,296.9-353.7,299.6z
	 M-346,310.6c-1.1,0.4-2.4,0.7-3.7,0.7c-2.5,0-4.7-0.8-6.5-2.3c2.1-2,3.5-4.9,3.6-8C-348.8,302.6-346.1,306.3-346,310.6z
	 M-357,308.4c-2-1.9-3.3-4.5-3.4-7.5c1.1-0.4,2.4-0.7,3.7-0.7c1.1,0,2.1,0.2,3,0.4C-353.6,303.7-354.9,306.4-357,308.4z
	 M-361.3,301.3c0.2,3,1.5,5.8,3.6,7.7c-1.8,1.4-4.1,2.3-6.5,2.3c-1.1,0-2.1-0.2-3-0.4C-367.3,306.6-364.9,303-361.3,301.3z
	 M-356.7,321.5c-5.5,0-10.1-4.2-10.6-9.7c1,0.3,2,0.4,3,0.4c2.8,0,5.3-1,7.3-2.6c2,1.6,4.5,2.6,7.3,2.6c1.3,0,2.5-0.2,3.6-0.6
	C-346.5,317.2-351.1,321.5-356.7,321.5z M-345,310.2c-0.3-4.7-3.4-8.7-7.6-10.3c-0.2-3-1.5-5.8-3.6-7.7c1.8-1.4,4.1-2.3,6.5-2.3
	c5.9,0,10.7,4.8,10.7,10.7C-339,304.8-341.5,308.4-345,310.2z"/>
</svg>
