<svg xmlns="http://www.w3.org/2000/svg" xmlns:xlink="http://www.w3.org/1999/xlink" preserveAspectRatio="xMidYMid" width="47" height="33" viewBox="0 0 47 33">
  <defs>
    <style>
      .cls-1 {
        stroke: #020303;
        stroke-width: 2px;
        fill: none;
        fill-rule: evenodd;
      }
    </style>
  </defs>
  <path d="M1.009,25.019 L1.009,7.972 C1.009,6.051 1.704,4.408 3.094,3.044 C4.483,1.680 6.157,0.997 8.114,0.997 L27.784,0.997 C29.741,0.997 31.415,1.680 32.805,3.044 C34.195,4.408 34.890,6.051 34.890,7.972 L34.890,11.967 L43.298,5.245 C43.594,4.938 43.964,4.785 44.408,4.785 C44.605,4.785 44.811,4.825 45.025,4.906 C45.666,5.180 45.987,5.656 45.987,6.334 L45.987,26.656 C45.987,27.334 45.666,27.811 45.025,28.085 C44.811,28.166 44.605,28.206 44.408,28.206 C43.964,28.206 43.594,28.053 43.298,27.746 L34.890,21.000 L34.890,25.019 C34.890,26.941 34.195,28.583 32.805,29.947 C31.415,31.312 29.741,31.993 27.784,31.993 L8.114,31.993 C6.157,31.993 4.483,31.312 3.094,29.947 C1.704,28.583 1.009,26.941 1.009,25.019 Z" class="cls-1"/>
</svg>
