<svg xmlns="http://www.w3.org/2000/svg" viewBox="239.2 -1 800 800" enable-background="new 239.2 -1 800 800"><g><g><path d="M639.2 799c220.9 0 400-179.1 400-400S860.1-1 639.2-1s-400 179.1-400 400 179.1 400 400 400z"/><path fill="#fff" d="M612.6 592.7c16.1 8.9 34.3 8.5 46.5-1.6 49-40.4 99.8-108.4 114.1-139.9 27 2.5 45.6-3.9 45.6-3.9l-.2-49.8s-39.6.7-47.1.8c-57.4.8-97-65.8-73.7-122.1 16.2-39 44.6-10.9 49.7 1.2 5.1 12.1 4 44.6-3.4 68.4 9 20.1 57.8 30.7 69 13.9 13.7-36.9 19.7-103.2-15.8-137.6-23.5-22.7-82.3-34.2-125.4-8.4-43.1 25.9-42.3 80.8-38.9 108.3 3.4 27.5 12.7 85.6 70.1 118 5.1 5.7-63 90.2-66.8 86.5C551.8 443.3 529 263.9 529 263.9l-74.4-.8c0-.1 40.5 260.9 158 329.6z"/></g></g></svg>