<svg xmlns="http://www.w3.org/2000/svg" xmlns:xlink="http://www.w3.org/1999/xlink" preserveAspectRatio="xMidYMid" width="39" height="45" viewBox="0 0 39 45">
  <defs>
    <style>
      .cls-1 {
        fill: #363636;
        fill-rule: evenodd;
      }
    </style>
  </defs>
  <path d="M38.999,44.997 L-0.003,44.997 L-0.003,-0.002 L23.091,-0.002 L23.091,15.778 L38.999,15.778 L38.999,44.997 ZM0.819,44.181 L38.177,44.181 L38.177,16.593 L22.269,16.593 L22.269,0.814 L0.819,0.814 L0.819,44.181 ZM28.247,37.431 L10.749,37.431 L10.749,36.616 L28.247,36.616 L28.247,37.431 ZM28.247,31.119 L10.749,31.119 L10.749,30.304 L28.247,30.304 L28.247,31.119 ZM28.247,24.807 L10.749,24.807 L10.749,23.992 L28.247,23.992 L28.247,24.807 ZM38.585,13.437 L25.450,13.437 L25.450,0.408 L38.585,13.437 ZM26.272,12.622 L36.601,12.622 L26.272,2.376 L26.272,12.622 Z" class="cls-1"/>
</svg>
